utn-font.ufo
<glyph name="mvs" format="2">
	<advance width="1712"/>
	<unicode hex="180E"/>
	<note>
		MVS
	</note>
	<outline>
		<contour>
			<point x="355" y="669" type="line"/>
			<point x="434" y="669" type="line"/>
			<point x="434" y="1006" type="line"/>
			<point x="433" y="1013"/>
			<point x="432" y="1014"/>
			<point x="432" y="1009" type="curve"/>
			<point x="510" y="669" type="line"/>
			<point x="591" y="669" type="line"/>
			<point x="666" y="1009" type="line"/>
			<point x="666" y="669" type="line"/>
			<point x="745" y="669" type="line"/>
			<point x="745" y="1074" type="line"/>
			<point x="623" y="1074" type="line"/>
			<point x="551" y="756" type="line"/>
			<point x="477" y="1074" type="line"/>
			<point x="355" y="1074" type="line"/>
		</contour>
		<contour>
			<point x="101" y="-128" type="line"/>
			<point x="256" y="-128" type="line"/>
			<point x="256" y="-72" type="line"/>
			<point x="159" y="-72" type="line"/>
			<point x="159" y="20" type="line"/>
			<point x="101" y="20" type="line"/>
		</contour>
		<contour>
			<point x="344" y="-133" type="line"/>
			<point x="524" y="-133" type="line"/>
			<point x="524" y="-73" type="line"/>
			<point x="344" y="-73" type="line"/>
		</contour>
		<contour>
			<point x="100" y="118" type="line"/>
			<point x="159" y="118" type="line"/>
			<point x="159" y="297" type="line"/>
			<point x="100" y="297" type="line"/>
		</contour>
		<contour>
			<point x="614" y="-130" type="line"/>
			<point x="793" y="-130" type="line"/>
			<point x="793" y="-72" type="line"/>
			<point x="614" y="-72" type="line"/>
		</contour>
		<contour>
			<point x="100" y="389" type="line"/>
			<point x="159" y="389" type="line"/>
			<point x="159" y="568" type="line"/>
			<point x="100" y="568" type="line"/>
		</contour>
		<contour>
			<point x="101" y="658" type="line"/>
			<point x="161" y="658" type="line"/>
			<point x="161" y="838" type="line"/>
			<point x="101" y="838" type="line"/>
		</contour>
		<contour>
			<point x="902" y="-130" type="line"/>
			<point x="1082" y="-130" type="line"/>
			<point x="1082" y="-72" type="line"/>
			<point x="902" y="-72" type="line"/>
		</contour>
		<contour>
			<point x="100" y="929" type="line"/>
			<point x="159" y="929" type="line"/>
			<point x="159" y="1107" type="line"/>
			<point x="100" y="1107" type="line"/>
		</contour>
		<contour>
			<point x="1188" y="-131" type="line"/>
			<point x="1368" y="-131" type="line"/>
			<point x="1368" y="-73" type="line"/>
			<point x="1188" y="-73" type="line"/>
		</contour>
		<contour>
			<point x="848" y="124" type="curve" smooth="yes"/>
			<point x="956" y="124"/>
			<point x="1010" y="167"/>
			<point x="1010" y="252" type="curve" smooth="yes"/>
			<point x="1010" y="311"/>
			<point x="975" y="348"/>
			<point x="904" y="365" type="curve" smooth="yes"/>
			<point x="835" y="380" type="line" smooth="yes"/>
			<point x="787" y="391"/>
			<point x="763" y="408"/>
			<point x="763" y="430" type="curve" smooth="yes"/>
			<point x="763" y="463"/>
			<point x="786" y="480"/>
			<point x="833" y="480" type="curve" smooth="yes"/>
			<point x="886" y="480"/>
			<point x="913" y="459"/>
			<point x="915" y="418" type="curve"/>
			<point x="995" y="418" type="line"/>
			<point x="994" y="501"/>
			<point x="931" y="549"/>
			<point x="839" y="549" type="curve" smooth="yes"/>
			<point x="796" y="549"/>
			<point x="760" y="539"/>
			<point x="732" y="520" type="curve" smooth="yes"/>
			<point x="700" y="498"/>
			<point x="684" y="466"/>
			<point x="684" y="424" type="curve" smooth="yes"/>
			<point x="684" y="383"/>
			<point x="698" y="354"/>
			<point x="726" y="336" type="curve" smooth="yes"/>
			<point x="743" y="324"/>
			<point x="772" y="314"/>
			<point x="813" y="305" type="curve" smooth="yes"/>
			<point x="856" y="296" type="line" smooth="yes"/>
			<point x="904" y="285"/>
			<point x="928" y="268"/>
			<point x="928" y="245" type="curve" smooth="yes"/>
			<point x="928" y="210"/>
			<point x="900" y="193"/>
			<point x="845" y="193" type="curve" smooth="yes"/>
			<point x="793" y="193"/>
			<point x="764" y="215"/>
			<point x="758" y="259" type="curve"/>
			<point x="678" y="259" type="line"/>
			<point x="678" y="213"/>
			<point x="696" y="178"/>
			<point x="731" y="155" type="curve" smooth="yes"/>
			<point x="761" y="134"/>
			<point x="800" y="124"/>
		</contour>
		<contour>
			<point x="101" y="1197" type="line"/>
			<point x="158" y="1197" type="line"/>
			<point x="158" y="1294" type="line"/>
			<point x="249" y="1294" type="line"/>
			<point x="249" y="1349" type="line"/>
			<point x="101" y="1349" type="line"/>
		</contour>
		<contour>
			<point x="1461" y="-131" type="line"/>
			<point x="1608" y="-131" type="line"/>
			<point x="1608" y="21" type="line"/>
			<point x="1552" y="21" type="line"/>
			<point x="1552" y="-75" type="line"/>
			<point x="1461" y="-75" type="line"/>
		</contour>
		<contour>
			<point x="343" y="1292" type="line"/>
			<point x="522" y="1292" type="line"/>
			<point x="522" y="1349" type="line"/>
			<point x="343" y="1349" type="line"/>
		</contour>
		<contour>
			<point x="1552" y="119" type="line"/>
			<point x="1612" y="119" type="line"/>
			<point x="1612" y="297" type="line"/>
			<point x="1552" y="297" type="line"/>
		</contour>
		<contour>
			<point x="1063" y="671" type="line"/>
			<point x="1143" y="671" type="line"/>
			<point x="1281" y="1075" type="line"/>
			<point x="1193" y="1075" type="line"/>
			<point x="1104" y="769" type="line"/>
			<point x="1017" y="1075" type="line"/>
			<point x="926" y="1075" type="line"/>
		</contour>
		<contour>
			<point x="612" y="1291" type="line"/>
			<point x="792" y="1291" type="line"/>
			<point x="792" y="1348" type="line"/>
			<point x="612" y="1348" type="line"/>
		</contour>
		<contour>
			<point x="1552" y="389" type="line"/>
			<point x="1612" y="389" type="line"/>
			<point x="1612" y="567" type="line"/>
			<point x="1552" y="567" type="line"/>
		</contour>
		<contour>
			<point x="901" y="1291" type="line"/>
			<point x="1081" y="1291" type="line"/>
			<point x="1081" y="1348" type="line"/>
			<point x="901" y="1348" type="line"/>
		</contour>
		<contour>
			<point x="1551" y="658" type="line"/>
			<point x="1608" y="658" type="line"/>
			<point x="1608" y="838" type="line"/>
			<point x="1551" y="838" type="line"/>
		</contour>
		<contour>
			<point x="1187" y="1292" type="line"/>
			<point x="1366" y="1292" type="line"/>
			<point x="1366" y="1351" type="line"/>
			<point x="1187" y="1351" type="line"/>
		</contour>
		<contour>
			<point x="1552" y="928" type="line"/>
			<point x="1610" y="928" type="line"/>
			<point x="1610" y="1107" type="line"/>
			<point x="1552" y="1107" type="line"/>
		</contour>
		<contour>
			<point x="1554" y="1199" type="line"/>
			<point x="1610" y="1199" type="line"/>
			<point x="1610" y="1348" type="line"/>
			<point x="1458" y="1348" type="line"/>
			<point x="1458" y="1291" type="line"/>
			<point x="1554" y="1291" type="line"/>
		</contour>
	</outline>
</glyph>
<glyph name="fvs4" format="2">
	<advance width="1712"/>
	<unicode hex="180F"/>
	<note>
		FVS3
	</note>
	<outline>
		<contour>
			<point x="1063" y="671" type="line"/>
			<point x="1143" y="671" type="line"/>
			<point x="1281" y="1075" type="line"/>
			<point x="1193" y="1075" type="line"/>
			<point x="1104" y="769" type="line"/>
			<point x="1017" y="1075" type="line"/>
			<point x="926" y="1075" type="line"/>
		</contour>
		<contour>
			<point x="101" y="-128" type="line"/>
			<point x="256" y="-128" type="line"/>
			<point x="256" y="-72" type="line"/>
			<point x="159" y="-72" type="line"/>
			<point x="159" y="20" type="line"/>
			<point x="101" y="20" type="line"/>
		</contour>
		<contour>
			<point x="344" y="-133" type="line"/>
			<point x="524" y="-133" type="line"/>
			<point x="524" y="-73" type="line"/>
			<point x="344" y="-73" type="line"/>
		</contour>
		<contour>
			<point x="100" y="118" type="line"/>
			<point x="159" y="118" type="line"/>
			<point x="159" y="297" type="line"/>
			<point x="100" y="297" type="line"/>
		</contour>
		<contour>
			<point x="614" y="-130" type="line"/>
			<point x="793" y="-130" type="line"/>
			<point x="793" y="-72" type="line"/>
			<point x="614" y="-72" type="line"/>
		</contour>
		<contour>
			<point x="100" y="389" type="line"/>
			<point x="159" y="389" type="line"/>
			<point x="159" y="568" type="line"/>
			<point x="100" y="568" type="line"/>
		</contour>
		<contour>
			<point x="101" y="658" type="line"/>
			<point x="161" y="658" type="line"/>
			<point x="161" y="838" type="line"/>
			<point x="101" y="838" type="line"/>
		</contour>
		<contour>
			<point x="902" y="-130" type="line"/>
			<point x="1082" y="-130" type="line"/>
			<point x="1082" y="-72" type="line"/>
			<point x="902" y="-72" type="line"/>
		</contour>
		<contour>
			<point x="641" y="122" type="curve" smooth="yes"/>
			<point x="737" y="122"/>
			<point x="803" y="167"/>
			<point x="803" y="251" type="curve" smooth="yes"/>
			<point x="803" y="310"/>
			<point x="768" y="347"/>
			<point x="697" y="363" type="curve" smooth="yes"/>
			<point x="628" y="379" type="line" smooth="yes"/>
			<point x="600" y="386"/>
			<point x="582" y="391"/>
			<point x="575" y="395" type="curve" smooth="yes"/>
			<point x="562" y="402"/>
			<point x="556" y="414"/>
			<point x="556" y="429" type="curve" smooth="yes"/>
			<point x="556" y="462"/>
			<point x="579" y="478"/>
			<point x="626" y="478" type="curve" smooth="yes"/>
			<point x="679" y="478"/>
			<point x="706" y="457"/>
			<point x="709" y="415" type="curve"/>
			<point x="789" y="415" type="line"/>
			<point x="786" y="499"/>
			<point x="722" y="547"/>
			<point x="633" y="547" type="curve" smooth="yes"/>
			<point x="589" y="547"/>
			<point x="553" y="538"/>
			<point x="525" y="519" type="curve" smooth="yes"/>
			<point x="493" y="496"/>
			<point x="477" y="464"/>
			<point x="477" y="423" type="curve" smooth="yes"/>
			<point x="477" y="383"/>
			<point x="491" y="353"/>
			<point x="519" y="334" type="curve" smooth="yes"/>
			<point x="535" y="323"/>
			<point x="564" y="313"/>
			<point x="605" y="303" type="curve" smooth="yes"/>
			<point x="649" y="294" type="line" smooth="yes"/>
			<point x="697" y="283"/>
			<point x="721" y="267"/>
			<point x="721" y="244" type="curve" smooth="yes"/>
			<point x="721" y="209"/>
			<point x="693" y="191"/>
			<point x="637" y="191" type="curve" smooth="yes"/>
			<point x="586" y="191"/>
			<point x="558" y="213"/>
			<point x="551" y="257" type="curve"/>
			<point x="470" y="257" type="line"/>
			<point x="470" y="211"/>
			<point x="488" y="176"/>
			<point x="524" y="153" type="curve" smooth="yes"/>
			<point x="553" y="132"/>
			<point x="592" y="122"/>
		</contour>
		<contour>
			<point x="100" y="929" type="line"/>
			<point x="159" y="929" type="line"/>
			<point x="159" y="1107" type="line"/>
			<point x="100" y="1107" type="line"/>
		</contour>
		<contour>
			<point x="1188" y="-131" type="line"/>
			<point x="1368" y="-131" type="line"/>
			<point x="1368" y="-73" type="line"/>
			<point x="1188" y="-73" type="line"/>
		</contour>
		<contour>
			<point x="1114" y="133" type="line"/>
			<point x="1191" y="133" type="line"/>
			<point x="1191" y="227" type="line"/>
			<point x="1236" y="227" type="line"/>
			<point x="1236" y="288" type="line"/>
			<point x="1191" y="288" type="line"/>
			<point x="1191" y="542" type="line"/>
			<point x="1100" y="542" type="line"/>
			<point x="957" y="307" type="line"/>
			<point x="957" y="227" type="line"/>
			<point x="1114" y="227" type="line"/>
		</contour>
		<contour>
			<point x="1015" y="288" type="line"/>
			<point x="1114" y="459" type="line"/>
			<point x="1114" y="288" type="line"/>
		</contour>
		<contour>
			<point x="101" y="1197" type="line"/>
			<point x="158" y="1197" type="line"/>
			<point x="158" y="1294" type="line"/>
			<point x="249" y="1294" type="line"/>
			<point x="249" y="1349" type="line"/>
			<point x="101" y="1349" type="line"/>
		</contour>
		<contour>
			<point x="1461" y="-131" type="line"/>
			<point x="1608" y="-131" type="line"/>
			<point x="1608" y="21" type="line"/>
			<point x="1552" y="21" type="line"/>
			<point x="1552" y="-75" type="line"/>
			<point x="1461" y="-75" type="line"/>
		</contour>
		<contour>
			<point x="476" y="676" type="line"/>
			<point x="559" y="676" type="line"/>
			<point x="559" y="844" type="line"/>
			<point x="737" y="844" type="line"/>
			<point x="737" y="915" type="line"/>
			<point x="559" y="915" type="line"/>
			<point x="559" y="1008" type="line"/>
			<point x="761" y="1008" type="line"/>
			<point x="761" y="1078" type="line"/>
			<point x="476" y="1078" type="line"/>
		</contour>
		<contour>
			<point x="343" y="1292" type="line"/>
			<point x="522" y="1292" type="line"/>
			<point x="522" y="1349" type="line"/>
			<point x="343" y="1349" type="line"/>
		</contour>
		<contour>
			<point x="1552" y="119" type="line"/>
			<point x="1612" y="119" type="line"/>
			<point x="1612" y="297" type="line"/>
			<point x="1552" y="297" type="line"/>
		</contour>
		<contour>
			<point x="612" y="1291" type="line"/>
			<point x="792" y="1291" type="line"/>
			<point x="792" y="1348" type="line"/>
			<point x="612" y="1348" type="line"/>
		</contour>
		<contour>
			<point x="1552" y="389" type="line"/>
			<point x="1612" y="389" type="line"/>
			<point x="1612" y="567" type="line"/>
			<point x="1552" y="567" type="line"/>
		</contour>
		<contour>
			<point x="901" y="1291" type="line"/>
			<point x="1081" y="1291" type="line"/>
			<point x="1081" y="1348" type="line"/>
			<point x="901" y="1348" type="line"/>
		</contour>
		<contour>
			<point x="1551" y="658" type="line"/>
			<point x="1608" y="658" type="line"/>
			<point x="1608" y="838" type="line"/>
			<point x="1551" y="838" type="line"/>
		</contour>
		<contour>
			<point x="1187" y="1292" type="line"/>
			<point x="1366" y="1292" type="line"/>
			<point x="1366" y="1351" type="line"/>
			<point x="1187" y="1351" type="line"/>
		</contour>
		<contour>
			<point x="1552" y="928" type="line"/>
			<point x="1610" y="928" type="line"/>
			<point x="1610" y="1107" type="line"/>
			<point x="1552" y="1107" type="line"/>
		</contour>
		<contour>
			<point x="1554" y="1199" type="line"/>
			<point x="1610" y="1199" type="line"/>
			<point x="1610" y="1348" type="line"/>
			<point x="1458" y="1348" type="line"/>
			<point x="1458" y="1291" type="line"/>
			<point x="1554" y="1291" type="line"/>
		</contour>
	</outline>
</glyph>
<glyph name="a-mon" format="2">
	<advance width="929" height="1750"/>
	<unicode hex="1820"/>
	<note>
		u1820
	</note>
	<outline>
		<contour>
			<point x="730" y="53" type="curve"/>
			<point x="730" y="156" type="line" smooth="yes"/>
			<point x="730" y="287"/>
			<point x="744" y="410"/>
			<point x="773" y="523" type="curve" smooth="yes"/>
			<point x="804" y="651"/>
			<point x="853" y="755"/>
			<point x="919" y="836" type="curve"/>
			<point x="827" y="836" type="line"/>
			<point x="769" y="759"/>
			<point x="725" y="656"/>
			<point x="695" y="527" type="curve" smooth="yes"/>
			<point x="667" y="410"/>
			<point x="653" y="286"/>
			<point x="653" y="156" type="curve"/>
			<point x="596" y="189"/>
			<point x="562" y="245"/>
			<point x="551" y="323" type="curve" smooth="yes"/>
			<point x="546" y="360"/>
			<point x="543" y="400"/>
			<point x="543" y="444" type="curve"/>
			<point x="444" y="444" type="line" smooth="yes"/>
			<point x="360" y="444"/>
			<point x="307" y="416"/>
			<point x="285" y="361" type="curve"/>
			<point x="281" y="361" type="line"/>
			<point x="278" y="445" type="line" smooth="yes"/>
			<point x="275" y="537"/>
			<point x="260" y="596"/>
			<point x="223" y="628" type="curve" smooth="yes"/>
			<point x="204" y="645"/>
			<point x="176" y="653"/>
			<point x="139" y="653" type="curve" smooth="yes"/>
			<point x="100" y="653"/>
			<point x="57" y="643"/>
			<point x="10" y="623" type="curve"/>
			<point x="10" y="550" type="line"/>
			<point x="51" y="567"/>
			<point x="87" y="575"/>
			<point x="118" y="575" type="curve" smooth="yes"/>
			<point x="175" y="575"/>
			<point x="195" y="529"/>
			<point x="200" y="437" type="curve" smooth="yes"/>
			<point x="226" y="74" type="line"/>
			<point x="292" y="74" type="line"/>
			<point x="302" y="219" type="line" smooth="yes"/>
			<point x="307" y="296"/>
			<point x="322" y="334"/>
			<point x="361" y="351" type="curve" smooth="yes"/>
			<point x="381" y="360"/>
			<point x="409" y="364"/>
			<point x="445" y="364" type="curve" smooth="yes"/>
			<point x="469" y="364" type="line"/>
			<point x="469" y="257"/>
			<point x="514" y="161"/>
			<point x="592" y="102" type="curve" smooth="yes"/>
			<point x="631" y="73"/>
			<point x="677" y="56"/>
		</contour>
	</outline>
</glyph>
<glyph name="e-mon" format="2">
	<advance width="824" height="1750"/>
	<unicode hex="1821"/>
	<note>
		u1821
	</note>
	<outline>
		<contour>
			<point x="518" y="-264" type="curve"/>
			<point x="600" y="-264" type="line"/>
			<point x="586" y="-240"/>
			<point x="579" y="-214"/>
			<point x="579" y="-187" type="curve" smooth="yes"/>
			<point x="579" y="-130"/>
			<point x="597" y="-94"/>
			<point x="646" y="-31" type="curve" smooth="yes"/>
			<point x="735" y="84"/>
			<point x="779" y="161"/>
			<point x="779" y="245" type="curve" smooth="yes"/>
			<point x="779" y="374"/>
			<point x="701" y="444"/>
			<point x="548" y="444" type="curve" smooth="yes"/>
			<point x="444" y="444" type="line" smooth="yes"/>
			<point x="360" y="444"/>
			<point x="307" y="416"/>
			<point x="285" y="361" type="curve"/>
			<point x="281" y="361" type="line"/>
			<point x="278" y="445" type="line" smooth="yes"/>
			<point x="275" y="537"/>
			<point x="260" y="596"/>
			<point x="223" y="628" type="curve" smooth="yes"/>
			<point x="204" y="645"/>
			<point x="176" y="653"/>
			<point x="139" y="653" type="curve" smooth="yes"/>
			<point x="100" y="653"/>
			<point x="57" y="643"/>
			<point x="10" y="623" type="curve"/>
			<point x="10" y="550" type="line"/>
			<point x="51" y="567"/>
			<point x="87" y="575"/>
			<point x="118" y="575" type="curve" smooth="yes"/>
			<point x="175" y="575"/>
			<point x="195" y="529"/>
			<point x="200" y="437" type="curve" smooth="yes"/>
			<point x="226" y="74" type="line"/>
			<point x="292" y="74" type="line"/>
			<point x="302" y="219" type="line" smooth="yes"/>
			<point x="307" y="296"/>
			<point x="322" y="334"/>
			<point x="361" y="351" type="curve" smooth="yes"/>
			<point x="381" y="360"/>
			<point x="409" y="364"/>
			<point x="445" y="364" type="curve" smooth="yes"/>
			<point x="547" y="364" type="line" smooth="yes"/>
			<point x="652" y="364"/>
			<point x="701" y="325"/>
			<point x="701" y="245" type="curve" smooth="yes"/>
			<point x="701" y="182"/>
			<point x="669" y="128"/>
			<point x="594" y="28" type="curve" smooth="yes"/>
			<point x="531" y="-53"/>
			<point x="499" y="-118"/>
			<point x="499" y="-187" type="curve" smooth="yes"/>
			<point x="499" y="-218"/>
			<point x="505" y="-243"/>
		</contour>
	</outline>
</glyph>
<glyph name="eh-mon" format="2">
	<advance width="1200" height="1750"/>
	<unicode hex="1827"/>
	<note>
		u1827
	</note>
	<outline>
		<contour>
			<point x="801" y="-119" type="curve" smooth="yes"/>
			<point x="838" y="-119"/>
			<point x="871" y="-106"/>
			<point x="884" y="-85" type="curve"/>
			<point x="884" y="6" type="line"/>
			<point x="865" y="-22"/>
			<point x="838" y="-36"/>
			<point x="801" y="-36" type="curve" smooth="yes"/>
			<point x="762" y="-36"/>
			<point x="727" y="-4"/>
			<point x="694" y="59" type="curve" smooth="yes"/>
			<point x="679" y="88"/>
			<point x="663" y="119"/>
			<point x="648" y="153" type="curve" smooth="yes"/>
			<point x="616" y="227"/>
			<point x="590" y="297"/>
			<point x="571" y="364" type="curve"/>
			<point x="980" y="364" type="line" smooth="yes"/>
			<point x="1049" y="364"/>
			<point x="1078" y="335"/>
			<point x="1078" y="279" type="curve" smooth="yes"/>
			<point x="1078" y="235"/>
			<point x="1071" y="196"/>
			<point x="1056" y="162" type="curve"/>
			<point x="1130" y="162" type="line"/>
			<point x="1147" y="198"/>
			<point x="1155" y="237"/>
			<point x="1155" y="279" type="curve" smooth="yes"/>
			<point x="1155" y="389"/>
			<point x="1097" y="444"/>
			<point x="980" y="444" type="curve" smooth="yes"/>
			<point x="444" y="444" type="line" smooth="yes"/>
			<point x="360" y="444"/>
			<point x="307" y="416"/>
			<point x="285" y="361" type="curve"/>
			<point x="281" y="361" type="line"/>
			<point x="278" y="445" type="line" smooth="yes"/>
			<point x="275" y="537"/>
			<point x="260" y="596"/>
			<point x="223" y="628" type="curve" smooth="yes"/>
			<point x="204" y="645"/>
			<point x="176" y="653"/>
			<point x="139" y="653" type="curve" smooth="yes"/>
			<point x="100" y="653"/>
			<point x="57" y="643"/>
			<point x="10" y="623" type="curve"/>
			<point x="10" y="550" type="line"/>
			<point x="51" y="567"/>
			<point x="87" y="575"/>
			<point x="118" y="575" type="curve" smooth="yes"/>
			<point x="175" y="575"/>
			<point x="195" y="529"/>
			<point x="200" y="437" type="curve" smooth="yes"/>
			<point x="226" y="74" type="line"/>
			<point x="292" y="74" type="line"/>
			<point x="302" y="219" type="line" smooth="yes"/>
			<point x="307" y="294"/>
			<point x="323" y="331"/>
			<point x="361" y="350" type="curve" smooth="yes"/>
			<point x="380" y="359"/>
			<point x="408" y="364"/>
			<point x="445" y="364" type="curve" smooth="yes"/>
			<point x="492" y="364" type="line"/>
			<point x="515" y="281"/>
			<point x="541" y="204"/>
			<point x="570" y="132" type="curve" smooth="yes"/>
			<point x="617" y="19"/>
			<point x="654" y="-49"/>
			<point x="703" y="-88" type="curve" smooth="yes"/>
			<point x="730" y="-109"/>
			<point x="762" y="-119"/>
		</contour>
	</outline>
</glyph>
<glyph name="n-mon" format="2">
	<advance width="567" height="1750"/>
	<unicode hex="1828"/>
	<note>
		u1828
	</note>
	<outline>
		<contour>
			<point x="200" y="437" type="curve" smooth="yes"/>
			<point x="226" y="74" type="line"/>
			<point x="292" y="74" type="line"/>
			<point x="302" y="219" type="line" smooth="yes"/>
			<point x="307" y="295"/>
			<point x="324" y="333"/>
			<point x="362" y="351" type="curve" smooth="yes"/>
			<point x="381" y="360"/>
			<point x="409" y="364"/>
			<point x="445" y="364" type="curve" smooth="yes"/>
			<point x="522" y="364" type="line"/>
			<point x="522" y="444" type="line"/>
			<point x="444" y="444" type="line" smooth="yes"/>
			<point x="360" y="444"/>
			<point x="307" y="416"/>
			<point x="285" y="361" type="curve"/>
			<point x="281" y="361" type="line"/>
			<point x="278" y="445" type="line" smooth="yes"/>
			<point x="275" y="537"/>
			<point x="260" y="596"/>
			<point x="223" y="628" type="curve" smooth="yes"/>
			<point x="204" y="645"/>
			<point x="176" y="653"/>
			<point x="139" y="653" type="curve" smooth="yes"/>
			<point x="100" y="653"/>
			<point x="57" y="643"/>
			<point x="10" y="623" type="curve"/>
			<point x="10" y="550" type="line"/>
			<point x="51" y="567"/>
			<point x="87" y="575"/>
			<point x="118" y="575" type="curve" smooth="yes"/>
			<point x="177" y="575"/>
			<point x="195" y="532"/>
		</contour>
		<contour>
			<point x="219" y="-124" type="curve"/>
			<point x="262" y="-163" type="line"/>
			<point x="297" y="-127"/>
			<point x="343" y="-88"/>
			<point x="401" y="-47" type="curve"/>
			<point x="340" y="22" type="line"/>
			<point x="301" y="-17"/>
			<point x="260" y="-66"/>
		</contour>
	</outline>
</glyph>
<glyph name="rh-mon" format="2">
	<advance width="908" height="1750"/>
	<unicode hex="183F"/>
	<note>
		u183F
	</note>
	<outline>
		<contour>
			<point x="382" y="-117" type="curve" smooth="yes"/>
			<point x="454" y="-117"/>
			<point x="508" y="-83"/>
			<point x="545" y="-14" type="curve"/>
			<point x="479" y="27" type="line"/>
			<point x="462" y="-12"/>
			<point x="425" y="-35"/>
			<point x="382" y="-35" type="curve" smooth="yes"/>
			<point x="303" y="-35"/>
			<point x="237" y="13"/>
			<point x="192" y="94" type="curve" smooth="yes"/>
			<point x="148" y="173"/>
			<point x="124" y="274"/>
			<point x="124" y="374" type="curve" smooth="yes"/>
			<point x="124" y="501"/>
			<point x="164" y="608"/>
			<point x="239" y="669" type="curve" smooth="yes"/>
			<point x="277" y="700"/>
			<point x="324" y="715"/>
			<point x="379" y="715" type="curve" smooth="yes"/>
			<point x="458" y="715"/>
			<point x="502" y="680"/>
			<point x="527" y="592" type="curve"/>
			<point x="525" y="590" type="line"/>
			<point x="512" y="599"/>
			<point x="497" y="603"/>
			<point x="480" y="603" type="curve" smooth="yes"/>
			<point x="441" y="603"/>
			<point x="398" y="593"/>
			<point x="351" y="573" type="curve"/>
			<point x="351" y="500" type="line"/>
			<point x="392" y="517"/>
			<point x="428" y="525"/>
			<point x="459" y="525" type="curve" smooth="yes"/>
			<point x="516" y="525"/>
			<point x="538" y="488"/>
			<point x="543" y="404" type="curve" smooth="yes"/>
			<point x="567" y="74" type="line"/>
			<point x="633" y="74" type="line"/>
			<point x="643" y="219" type="line" smooth="yes"/>
			<point x="648" y="298"/>
			<point x="664" y="335"/>
			<point x="702" y="352" type="curve" smooth="yes"/>
			<point x="721" y="360"/>
			<point x="749" y="364"/>
			<point x="786" y="364" type="curve" smooth="yes"/>
			<point x="863" y="364" type="line"/>
			<point x="863" y="444" type="line"/>
			<point x="785" y="444" type="line" smooth="yes"/>
			<point x="701" y="444"/>
			<point x="648" y="416"/>
			<point x="626" y="361" type="curve"/>
			<point x="622" y="361" type="line"/>
			<point x="619" y="444" type="line" smooth="yes"/>
			<point x="611" y="676"/>
			<point x="531" y="792"/>
			<point x="379" y="792" type="curve" smooth="yes"/>
			<point x="279" y="792"/>
			<point x="195" y="746"/>
			<point x="136" y="667" type="curve" smooth="yes"/>
			<point x="78" y="589"/>
			<point x="45" y="486"/>
			<point x="45" y="374" type="curve" smooth="yes"/>
			<point x="45" y="251"/>
			<point x="75" y="130"/>
			<point x="131" y="38" type="curve" smooth="yes"/>
			<point x="190" y="-61"/>
			<point x="275" y="-117"/>
		</contour>
	</outline>
</glyph>
<glyph name="BA.isol" format="2">
	<advance width="1170" height="1750"/>
	<note>
		u182A_1820
	</note>
	<outline>
		<contour>
			<point x="864" y="-264" type="curve"/>
			<point x="946" y="-264" type="line"/>
			<point x="932" y="-238"/>
			<point x="925" y="-212"/>
			<point x="925" y="-187" type="curve" smooth="yes"/>
			<point x="925" y="-127"/>
			<point x="940" y="-100"/>
			<point x="992" y="-31" type="curve" smooth="yes"/>
			<point x="1079" y="82"/>
			<point x="1125" y="164"/>
			<point x="1125" y="245" type="curve" smooth="yes"/>
			<point x="1125" y="374"/>
			<point x="1046" y="444"/>
			<point x="894" y="444" type="curve" smooth="yes"/>
			<point x="652" y="444" type="line"/>
			<point x="635" y="577"/>
			<point x="586" y="680"/>
			<point x="506" y="738" type="curve" smooth="yes"/>
			<point x="465" y="767"/>
			<point x="413" y="782"/>
			<point x="352" y="782" type="curve" smooth="yes"/>
			<point x="220" y="782"/>
			<point x="127" y="718"/>
			<point x="80" y="603" type="curve" smooth="yes"/>
			<point x="57" y="547"/>
			<point x="45" y="482"/>
			<point x="45" y="408" type="curve" smooth="yes"/>
			<point x="45" y="163"/>
			<point x="120" y="40"/>
			<point x="270" y="40" type="curve" smooth="yes"/>
			<point x="341" y="40"/>
			<point x="397" y="82"/>
			<point x="428" y="153" type="curve" smooth="yes"/>
			<point x="443" y="188"/>
			<point x="451" y="229"/>
			<point x="451" y="275" type="curve" smooth="yes"/>
			<point x="451" y="315"/>
			<point x="439" y="412"/>
			<point x="428" y="444" type="curve"/>
			<point x="124" y="444" type="line"/>
			<point x="125" y="544"/>
			<point x="162" y="622"/>
			<point x="228" y="666" type="curve" smooth="yes"/>
			<point x="261" y="688"/>
			<point x="303" y="699"/>
			<point x="352" y="699" type="curve" smooth="yes"/>
			<point x="492" y="699"/>
			<point x="563" y="589"/>
			<point x="579" y="364" type="curve" smooth="yes"/>
			<point x="598" y="96" type="line"/>
			<point x="664" y="96" type="line"/>
			<point x="683" y="364" type="line"/>
			<point x="893" y="364" type="line" smooth="yes"/>
			<point x="998" y="364"/>
			<point x="1047" y="325"/>
			<point x="1047" y="245" type="curve" smooth="yes"/>
			<point x="1047" y="181"/>
			<point x="1015" y="125"/>
			<point x="940" y="28" type="curve" smooth="yes"/>
			<point x="877" y="-55"/>
			<point x="845" y="-115"/>
			<point x="845" y="-187" type="curve" smooth="yes"/>
			<point x="845" y="-214"/>
			<point x="851" y="-240"/>
		</contour>
		<contour>
			<point x="264" y="123" type="curve" smooth="yes"/>
			<point x="173" y="123"/>
			<point x="126" y="203"/>
			<point x="124" y="364" type="curve"/>
			<point x="362" y="364" type="line"/>
			<point x="369" y="346"/>
			<point x="372" y="316"/>
			<point x="372" y="275" type="curve" smooth="yes"/>
			<point x="372" y="186"/>
			<point x="335" y="123"/>
		</contour>
	</outline>
</glyph>
<glyph name="BI.fina" format="2">
	<advance width="1121" height="1750"/>
	<note>
		u182A_1822.fin
	</note>
	<outline>
		<contour>
			<point x="683" y="-67" type="curve"/>
			<point x="756" y="-31" type="line"/>
			<point x="673" y="117"/>
			<point x="623" y="241"/>
			<point x="596" y="364" type="curve"/>
			<point x="901" y="364" type="line" smooth="yes"/>
			<point x="970" y="364"/>
			<point x="999" y="335"/>
			<point x="999" y="279" type="curve" smooth="yes"/>
			<point x="999" y="234"/>
			<point x="992" y="195"/>
			<point x="977" y="162" type="curve"/>
			<point x="1051" y="162" type="line"/>
			<point x="1068" y="198"/>
			<point x="1076" y="237"/>
			<point x="1076" y="279" type="curve" smooth="yes"/>
			<point x="1076" y="389"/>
			<point x="1018" y="444"/>
			<point x="901" y="444" type="curve" smooth="yes"/>
			<point x="581" y="444" type="line"/>
			<point x="554" y="588"/>
			<point x="510" y="688"/>
			<point x="435" y="741" type="curve" smooth="yes"/>
			<point x="396" y="768"/>
			<point x="345" y="782"/>
			<point x="284" y="782" type="curve" smooth="yes"/>
			<point x="159" y="782"/>
			<point x="73" y="716"/>
			<point x="30" y="601" type="curve" smooth="yes"/>
			<point x="9" y="544"/>
			<point x="-1" y="480"/>
			<point x="-1" y="408" type="curve" smooth="yes"/>
			<point x="-1" y="163"/>
			<point x="74" y="40"/>
			<point x="224" y="40" type="curve" smooth="yes"/>
			<point x="293" y="40"/>
			<point x="350" y="81"/>
			<point x="382" y="153" type="curve" smooth="yes"/>
			<point x="397" y="188"/>
			<point x="405" y="229"/>
			<point x="405" y="275" type="curve" smooth="yes"/>
			<point x="405" y="315"/>
			<point x="393" y="412"/>
			<point x="382" y="444" type="curve"/>
			<point x="78" y="444" type="line"/>
			<point x="79" y="543"/>
			<point x="111" y="622"/>
			<point x="171" y="666" type="curve" smooth="yes"/>
			<point x="201" y="688"/>
			<point x="239" y="699"/>
			<point x="284" y="699" type="curve" smooth="yes"/>
			<point x="375" y="699"/>
			<point x="431" y="654"/>
			<point x="467" y="567" type="curve" smooth="yes"/>
			<point x="484" y="525"/>
			<point x="497" y="475"/>
			<point x="506" y="418" type="curve" smooth="yes"/>
			<point x="520" y="335"/>
			<point x="539" y="259"/>
			<point x="563" y="192" type="curve" smooth="yes"/>
			<point x="583" y="136"/>
			<point x="623" y="50"/>
		</contour>
		<contour>
			<point x="218" y="123" type="curve" smooth="yes"/>
			<point x="127" y="123"/>
			<point x="80" y="203"/>
			<point x="78" y="364" type="curve"/>
			<point x="316" y="364" type="line"/>
			<point x="323" y="346"/>
			<point x="326" y="316"/>
			<point x="326" y="275" type="curve" smooth="yes"/>
			<point x="326" y="186"/>
			<point x="289" y="123"/>
		</contour>
	</outline>
</glyph>
<glyph name="BI.init" format="2">
	<advance width="917" height="1750"/>
	<note>
		u182A_1822.ini
	</note>
	<outline>
		<contour>
			<point x="729" y="-67" type="curve"/>
			<point x="802" y="-31" type="line"/>
			<point x="719" y="117"/>
			<point x="669" y="241"/>
			<point x="642" y="364" type="curve"/>
			<point x="947" y="364" type="line"/>
			<point x="947" y="444" type="line"/>
			<point x="627" y="444" type="line"/>
			<point x="600" y="588"/>
			<point x="556" y="688"/>
			<point x="481" y="741" type="curve" smooth="yes"/>
			<point x="442" y="768"/>
			<point x="391" y="782"/>
			<point x="330" y="782" type="curve" smooth="yes"/>
			<point x="242" y="782"/>
			<point x="172" y="749"/>
			<point x="121" y="683" type="curve" smooth="yes"/>
			<point x="70" y="618"/>
			<point x="45" y="526"/>
			<point x="45" y="408" type="curve" smooth="yes"/>
			<point x="45" y="161"/>
			<point x="119" y="40"/>
			<point x="272" y="40" type="curve" smooth="yes"/>
			<point x="343" y="40"/>
			<point x="399" y="82"/>
			<point x="429" y="154" type="curve" smooth="yes"/>
			<point x="444" y="189"/>
			<point x="451" y="230"/>
			<point x="451" y="275" type="curve" smooth="yes"/>
			<point x="451" y="315"/>
			<point x="439" y="412"/>
			<point x="428" y="444" type="curve"/>
			<point x="124" y="444" type="line"/>
			<point x="125" y="543"/>
			<point x="157" y="622"/>
			<point x="217" y="666" type="curve" smooth="yes"/>
			<point x="247" y="688"/>
			<point x="285" y="699"/>
			<point x="330" y="699" type="curve" smooth="yes"/>
			<point x="421" y="699"/>
			<point x="477" y="654"/>
			<point x="513" y="567" type="curve" smooth="yes"/>
			<point x="530" y="525"/>
			<point x="543" y="475"/>
			<point x="552" y="418" type="curve" smooth="yes"/>
			<point x="569" y="324"/>
			<point x="588" y="249"/>
			<point x="609" y="192" type="curve" smooth="yes"/>
			<point x="634" y="126"/>
			<point x="674" y="40"/>
		</contour>
		<contour>
			<point x="264" y="123" type="curve" smooth="yes"/>
			<point x="173" y="123"/>
			<point x="126" y="203"/>
			<point x="124" y="364" type="curve"/>
			<point x="362" y="364" type="line"/>
			<point x="369" y="345"/>
			<point x="372" y="314"/>
			<point x="372" y="271" type="curve" smooth="yes"/>
			<point x="372" y="183"/>
			<point x="332" y="123"/>
		</contour>
	</outline>
</glyph>
<glyph name="BO.isol" format="2">
	<advance width="797" height="1750"/>
	<note>
		u182A_1823
	</note>
	<outline>
		<contour>
			<point x="249" y="40" type="curve" smooth="yes"/>
			<point x="314" y="40"/>
			<point x="372" y="74"/>
			<point x="396" y="135" type="curve"/>
			<point x="424" y="72"/>
			<point x="473" y="40"/>
			<point x="538" y="40" type="curve" smooth="yes"/>
			<point x="683" y="40"/>
			<point x="752" y="146"/>
			<point x="752" y="375" type="curve" smooth="yes"/>
			<point x="752" y="531"/>
			<point x="697" y="659"/>
			<point x="596" y="729" type="curve" smooth="yes"/>
			<point x="545" y="764"/>
			<point x="481" y="782"/>
			<point x="405" y="782" type="curve" smooth="yes"/>
			<point x="256" y="782"/>
			<point x="146" y="711"/>
			<point x="88" y="588" type="curve" smooth="yes"/>
			<point x="59" y="527"/>
			<point x="45" y="456"/>
			<point x="45" y="375" type="curve" smooth="yes"/>
			<point x="45" y="152"/>
			<point x="109" y="40"/>
		</contour>
		<contour>
			<point x="249" y="123" type="curve" smooth="yes"/>
			<point x="182" y="123"/>
			<point x="146" y="163"/>
			<point x="134" y="239" type="curve" smooth="yes"/>
			<point x="127" y="275"/>
			<point x="124" y="317"/>
			<point x="124" y="364" type="curve"/>
			<point x="359" y="364" type="line"/>
			<point x="359" y="286" type="line" smooth="yes"/>
			<point x="359" y="190"/>
			<point x="321" y="123"/>
		</contour>
		<contour>
			<point x="538" y="123" type="curve" smooth="yes"/>
			<point x="471" y="123"/>
			<point x="438" y="177"/>
			<point x="438" y="286" type="curve" smooth="yes"/>
			<point x="438" y="364" type="line"/>
			<point x="673" y="364" type="line"/>
			<point x="670" y="244"/>
			<point x="655" y="178"/>
			<point x="617" y="147" type="curve" smooth="yes"/>
			<point x="598" y="131"/>
			<point x="571" y="123"/>
		</contour>
		<contour>
			<point x="668" y="444" type="curve"/>
			<point x="127" y="444" type="line"/>
			<point x="146" y="608"/>
			<point x="238" y="699"/>
			<point x="405" y="699" type="curve" smooth="yes"/>
			<point x="505" y="699"/>
			<point x="579" y="656"/>
			<point x="625" y="578" type="curve" smooth="yes"/>
			<point x="647" y="539"/>
			<point x="661" y="495"/>
		</contour>
	</outline>
</glyph>
<glyph name="BUI.init" format="2">
	<advance width="1224" height="1750"/>
	<note>
		u182A_1825.ini
	</note>
	<outline>
		<contour>
			<point x="1036" y="-67" type="curve"/>
			<point x="1109" y="-31" type="line"/>
			<point x="1036" y="98"/>
			<point x="981" y="229"/>
			<point x="942" y="364" type="curve"/>
			<point x="1254" y="364" type="line"/>
			<point x="1254" y="444" type="line"/>
			<point x="748" y="444" type="line"/>
			<point x="733" y="583"/>
			<point x="672" y="686"/>
			<point x="575" y="741" type="curve" smooth="yes"/>
			<point x="526" y="768"/>
			<point x="470" y="782"/>
			<point x="405" y="782" type="curve" smooth="yes"/>
			<point x="257" y="782"/>
			<point x="146" y="710"/>
			<point x="88" y="587" type="curve" smooth="yes"/>
			<point x="59" y="526"/>
			<point x="45" y="455"/>
			<point x="45" y="375" type="curve" smooth="yes"/>
			<point x="45" y="152"/>
			<point x="109" y="40"/>
			<point x="249" y="40" type="curve" smooth="yes"/>
			<point x="314" y="40"/>
			<point x="372" y="74"/>
			<point x="396" y="135" type="curve"/>
			<point x="424" y="72"/>
			<point x="473" y="40"/>
			<point x="538" y="40" type="curve" smooth="yes"/>
			<point x="681" y="40"/>
			<point x="751" y="147"/>
			<point x="752" y="364" type="curve"/>
			<point x="863" y="364" type="line"/>
			<point x="902" y="219"/>
			<point x="959" y="75"/>
		</contour>
		<contour>
			<point x="248" y="123" type="curve" smooth="yes"/>
			<point x="180" y="123"/>
			<point x="145" y="164"/>
			<point x="133" y="241" type="curve" smooth="yes"/>
			<point x="127" y="278"/>
			<point x="124" y="319"/>
			<point x="124" y="364" type="curve"/>
			<point x="359" y="364" type="line"/>
			<point x="359" y="281" type="line" smooth="yes"/>
			<point x="359" y="186"/>
			<point x="317" y="123"/>
		</contour>
		<contour>
			<point x="538" y="123" type="curve" smooth="yes"/>
			<point x="471" y="123"/>
			<point x="438" y="177"/>
			<point x="438" y="286" type="curve" smooth="yes"/>
			<point x="438" y="364" type="line"/>
			<point x="673" y="364" type="line"/>
			<point x="670" y="244"/>
			<point x="655" y="178"/>
			<point x="617" y="147" type="curve" smooth="yes"/>
			<point x="598" y="131"/>
			<point x="571" y="123"/>
		</contour>
		<contour>
			<point x="668" y="444" type="curve"/>
			<point x="127" y="444" type="line"/>
			<point x="150" y="614"/>
			<point x="242" y="699"/>
			<point x="405" y="699" type="curve" smooth="yes"/>
			<point x="505" y="699"/>
			<point x="579" y="656"/>
			<point x="625" y="578" type="curve" smooth="yes"/>
			<point x="647" y="539"/>
			<point x="661" y="495"/>
		</contour>
	</outline>
</glyph>
<glyph name="BW.medi" format="2">
	<advance width="960" height="1750"/>
	<note>
		u182A_1827.med
	</note>
	<outline>
		<contour>
			<point x="812" y="-119" type="curve" smooth="yes"/>
			<point x="851" y="-119"/>
			<point x="879" y="-108"/>
			<point x="894" y="-85" type="curve"/>
			<point x="894" y="6" type="line"/>
			<point x="875" y="-22"/>
			<point x="847" y="-36"/>
			<point x="809" y="-36" type="curve" smooth="yes"/>
			<point x="774" y="-36"/>
			<point x="738" y="-3"/>
			<point x="701" y="63" type="curve" smooth="yes"/>
			<point x="684" y="92"/>
			<point x="669" y="125"/>
			<point x="655" y="161" type="curve" smooth="yes"/>
			<point x="626" y="234"/>
			<point x="606" y="301"/>
			<point x="595" y="364" type="curve"/>
			<point x="990" y="364" type="line"/>
			<point x="990" y="444" type="line"/>
			<point x="580" y="444" type="line"/>
			<point x="555" y="587"/>
			<point x="510" y="687"/>
			<point x="434" y="740" type="curve" smooth="yes"/>
			<point x="395" y="768"/>
			<point x="345" y="782"/>
			<point x="284" y="782" type="curve" smooth="yes"/>
			<point x="159" y="782"/>
			<point x="73" y="716"/>
			<point x="30" y="601" type="curve" smooth="yes"/>
			<point x="9" y="544"/>
			<point x="-1" y="480"/>
			<point x="-1" y="408" type="curve" smooth="yes"/>
			<point x="-1" y="163"/>
			<point x="74" y="40"/>
			<point x="225" y="40" type="curve" smooth="yes"/>
			<point x="296" y="40"/>
			<point x="353" y="81"/>
			<point x="383" y="154" type="curve" smooth="yes"/>
			<point x="398" y="189"/>
			<point x="405" y="230"/>
			<point x="405" y="275" type="curve" smooth="yes"/>
			<point x="405" y="315"/>
			<point x="393" y="412"/>
			<point x="382" y="444" type="curve"/>
			<point x="78" y="444" type="line"/>
			<point x="79" y="543"/>
			<point x="111" y="622"/>
			<point x="171" y="666" type="curve" smooth="yes"/>
			<point x="201" y="688"/>
			<point x="239" y="699"/>
			<point x="284" y="699" type="curve" smooth="yes"/>
			<point x="375" y="699"/>
			<point x="431" y="654"/>
			<point x="467" y="567" type="curve" smooth="yes"/>
			<point x="484" y="525"/>
			<point x="497" y="475"/>
			<point x="506" y="418" type="curve" smooth="yes"/>
			<point x="531" y="276"/>
			<point x="569" y="150"/>
			<point x="621" y="41" type="curve" smooth="yes"/>
			<point x="672" y="-66"/>
			<point x="724" y="-119"/>
		</contour>
		<contour>
			<point x="218" y="123" type="curve" smooth="yes"/>
			<point x="127" y="123"/>
			<point x="80" y="203"/>
			<point x="78" y="364" type="curve"/>
			<point x="316" y="364" type="line"/>
			<point x="323" y="346"/>
			<point x="326" y="316"/>
			<point x="326" y="275" type="curve" smooth="yes"/>
			<point x="326" y="186"/>
			<point x="289" y="123"/>
		</contour>
	</outline>
</glyph>
<glyph name="FA.fina" format="2">
	<advance width="1124" height="1750"/>
	<note>
		u1839_1821.fin
	</note>
	<outline>
		<contour>
			<point x="818" y="-264" type="curve"/>
			<point x="900" y="-264" type="line"/>
			<point x="886" y="-238"/>
			<point x="879" y="-212"/>
			<point x="879" y="-187" type="curve" smooth="yes"/>
			<point x="879" y="-127"/>
			<point x="894" y="-100"/>
			<point x="946" y="-31" type="curve" smooth="yes"/>
			<point x="1033" y="82"/>
			<point x="1079" y="164"/>
			<point x="1079" y="245" type="curve" smooth="yes"/>
			<point x="1079" y="374"/>
			<point x="1000" y="444"/>
			<point x="848" y="444" type="curve" smooth="yes"/>
			<point x="606" y="444" type="line"/>
			<point x="589" y="577"/>
			<point x="540" y="680"/>
			<point x="460" y="738" type="curve" smooth="yes"/>
			<point x="419" y="767"/>
			<point x="367" y="782"/>
			<point x="306" y="782" type="curve" smooth="yes"/>
			<point x="175" y="782"/>
			<point x="82" y="718"/>
			<point x="34" y="603" type="curve" smooth="yes"/>
			<point x="11" y="547"/>
			<point x="-1" y="482"/>
			<point x="-1" y="408" type="curve" smooth="yes"/>
			<point x="-1" y="202"/>
			<point x="51" y="83"/>
			<point x="155" y="50" type="curve"/>
			<point x="134" y="13"/>
			<point x="123" y="-25"/>
			<point x="123" y="-64" type="curve" smooth="yes"/>
			<point x="123" y="-113"/>
			<point x="133" y="-152"/>
			<point x="153" y="-182" type="curve"/>
			<point x="243" y="-182" type="line"/>
			<point x="218" y="-147"/>
			<point x="205" y="-108"/>
			<point x="205" y="-63" type="curve" smooth="yes"/>
			<point x="205" y="-26"/>
			<point x="212" y="8"/>
			<point x="225" y="40" type="curve"/>
			<point x="229" y="40" type="line" smooth="yes"/>
			<point x="296" y="40"/>
			<point x="351" y="81"/>
			<point x="382" y="153" type="curve" smooth="yes"/>
			<point x="397" y="188"/>
			<point x="405" y="228"/>
			<point x="405" y="273" type="curve" smooth="yes"/>
			<point x="405" y="317"/>
			<point x="394" y="412"/>
			<point x="382" y="444" type="curve"/>
			<point x="78" y="444" type="line"/>
			<point x="79" y="544"/>
			<point x="116" y="622"/>
			<point x="182" y="666" type="curve" smooth="yes"/>
			<point x="215" y="688"/>
			<point x="257" y="699"/>
			<point x="306" y="699" type="curve" smooth="yes"/>
			<point x="446" y="699"/>
			<point x="517" y="589"/>
			<point x="533" y="364" type="curve" smooth="yes"/>
			<point x="552" y="96" type="line"/>
			<point x="618" y="96" type="line"/>
			<point x="637" y="364" type="line"/>
			<point x="847" y="364" type="line" smooth="yes"/>
			<point x="954" y="364"/>
			<point x="1001" y="326"/>
			<point x="1001" y="243" type="curve" smooth="yes"/>
			<point x="1001" y="180"/>
			<point x="970" y="127"/>
			<point x="894" y="28" type="curve" smooth="yes"/>
			<point x="831" y="-55"/>
			<point x="799" y="-115"/>
			<point x="799" y="-187" type="curve" smooth="yes"/>
			<point x="799" y="-214"/>
			<point x="805" y="-240"/>
		</contour>
		<contour>
			<point x="218" y="123" type="curve" smooth="yes"/>
			<point x="127" y="123"/>
			<point x="80" y="203"/>
			<point x="78" y="364" type="curve"/>
			<point x="316" y="364" type="line"/>
			<point x="323" y="345"/>
			<point x="326" y="314"/>
			<point x="326" y="271" type="curve" smooth="yes"/>
			<point x="326" y="183"/>
			<point x="287" y="123"/>
		</contour>
	</outline>
</glyph>
<glyph name="FA.init" format="2">
	<advance width="863" height="1750"/>
	<note>
		u1839_1820.ini
	</note>
	<outline>
		<contour>
			<point x="199" y="-182" type="curve"/>
			<point x="289" y="-182" type="line"/>
			<point x="264" y="-147"/>
			<point x="251" y="-108"/>
			<point x="251" y="-63" type="curve" smooth="yes"/>
			<point x="251" y="-26"/>
			<point x="258" y="8"/>
			<point x="271" y="40" type="curve"/>
			<point x="280" y="40" type="line" smooth="yes"/>
			<point x="337" y="40"/>
			<point x="392" y="79"/>
			<point x="426" y="147" type="curve" smooth="yes"/>
			<point x="443" y="182"/>
			<point x="451" y="223"/>
			<point x="451" y="272" type="curve" smooth="yes"/>
			<point x="451" y="316"/>
			<point x="440" y="412"/>
			<point x="428" y="444" type="curve"/>
			<point x="124" y="444" type="line"/>
			<point x="125" y="544"/>
			<point x="162" y="622"/>
			<point x="228" y="666" type="curve" smooth="yes"/>
			<point x="261" y="688"/>
			<point x="303" y="699"/>
			<point x="352" y="699" type="curve" smooth="yes"/>
			<point x="492" y="699"/>
			<point x="563" y="589"/>
			<point x="579" y="364" type="curve" smooth="yes"/>
			<point x="598" y="96" type="line"/>
			<point x="664" y="96" type="line"/>
			<point x="683" y="364" type="line"/>
			<point x="893" y="364" type="line"/>
			<point x="893" y="444" type="line"/>
			<point x="652" y="444" type="line"/>
			<point x="635" y="577"/>
			<point x="586" y="680"/>
			<point x="506" y="738" type="curve" smooth="yes"/>
			<point x="465" y="767"/>
			<point x="413" y="782"/>
			<point x="352" y="782" type="curve" smooth="yes"/>
			<point x="220" y="782"/>
			<point x="127" y="718"/>
			<point x="80" y="603" type="curve" smooth="yes"/>
			<point x="57" y="547"/>
			<point x="45" y="482"/>
			<point x="45" y="408" type="curve" smooth="yes"/>
			<point x="45" y="202"/>
			<point x="97" y="83"/>
			<point x="201" y="50" type="curve"/>
			<point x="180" y="13"/>
			<point x="169" y="-25"/>
			<point x="169" y="-64" type="curve" smooth="yes"/>
			<point x="169" y="-113"/>
			<point x="179" y="-152"/>
		</contour>
		<contour>
			<point x="264" y="123" type="curve" smooth="yes"/>
			<point x="173" y="123"/>
			<point x="126" y="203"/>
			<point x="124" y="364" type="curve"/>
			<point x="362" y="364" type="line"/>
			<point x="369" y="345"/>
			<point x="372" y="315"/>
			<point x="372" y="274" type="curve" smooth="yes"/>
			<point x="372" y="185"/>
			<point x="333" y="123"/>
		</contour>
	</outline>
</glyph>
<glyph name="FA.isol" format="2">
	<advance width="1170" height="1750"/>
	<note>
		u1839_1821
	</note>
	<outline>
		<contour>
			<point x="864" y="-264" type="curve"/>
			<point x="946" y="-264" type="line"/>
			<point x="932" y="-238"/>
			<point x="925" y="-212"/>
			<point x="925" y="-187" type="curve" smooth="yes"/>
			<point x="925" y="-127"/>
			<point x="940" y="-100"/>
			<point x="992" y="-31" type="curve" smooth="yes"/>
			<point x="1079" y="82"/>
			<point x="1125" y="164"/>
			<point x="1125" y="245" type="curve" smooth="yes"/>
			<point x="1125" y="374"/>
			<point x="1046" y="444"/>
			<point x="894" y="444" type="curve" smooth="yes"/>
			<point x="652" y="444" type="line"/>
			<point x="635" y="577"/>
			<point x="586" y="680"/>
			<point x="506" y="738" type="curve" smooth="yes"/>
			<point x="465" y="767"/>
			<point x="413" y="782"/>
			<point x="352" y="782" type="curve" smooth="yes"/>
			<point x="221" y="782"/>
			<point x="128" y="718"/>
			<point x="80" y="603" type="curve" smooth="yes"/>
			<point x="57" y="547"/>
			<point x="45" y="482"/>
			<point x="45" y="408" type="curve" smooth="yes"/>
			<point x="45" y="202"/>
			<point x="97" y="83"/>
			<point x="201" y="50" type="curve"/>
			<point x="180" y="13"/>
			<point x="169" y="-25"/>
			<point x="169" y="-64" type="curve" smooth="yes"/>
			<point x="169" y="-113"/>
			<point x="179" y="-152"/>
			<point x="199" y="-182" type="curve"/>
			<point x="289" y="-182" type="line"/>
			<point x="264" y="-147"/>
			<point x="251" y="-108"/>
			<point x="251" y="-63" type="curve" smooth="yes"/>
			<point x="251" y="-26"/>
			<point x="258" y="8"/>
			<point x="271" y="40" type="curve"/>
			<point x="275" y="40" type="line" smooth="yes"/>
			<point x="342" y="40"/>
			<point x="397" y="81"/>
			<point x="428" y="153" type="curve" smooth="yes"/>
			<point x="443" y="188"/>
			<point x="451" y="228"/>
			<point x="451" y="273" type="curve" smooth="yes"/>
			<point x="451" y="317"/>
			<point x="440" y="412"/>
			<point x="428" y="444" type="curve"/>
			<point x="124" y="444" type="line"/>
			<point x="125" y="544"/>
			<point x="162" y="622"/>
			<point x="228" y="666" type="curve" smooth="yes"/>
			<point x="261" y="688"/>
			<point x="303" y="699"/>
			<point x="352" y="699" type="curve" smooth="yes"/>
			<point x="492" y="699"/>
			<point x="563" y="589"/>
			<point x="579" y="364" type="curve" smooth="yes"/>
			<point x="598" y="96" type="line"/>
			<point x="664" y="96" type="line"/>
			<point x="683" y="364" type="line"/>
			<point x="893" y="364" type="line" smooth="yes"/>
			<point x="1000" y="364"/>
			<point x="1047" y="326"/>
			<point x="1047" y="243" type="curve" smooth="yes"/>
			<point x="1047" y="180"/>
			<point x="1016" y="127"/>
			<point x="940" y="28" type="curve" smooth="yes"/>
			<point x="877" y="-55"/>
			<point x="845" y="-115"/>
			<point x="845" y="-187" type="curve" smooth="yes"/>
			<point x="845" y="-214"/>
			<point x="851" y="-240"/>
		</contour>
		<contour>
			<point x="264" y="123" type="curve" smooth="yes"/>
			<point x="173" y="123"/>
			<point x="126" y="203"/>
			<point x="124" y="364" type="curve"/>
			<point x="362" y="364" type="line"/>
			<point x="369" y="345"/>
			<point x="372" y="314"/>
			<point x="372" y="271" type="curve" smooth="yes"/>
			<point x="372" y="183"/>
			<point x="333" y="123"/>
		</contour>
	</outline>
</glyph>
<glyph name="FA.medi" format="2">
	<advance width="817" height="1750"/>
	<note>
		u1839_1820.med
	</note>
	<outline>
		<contour>
			<point x="153" y="-182" type="curve"/>
			<point x="243" y="-182" type="line"/>
			<point x="218" y="-147"/>
			<point x="205" y="-108"/>
			<point x="205" y="-63" type="curve" smooth="yes"/>
			<point x="205" y="-26"/>
			<point x="212" y="8"/>
			<point x="225" y="40" type="curve"/>
			<point x="234" y="40" type="line" smooth="yes"/>
			<point x="291" y="40"/>
			<point x="346" y="79"/>
			<point x="380" y="147" type="curve" smooth="yes"/>
			<point x="397" y="182"/>
			<point x="405" y="223"/>
			<point x="405" y="272" type="curve" smooth="yes"/>
			<point x="405" y="316"/>
			<point x="394" y="412"/>
			<point x="382" y="444" type="curve"/>
			<point x="78" y="444" type="line"/>
			<point x="79" y="544"/>
			<point x="116" y="622"/>
			<point x="182" y="666" type="curve" smooth="yes"/>
			<point x="215" y="688"/>
			<point x="257" y="699"/>
			<point x="306" y="699" type="curve" smooth="yes"/>
			<point x="446" y="699"/>
			<point x="517" y="589"/>
			<point x="533" y="364" type="curve" smooth="yes"/>
			<point x="552" y="96" type="line"/>
			<point x="618" y="96" type="line"/>
			<point x="637" y="364" type="line"/>
			<point x="847" y="364" type="line"/>
			<point x="847" y="444" type="line"/>
			<point x="606" y="444" type="line"/>
			<point x="589" y="577"/>
			<point x="540" y="680"/>
			<point x="460" y="738" type="curve" smooth="yes"/>
			<point x="419" y="767"/>
			<point x="367" y="782"/>
			<point x="306" y="782" type="curve" smooth="yes"/>
			<point x="174" y="782"/>
			<point x="81" y="718"/>
			<point x="34" y="603" type="curve" smooth="yes"/>
			<point x="11" y="547"/>
			<point x="-1" y="482"/>
			<point x="-1" y="408" type="curve" smooth="yes"/>
			<point x="-1" y="202"/>
			<point x="51" y="83"/>
			<point x="155" y="50" type="curve"/>
			<point x="134" y="13"/>
			<point x="123" y="-25"/>
			<point x="123" y="-64" type="curve" smooth="yes"/>
			<point x="123" y="-113"/>
			<point x="133" y="-152"/>
		</contour>
		<contour>
			<point x="218" y="123" type="curve" smooth="yes"/>
			<point x="127" y="123"/>
			<point x="80" y="203"/>
			<point x="78" y="364" type="curve"/>
			<point x="316" y="364" type="line"/>
			<point x="323" y="345"/>
			<point x="326" y="315"/>
			<point x="326" y="274" type="curve" smooth="yes"/>
			<point x="326" y="185"/>
			<point x="287" y="123"/>
		</contour>
	</outline>
</glyph>
<glyph name="FI.init" format="2">
	<advance width="917" height="1750"/>
	<note>
		u1839_1822.ini
	</note>
	<outline>
		<contour>
			<point x="199" y="-182" type="curve"/>
			<point x="289" y="-182" type="line"/>
			<point x="264" y="-147"/>
			<point x="251" y="-108"/>
			<point x="251" y="-63" type="curve" smooth="yes"/>
			<point x="251" y="-26"/>
			<point x="258" y="8"/>
			<point x="271" y="40" type="curve"/>
			<point x="276" y="40" type="line" smooth="yes"/>
			<point x="343" y="40"/>
			<point x="397" y="82"/>
			<point x="428" y="153" type="curve" smooth="yes"/>
			<point x="443" y="188"/>
			<point x="451" y="229"/>
			<point x="451" y="274" type="curve" smooth="yes"/>
			<point x="451" y="314"/>
			<point x="439" y="412"/>
			<point x="428" y="444" type="curve"/>
			<point x="124" y="444" type="line"/>
			<point x="125" y="543"/>
			<point x="157" y="622"/>
			<point x="217" y="666" type="curve" smooth="yes"/>
			<point x="247" y="688"/>
			<point x="285" y="699"/>
			<point x="330" y="699" type="curve" smooth="yes"/>
			<point x="421" y="699"/>
			<point x="477" y="654"/>
			<point x="513" y="567" type="curve" smooth="yes"/>
			<point x="530" y="525"/>
			<point x="543" y="475"/>
			<point x="552" y="418" type="curve" smooth="yes"/>
			<point x="567" y="328"/>
			<point x="589" y="247"/>
			<point x="616" y="176" type="curve" smooth="yes"/>
			<point x="641" y="111"/>
			<point x="678" y="30"/>
			<point x="729" y="-67" type="curve"/>
			<point x="802" y="-31" type="line"/>
			<point x="719" y="117"/>
			<point x="669" y="241"/>
			<point x="642" y="364" type="curve"/>
			<point x="947" y="364" type="line"/>
			<point x="947" y="444" type="line"/>
			<point x="627" y="444" type="line"/>
			<point x="600" y="588"/>
			<point x="556" y="688"/>
			<point x="481" y="741" type="curve" smooth="yes"/>
			<point x="442" y="768"/>
			<point x="391" y="782"/>
			<point x="330" y="782" type="curve" smooth="yes"/>
			<point x="205" y="782"/>
			<point x="119" y="716"/>
			<point x="76" y="601" type="curve" smooth="yes"/>
			<point x="55" y="544"/>
			<point x="45" y="480"/>
			<point x="45" y="408" type="curve" smooth="yes"/>
			<point x="45" y="202"/>
			<point x="97" y="83"/>
			<point x="201" y="50" type="curve"/>
			<point x="180" y="13"/>
			<point x="169" y="-25"/>
			<point x="169" y="-64" type="curve" smooth="yes"/>
			<point x="169" y="-113"/>
			<point x="179" y="-152"/>
		</contour>
		<contour>
			<point x="264" y="123" type="curve" smooth="yes"/>
			<point x="173" y="123"/>
			<point x="126" y="203"/>
			<point x="124" y="364" type="curve"/>
			<point x="362" y="364" type="line"/>
			<point x="369" y="346"/>
			<point x="372" y="316"/>
			<point x="372" y="275" type="curve" smooth="yes"/>
			<point x="372" y="186"/>
			<point x="335" y="123"/>
		</contour>
	</outline>
</glyph>
<glyph name="FI.medi" format="2">
	<advance width="871" height="1750"/>
	<note>
		u1839_1822.med
	</note>
	<outline>
		<contour>
			<point x="153" y="-182" type="curve"/>
			<point x="243" y="-182" type="line"/>
			<point x="218" y="-147"/>
			<point x="205" y="-108"/>
			<point x="205" y="-63" type="curve" smooth="yes"/>
			<point x="205" y="-26"/>
			<point x="212" y="8"/>
			<point x="225" y="40" type="curve"/>
			<point x="230" y="40" type="line" smooth="yes"/>
			<point x="297" y="40"/>
			<point x="351" y="82"/>
			<point x="382" y="153" type="curve" smooth="yes"/>
			<point x="397" y="188"/>
			<point x="405" y="229"/>
			<point x="405" y="274" type="curve" smooth="yes"/>
			<point x="405" y="314"/>
			<point x="393" y="412"/>
			<point x="382" y="444" type="curve"/>
			<point x="78" y="444" type="line"/>
			<point x="79" y="543"/>
			<point x="111" y="622"/>
			<point x="171" y="666" type="curve" smooth="yes"/>
			<point x="201" y="688"/>
			<point x="239" y="699"/>
			<point x="284" y="699" type="curve" smooth="yes"/>
			<point x="375" y="699"/>
			<point x="431" y="654"/>
			<point x="467" y="567" type="curve" smooth="yes"/>
			<point x="484" y="525"/>
			<point x="497" y="475"/>
			<point x="506" y="418" type="curve" smooth="yes"/>
			<point x="521" y="328"/>
			<point x="543" y="247"/>
			<point x="570" y="176" type="curve" smooth="yes"/>
			<point x="595" y="111"/>
			<point x="632" y="30"/>
			<point x="683" y="-67" type="curve"/>
			<point x="756" y="-31" type="line"/>
			<point x="673" y="117"/>
			<point x="623" y="241"/>
			<point x="596" y="364" type="curve"/>
			<point x="901" y="364" type="line"/>
			<point x="901" y="444" type="line"/>
			<point x="581" y="444" type="line"/>
			<point x="554" y="588"/>
			<point x="510" y="688"/>
			<point x="435" y="741" type="curve" smooth="yes"/>
			<point x="396" y="768"/>
			<point x="345" y="782"/>
			<point x="284" y="782" type="curve" smooth="yes"/>
			<point x="159" y="782"/>
			<point x="73" y="716"/>
			<point x="30" y="601" type="curve" smooth="yes"/>
			<point x="9" y="544"/>
			<point x="-1" y="480"/>
			<point x="-1" y="408" type="curve" smooth="yes"/>
			<point x="-1" y="202"/>
			<point x="51" y="83"/>
			<point x="155" y="50" type="curve"/>
			<point x="134" y="13"/>
			<point x="123" y="-25"/>
			<point x="123" y="-64" type="curve" smooth="yes"/>
			<point x="123" y="-113"/>
			<point x="133" y="-152"/>
		</contour>
		<contour>
			<point x="218" y="123" type="curve" smooth="yes"/>
			<point x="127" y="123"/>
			<point x="80" y="203"/>
			<point x="78" y="364" type="curve"/>
			<point x="316" y="364" type="line"/>
			<point x="323" y="346"/>
			<point x="326" y="316"/>
			<point x="326" y="275" type="curve" smooth="yes"/>
			<point x="326" y="186"/>
			<point x="289" y="123"/>
		</contour>
	</outline>
</glyph>
<glyph name="FO.fina" format="2">
	<advance width="751" height="1750"/>
	<note>
		u1839_1823.fin
	</note>
	<outline>
		<contour>
			<point x="152" y="-182" type="curve"/>
			<point x="242" y="-182" type="line"/>
			<point x="217" y="-147"/>
			<point x="204" y="-108"/>
			<point x="204" y="-63" type="curve" smooth="yes"/>
			<point x="204" y="-24"/>
			<point x="211" y="11"/>
			<point x="225" y="41" type="curve"/>
			<point x="280" y="48"/>
			<point x="327" y="80"/>
			<point x="350" y="135" type="curve"/>
			<point x="378" y="72"/>
			<point x="427" y="40"/>
			<point x="492" y="40" type="curve" smooth="yes"/>
			<point x="637" y="40"/>
			<point x="706" y="146"/>
			<point x="706" y="375" type="curve" smooth="yes"/>
			<point x="706" y="531"/>
			<point x="651" y="659"/>
			<point x="550" y="729" type="curve" smooth="yes"/>
			<point x="499" y="764"/>
			<point x="435" y="782"/>
			<point x="359" y="782" type="curve" smooth="yes"/>
			<point x="210" y="782"/>
			<point x="100" y="711"/>
			<point x="42" y="588" type="curve" smooth="yes"/>
			<point x="13" y="527"/>
			<point x="-1" y="456"/>
			<point x="-1" y="375" type="curve" smooth="yes"/>
			<point x="-1" y="176"/>
			<point x="49" y="70"/>
			<point x="152" y="45" type="curve"/>
			<point x="132" y="10"/>
			<point x="122" y="-26"/>
			<point x="122" y="-64" type="curve" smooth="yes"/>
			<point x="122" y="-113"/>
			<point x="132" y="-152"/>
		</contour>
		<contour>
			<point x="202" y="123" type="curve" smooth="yes"/>
			<point x="135" y="123"/>
			<point x="100" y="163"/>
			<point x="88" y="240" type="curve" smooth="yes"/>
			<point x="81" y="276"/>
			<point x="78" y="317"/>
			<point x="78" y="364" type="curve"/>
			<point x="313" y="364" type="line"/>
			<point x="313" y="281" type="line" smooth="yes"/>
			<point x="313" y="186"/>
			<point x="273" y="123"/>
		</contour>
		<contour>
			<point x="492" y="123" type="curve" smooth="yes"/>
			<point x="425" y="123"/>
			<point x="392" y="177"/>
			<point x="392" y="286" type="curve" smooth="yes"/>
			<point x="392" y="364" type="line"/>
			<point x="627" y="364" type="line"/>
			<point x="624" y="244"/>
			<point x="609" y="178"/>
			<point x="571" y="147" type="curve" smooth="yes"/>
			<point x="552" y="131"/>
			<point x="525" y="123"/>
		</contour>
		<contour>
			<point x="622" y="444" type="curve"/>
			<point x="81" y="444" type="line"/>
			<point x="100" y="608"/>
			<point x="192" y="699"/>
			<point x="359" y="699" type="curve" smooth="yes"/>
			<point x="459" y="699"/>
			<point x="533" y="656"/>
			<point x="579" y="578" type="curve" smooth="yes"/>
			<point x="601" y="539"/>
			<point x="615" y="495"/>
		</contour>
	</outline>
</glyph>
<glyph name="FUI.init" format="2">
	<advance width="1224" height="1750"/>
	<note>
		u1839_1826.ini
	</note>
	<outline>
		<contour>
			<point x="198" y="-182" type="curve"/>
			<point x="288" y="-182" type="line"/>
			<point x="263" y="-147"/>
			<point x="250" y="-108"/>
			<point x="250" y="-63" type="curve" smooth="yes"/>
			<point x="250" y="-24"/>
			<point x="257" y="11"/>
			<point x="271" y="41" type="curve"/>
			<point x="326" y="48"/>
			<point x="373" y="80"/>
			<point x="396" y="135" type="curve"/>
			<point x="424" y="72"/>
			<point x="473" y="40"/>
			<point x="538" y="40" type="curve" smooth="yes"/>
			<point x="681" y="40"/>
			<point x="751" y="147"/>
			<point x="752" y="364" type="curve"/>
			<point x="863" y="364" type="line"/>
			<point x="902" y="219"/>
			<point x="959" y="75"/>
			<point x="1036" y="-67" type="curve"/>
			<point x="1109" y="-31" type="line"/>
			<point x="1036" y="98"/>
			<point x="981" y="229"/>
			<point x="942" y="364" type="curve"/>
			<point x="1254" y="364" type="line"/>
			<point x="1254" y="444" type="line"/>
			<point x="748" y="444" type="line"/>
			<point x="733" y="583"/>
			<point x="672" y="686"/>
			<point x="575" y="741" type="curve" smooth="yes"/>
			<point x="526" y="768"/>
			<point x="470" y="782"/>
			<point x="406" y="782" type="curve" smooth="yes"/>
			<point x="258" y="782"/>
			<point x="147" y="711"/>
			<point x="88" y="588" type="curve" smooth="yes"/>
			<point x="59" y="527"/>
			<point x="45" y="456"/>
			<point x="45" y="375" type="curve" smooth="yes"/>
			<point x="45" y="176"/>
			<point x="95" y="70"/>
			<point x="198" y="45" type="curve"/>
			<point x="178" y="10"/>
			<point x="168" y="-26"/>
			<point x="168" y="-64" type="curve" smooth="yes"/>
			<point x="168" y="-113"/>
			<point x="178" y="-152"/>
		</contour>
		<contour>
			<point x="249" y="123" type="curve" smooth="yes"/>
			<point x="182" y="123"/>
			<point x="146" y="163"/>
			<point x="134" y="239" type="curve" smooth="yes"/>
			<point x="127" y="275"/>
			<point x="124" y="317"/>
			<point x="124" y="364" type="curve"/>
			<point x="359" y="364" type="line"/>
			<point x="359" y="286" type="line" smooth="yes"/>
			<point x="359" y="190"/>
			<point x="321" y="123"/>
		</contour>
		<contour>
			<point x="538" y="123" type="curve" smooth="yes"/>
			<point x="471" y="123"/>
			<point x="438" y="177"/>
			<point x="438" y="286" type="curve" smooth="yes"/>
			<point x="438" y="364" type="line"/>
			<point x="673" y="364" type="line"/>
			<point x="670" y="244"/>
			<point x="655" y="178"/>
			<point x="617" y="147" type="curve" smooth="yes"/>
			<point x="598" y="131"/>
			<point x="571" y="123"/>
		</contour>
		<contour>
			<point x="668" y="444" type="curve"/>
			<point x="127" y="444" type="line"/>
			<point x="147" y="609"/>
			<point x="238" y="699"/>
			<point x="405" y="699" type="curve" smooth="yes"/>
			<point x="505" y="699"/>
			<point x="579" y="656"/>
			<point x="625" y="578" type="curve" smooth="yes"/>
			<point x="647" y="539"/>
			<point x="661" y="495"/>
		</contour>
	</outline>
</glyph>
<glyph name="FW.fina" format="2">
	<advance width="1210" height="1750"/>
	<note>
		u1839_1827.fin
	</note>
	<outline>
		<contour>
			<point x="153" y="-182" type="curve"/>
			<point x="243" y="-182" type="line"/>
			<point x="218" y="-147"/>
			<point x="205" y="-108"/>
			<point x="205" y="-63" type="curve" smooth="yes"/>
			<point x="205" y="-26"/>
			<point x="212" y="8"/>
			<point x="225" y="40" type="curve"/>
			<point x="231" y="40" type="line" smooth="yes"/>
			<point x="295" y="40"/>
			<point x="350" y="81"/>
			<point x="382" y="153" type="curve" smooth="yes"/>
			<point x="397" y="188"/>
			<point x="405" y="228"/>
			<point x="405" y="273" type="curve" smooth="yes"/>
			<point x="405" y="317"/>
			<point x="394" y="412"/>
			<point x="382" y="444" type="curve"/>
			<point x="78" y="444" type="line"/>
			<point x="79" y="543"/>
			<point x="111" y="622"/>
			<point x="171" y="666" type="curve" smooth="yes"/>
			<point x="201" y="688"/>
			<point x="239" y="699"/>
			<point x="284" y="699" type="curve" smooth="yes"/>
			<point x="375" y="699"/>
			<point x="430" y="654"/>
			<point x="466" y="567" type="curve" smooth="yes"/>
			<point x="483" y="525"/>
			<point x="496" y="475"/>
			<point x="506" y="418" type="curve" smooth="yes"/>
			<point x="531" y="276"/>
			<point x="569" y="150"/>
			<point x="621" y="41" type="curve" smooth="yes"/>
			<point x="672" y="-66"/>
			<point x="724" y="-119"/>
			<point x="812" y="-119" type="curve" smooth="yes"/>
			<point x="851" y="-119"/>
			<point x="879" y="-108"/>
			<point x="894" y="-85" type="curve"/>
			<point x="894" y="6" type="line"/>
			<point x="875" y="-22"/>
			<point x="848" y="-36"/>
			<point x="812" y="-36" type="curve" smooth="yes"/>
			<point x="764" y="-36"/>
			<point x="724" y="9"/>
			<point x="679" y="106" type="curve" smooth="yes"/>
			<point x="640" y="189"/>
			<point x="612" y="275"/>
			<point x="595" y="364" type="curve"/>
			<point x="990" y="364" type="line" smooth="yes"/>
			<point x="1059" y="364"/>
			<point x="1088" y="335"/>
			<point x="1088" y="279" type="curve" smooth="yes"/>
			<point x="1088" y="236"/>
			<point x="1081" y="197"/>
			<point x="1066" y="162" type="curve"/>
			<point x="1140" y="162" type="line"/>
			<point x="1157" y="196"/>
			<point x="1165" y="235"/>
			<point x="1165" y="279" type="curve" smooth="yes"/>
			<point x="1165" y="389"/>
			<point x="1107" y="444"/>
			<point x="990" y="444" type="curve" smooth="yes"/>
			<point x="580" y="444" type="line"/>
			<point x="555" y="587"/>
			<point x="510" y="687"/>
			<point x="434" y="740" type="curve" smooth="yes"/>
			<point x="395" y="768"/>
			<point x="345" y="782"/>
			<point x="284" y="782" type="curve" smooth="yes"/>
			<point x="159" y="782"/>
			<point x="73" y="716"/>
			<point x="30" y="601" type="curve" smooth="yes"/>
			<point x="9" y="544"/>
			<point x="-1" y="480"/>
			<point x="-1" y="408" type="curve" smooth="yes"/>
			<point x="-1" y="202"/>
			<point x="51" y="83"/>
			<point x="155" y="50" type="curve"/>
			<point x="134" y="13"/>
			<point x="123" y="-25"/>
			<point x="123" y="-64" type="curve" smooth="yes"/>
			<point x="123" y="-113"/>
			<point x="133" y="-152"/>
		</contour>
		<contour>
			<point x="218" y="123" type="curve" smooth="yes"/>
			<point x="127" y="123"/>
			<point x="80" y="203"/>
			<point x="78" y="364" type="curve"/>
			<point x="316" y="364" type="line"/>
			<point x="323" y="346"/>
			<point x="326" y="316"/>
			<point x="326" y="275" type="curve" smooth="yes"/>
			<point x="326" y="186"/>
			<point x="289" y="123"/>
		</contour>
	</outline>
</glyph>
<glyph name="FW.init" format="2">
	<advance width="1006" height="1750"/>
	<note>
		u1839_1827.ini
	</note>
	<outline>
		<contour>
			<point x="199" y="-182" type="curve"/>
			<point x="289" y="-182" type="line"/>
			<point x="264" y="-147"/>
			<point x="251" y="-108"/>
			<point x="251" y="-63" type="curve" smooth="yes"/>
			<point x="251" y="-26"/>
			<point x="258" y="8"/>
			<point x="271" y="40" type="curve"/>
			<point x="277" y="40" type="line" smooth="yes"/>
			<point x="341" y="40"/>
			<point x="396" y="81"/>
			<point x="428" y="153" type="curve" smooth="yes"/>
			<point x="443" y="188"/>
			<point x="451" y="228"/>
			<point x="451" y="273" type="curve" smooth="yes"/>
			<point x="451" y="317"/>
			<point x="440" y="412"/>
			<point x="428" y="444" type="curve"/>
			<point x="124" y="444" type="line"/>
			<point x="125" y="543"/>
			<point x="157" y="622"/>
			<point x="217" y="666" type="curve" smooth="yes"/>
			<point x="247" y="688"/>
			<point x="285" y="699"/>
			<point x="330" y="699" type="curve" smooth="yes"/>
			<point x="421" y="699"/>
			<point x="476" y="654"/>
			<point x="512" y="567" type="curve" smooth="yes"/>
			<point x="529" y="525"/>
			<point x="542" y="475"/>
			<point x="552" y="418" type="curve" smooth="yes"/>
			<point x="577" y="276"/>
			<point x="615" y="150"/>
			<point x="667" y="41" type="curve" smooth="yes"/>
			<point x="718" y="-66"/>
			<point x="770" y="-119"/>
			<point x="858" y="-119" type="curve" smooth="yes"/>
			<point x="897" y="-119"/>
			<point x="925" y="-108"/>
			<point x="940" y="-85" type="curve"/>
			<point x="940" y="6" type="line"/>
			<point x="921" y="-22"/>
			<point x="894" y="-36"/>
			<point x="858" y="-36" type="curve" smooth="yes"/>
			<point x="810" y="-36"/>
			<point x="770" y="9"/>
			<point x="725" y="106" type="curve" smooth="yes"/>
			<point x="686" y="189"/>
			<point x="658" y="275"/>
			<point x="641" y="364" type="curve"/>
			<point x="1036" y="364" type="line"/>
			<point x="1036" y="444" type="line"/>
			<point x="626" y="444" type="line"/>
			<point x="601" y="587"/>
			<point x="556" y="687"/>
			<point x="480" y="740" type="curve" smooth="yes"/>
			<point x="441" y="768"/>
			<point x="391" y="782"/>
			<point x="330" y="782" type="curve" smooth="yes"/>
			<point x="205" y="782"/>
			<point x="119" y="716"/>
			<point x="76" y="601" type="curve" smooth="yes"/>
			<point x="55" y="544"/>
			<point x="45" y="480"/>
			<point x="45" y="408" type="curve" smooth="yes"/>
			<point x="45" y="202"/>
			<point x="97" y="83"/>
			<point x="201" y="50" type="curve"/>
			<point x="180" y="13"/>
			<point x="169" y="-25"/>
			<point x="169" y="-64" type="curve" smooth="yes"/>
			<point x="169" y="-113"/>
			<point x="179" y="-152"/>
		</contour>
		<contour>
			<point x="264" y="123" type="curve" smooth="yes"/>
			<point x="173" y="123"/>
			<point x="126" y="203"/>
			<point x="124" y="364" type="curve"/>
			<point x="362" y="364" type="line"/>
			<point x="369" y="346"/>
			<point x="372" y="316"/>
			<point x="372" y="275" type="curve" smooth="yes"/>
			<point x="372" y="186"/>
			<point x="335" y="123"/>
		</contour>
	</outline>
</glyph>
<glyph name="GA.init" format="2">
	<advance width="714" height="1750"/>
	<note>
		u182C_1821.ini
	</note>
	<outline>
		<contour>
			<point x="174" y="42" type="curve"/>
			<point x="245" y="85" type="line"/>
			<point x="162" y="206"/>
			<point x="124" y="298"/>
			<point x="124" y="417" type="curve" smooth="yes"/>
			<point x="124" y="568"/>
			<point x="180" y="644"/>
			<point x="275" y="644" type="curve" smooth="yes"/>
			<point x="352" y="644"/>
			<point x="391" y="598"/>
			<point x="411" y="510" type="curve" smooth="yes"/>
			<point x="420" y="467"/>
			<point x="426" y="418"/>
			<point x="430" y="363" type="curve" smooth="yes"/>
			<point x="449" y="96" type="line"/>
			<point x="515" y="96" type="line"/>
			<point x="534" y="364" type="line"/>
			<point x="744" y="364" type="line"/>
			<point x="744" y="444" type="line"/>
			<point x="503" y="444" type="line"/>
			<point x="489" y="565"/>
			<point x="453" y="648"/>
			<point x="396" y="692" type="curve" smooth="yes"/>
			<point x="365" y="715"/>
			<point x="324" y="727"/>
			<point x="274" y="727" type="curve" smooth="yes"/>
			<point x="182" y="727"/>
			<point x="112" y="674"/>
			<point x="74" y="582" type="curve" smooth="yes"/>
			<point x="55" y="535"/>
			<point x="45" y="480"/>
			<point x="45" y="417" type="curve" smooth="yes"/>
			<point x="45" y="299"/>
			<point x="88" y="174"/>
		</contour>
	</outline>
</glyph>
<glyph name="GI.medi" format="2">
	<advance width="762" height="1750"/>
	<note>
		u182C_1822.med
	</note>
	<outline>
		<contour>
			<point x="574" y="-67" type="curve"/>
			<point x="647" y="-31" type="line"/>
			<point x="565" y="98"/>
			<point x="511" y="230"/>
			<point x="485" y="364" type="curve"/>
			<point x="792" y="364" type="line"/>
			<point x="792" y="444" type="line"/>
			<point x="475" y="444" type="line"/>
			<point x="459" y="575"/>
			<point x="426" y="668"/>
			<point x="365" y="720" type="curve" smooth="yes"/>
			<point x="333" y="747"/>
			<point x="291" y="760"/>
			<point x="239" y="760" type="curve" smooth="yes"/>
			<point x="135" y="760"/>
			<point x="61" y="697"/>
			<point x="24" y="590" type="curve" smooth="yes"/>
			<point x="6" y="538"/>
			<point x="-3" y="480"/>
			<point x="-3" y="417" type="curve" smooth="yes"/>
			<point x="-3" y="299"/>
			<point x="40" y="174"/>
			<point x="126" y="42" type="curve"/>
			<point x="197" y="85" type="line"/>
			<point x="114" y="206"/>
			<point x="76" y="298"/>
			<point x="76" y="417" type="curve" smooth="yes"/>
			<point x="76" y="514"/>
			<point x="98" y="594"/>
			<point x="145" y="641" type="curve" smooth="yes"/>
			<point x="169" y="665"/>
			<point x="200" y="677"/>
			<point x="239" y="677" type="curve" smooth="yes"/>
			<point x="306" y="677"/>
			<point x="343" y="645"/>
			<point x="368" y="572" type="curve" smooth="yes"/>
			<point x="380" y="539"/>
			<point x="388" y="494"/>
			<point x="399" y="418" type="curve" smooth="yes"/>
			<point x="411" y="333"/>
			<point x="430" y="252"/>
			<point x="457" y="176" type="curve" smooth="yes"/>
			<point x="485" y="96"/>
			<point x="524" y="15"/>
		</contour>
	</outline>
</glyph>
<glyph name="GU.init" format="2">
	<advance width="885" height="1750"/>
	<note>
		u182C_1825.iniV1
	</note>
	<outline>
		<contour>
			<point x="509" y="40" type="curve" smooth="yes"/>
			<point x="585" y="40"/>
			<point x="646" y="86"/>
			<point x="679" y="165" type="curve" smooth="yes"/>
			<point x="696" y="204"/>
			<point x="704" y="250"/>
			<point x="704" y="302" type="curve" smooth="yes"/>
			<point x="704" y="334" type="line" smooth="yes"/>
			<point x="704" y="344"/>
			<point x="703" y="354"/>
			<point x="702" y="364" type="curve"/>
			<point x="915" y="364" type="line"/>
			<point x="915" y="444" type="line"/>
			<point x="693" y="444" type="line"/>
			<point x="658" y="649"/>
			<point x="545" y="760"/>
			<point x="365" y="760" type="curve" smooth="yes"/>
			<point x="237" y="760"/>
			<point x="137" y="699"/>
			<point x="85" y="592" type="curve" smooth="yes"/>
			<point x="58" y="539"/>
			<point x="45" y="477"/>
			<point x="45" y="408" type="curve" smooth="yes"/>
			<point x="45" y="293"/>
			<point x="85" y="155"/>
			<point x="146" y="42" type="curve"/>
			<point x="219" y="73" type="line"/>
			<point x="155" y="194"/>
			<point x="124" y="309"/>
			<point x="124" y="405" type="curve" smooth="yes"/>
			<point x="124" y="513"/>
			<point x="162" y="598"/>
			<point x="234" y="643" type="curve" smooth="yes"/>
			<point x="270" y="666"/>
			<point x="314" y="677"/>
			<point x="365" y="677" type="curve" smooth="yes"/>
			<point x="503" y="677"/>
			<point x="586" y="599"/>
			<point x="614" y="444" type="curve"/>
			<point x="347" y="444" type="line"/>
			<point x="323" y="399"/>
			<point x="309" y="331"/>
			<point x="309" y="275" type="curve" smooth="yes"/>
			<point x="309" y="128"/>
			<point x="378" y="40"/>
		</contour>
		<contour>
			<point x="502" y="123" type="curve" smooth="yes"/>
			<point x="426" y="123"/>
			<point x="388" y="174"/>
			<point x="388" y="275" type="curve" smooth="yes"/>
			<point x="388" y="308"/>
			<point x="393" y="338"/>
			<point x="404" y="364" type="curve"/>
			<point x="623" y="364" type="line"/>
			<point x="624" y="354"/>
			<point x="625" y="344"/>
			<point x="625" y="334" type="curve" smooth="yes"/>
			<point x="625" y="303" type="line" smooth="yes"/>
			<point x="625" y="236"/>
			<point x="606" y="180"/>
			<point x="571" y="148" type="curve" smooth="yes"/>
			<point x="553" y="131"/>
			<point x="530" y="123"/>
		</contour>
	</outline>
</glyph>
<glyph name="GUI.medi" format="2">
	<advance width="1133" height="1750"/>
	<note>
		u182C_1825.medV1
	</note>
	<outline>
		<contour>
			<point x="945" y="-67" type="curve"/>
			<point x="1018" y="-31" type="line"/>
			<point x="945" y="98"/>
			<point x="890" y="229"/>
			<point x="851" y="364" type="curve"/>
			<point x="1163" y="364" type="line"/>
			<point x="1163" y="444" type="line"/>
			<point x="646" y="444" type="line"/>
			<point x="611" y="649"/>
			<point x="498" y="760"/>
			<point x="318" y="760" type="curve" smooth="yes"/>
			<point x="190" y="760"/>
			<point x="90" y="699"/>
			<point x="38" y="592" type="curve" smooth="yes"/>
			<point x="11" y="539"/>
			<point x="-2" y="477"/>
			<point x="-2" y="408" type="curve" smooth="yes"/>
			<point x="-2" y="293"/>
			<point x="38" y="155"/>
			<point x="99" y="42" type="curve"/>
			<point x="172" y="73" type="line"/>
			<point x="108" y="194"/>
			<point x="77" y="309"/>
			<point x="77" y="405" type="curve" smooth="yes"/>
			<point x="77" y="513"/>
			<point x="115" y="598"/>
			<point x="187" y="643" type="curve" smooth="yes"/>
			<point x="223" y="666"/>
			<point x="267" y="677"/>
			<point x="318" y="677" type="curve" smooth="yes"/>
			<point x="456" y="677"/>
			<point x="539" y="599"/>
			<point x="567" y="444" type="curve"/>
			<point x="300" y="444" type="line"/>
			<point x="276" y="399"/>
			<point x="262" y="331"/>
			<point x="262" y="275" type="curve" smooth="yes"/>
			<point x="262" y="128"/>
			<point x="331" y="40"/>
			<point x="462" y="40" type="curve" smooth="yes"/>
			<point x="535" y="40"/>
			<point x="596" y="85"/>
			<point x="631" y="162" type="curve" smooth="yes"/>
			<point x="648" y="201"/>
			<point x="657" y="246"/>
			<point x="657" y="298" type="curve" smooth="yes"/>
			<point x="657" y="332" type="line" smooth="yes"/>
			<point x="657" y="343"/>
			<point x="656" y="354"/>
			<point x="655" y="364" type="curve"/>
			<point x="772" y="364" type="line"/>
			<point x="811" y="219"/>
			<point x="868" y="75"/>
		</contour>
		<contour>
			<point x="455" y="123" type="curve" smooth="yes"/>
			<point x="379" y="123"/>
			<point x="341" y="174"/>
			<point x="341" y="275" type="curve" smooth="yes"/>
			<point x="341" y="308"/>
			<point x="346" y="338"/>
			<point x="357" y="364" type="curve"/>
			<point x="576" y="364" type="line"/>
			<point x="577" y="354"/>
			<point x="578" y="344"/>
			<point x="578" y="334" type="curve" smooth="yes"/>
			<point x="578" y="303" type="line" smooth="yes"/>
			<point x="578" y="236"/>
			<point x="559" y="180"/>
			<point x="524" y="148" type="curve" smooth="yes"/>
			<point x="506" y="131"/>
			<point x="483" y="123"/>
		</contour>
	</outline>
</glyph>
<glyph name="GxA.init" format="2">
	<advance width="714" height="1750"/>
	<note>
		u182C_1821.iniV1
	</note>
	<outline>
		<contour>
			<point x="174" y="42" type="curve"/>
			<point x="245" y="85" type="line"/>
			<point x="162" y="206"/>
			<point x="124" y="298"/>
			<point x="124" y="417" type="curve" smooth="yes"/>
			<point x="124" y="568"/>
			<point x="180" y="644"/>
			<point x="275" y="644" type="curve" smooth="yes"/>
			<point x="352" y="644"/>
			<point x="391" y="598"/>
			<point x="411" y="510" type="curve" smooth="yes"/>
			<point x="420" y="467"/>
			<point x="426" y="418"/>
			<point x="430" y="363" type="curve" smooth="yes"/>
			<point x="449" y="96" type="line"/>
			<point x="515" y="96" type="line"/>
			<point x="534" y="364" type="line"/>
			<point x="744" y="364" type="line"/>
			<point x="744" y="444" type="line"/>
			<point x="503" y="444" type="line"/>
			<point x="489" y="565"/>
			<point x="453" y="648"/>
			<point x="396" y="692" type="curve" smooth="yes"/>
			<point x="365" y="715"/>
			<point x="324" y="727"/>
			<point x="274" y="727" type="curve" smooth="yes"/>
			<point x="182" y="727"/>
			<point x="112" y="674"/>
			<point x="74" y="582" type="curve" smooth="yes"/>
			<point x="55" y="535"/>
			<point x="45" y="480"/>
			<point x="45" y="417" type="curve" smooth="yes"/>
			<point x="45" y="299"/>
			<point x="88" y="174"/>
		</contour>
		<contour>
			<point x="141" y="-157" type="curve"/>
			<point x="184" y="-196" type="line"/>
			<point x="219" y="-160"/>
			<point x="265" y="-121"/>
			<point x="323" y="-80" type="curve"/>
			<point x="262" y="-11" type="line"/>
			<point x="223" y="-50"/>
			<point x="182" y="-99"/>
		</contour>
		<contour>
			<point x="356" y="-157" type="curve"/>
			<point x="399" y="-196" type="line"/>
			<point x="434" y="-160"/>
			<point x="480" y="-121"/>
			<point x="538" y="-80" type="curve"/>
			<point x="477" y="-11" type="line"/>
			<point x="438" y="-50"/>
			<point x="397" y="-99"/>
		</contour>
	</outline>
</glyph>
<glyph name="GxA.isol" format="2">
	<advance width="1021" height="1750"/>
	<note>
		u182C_1821.V1
	</note>
	<outline>
		<contour>
			<point x="715" y="-264" type="curve"/>
			<point x="797" y="-264" type="line"/>
			<point x="783" y="-238"/>
			<point x="776" y="-212"/>
			<point x="776" y="-187" type="curve" smooth="yes"/>
			<point x="776" y="-130"/>
			<point x="795" y="-94"/>
			<point x="843" y="-31" type="curve" smooth="yes"/>
			<point x="928" y="77"/>
			<point x="976" y="162"/>
			<point x="976" y="245" type="curve" smooth="yes"/>
			<point x="976" y="374"/>
			<point x="897" y="444"/>
			<point x="745" y="444" type="curve" smooth="yes"/>
			<point x="503" y="444" type="line"/>
			<point x="489" y="565"/>
			<point x="453" y="648"/>
			<point x="396" y="692" type="curve" smooth="yes"/>
			<point x="365" y="715"/>
			<point x="324" y="727"/>
			<point x="274" y="727" type="curve" smooth="yes"/>
			<point x="182" y="727"/>
			<point x="110" y="674"/>
			<point x="73" y="581" type="curve" smooth="yes"/>
			<point x="54" y="535"/>
			<point x="45" y="481"/>
			<point x="45" y="418" type="curve" smooth="yes"/>
			<point x="45" y="299"/>
			<point x="88" y="174"/>
			<point x="174" y="42" type="curve"/>
			<point x="245" y="85" type="line"/>
			<point x="162" y="206"/>
			<point x="124" y="298"/>
			<point x="124" y="417" type="curve" smooth="yes"/>
			<point x="124" y="568"/>
			<point x="179" y="644"/>
			<point x="274" y="644" type="curve" smooth="yes"/>
			<point x="351" y="644"/>
			<point x="391" y="598"/>
			<point x="411" y="510" type="curve" smooth="yes"/>
			<point x="420" y="467"/>
			<point x="426" y="418"/>
			<point x="430" y="361" type="curve" smooth="yes"/>
			<point x="449" y="96" type="line"/>
			<point x="515" y="96" type="line"/>
			<point x="534" y="364" type="line"/>
			<point x="744" y="364" type="line" smooth="yes"/>
			<point x="849" y="364"/>
			<point x="898" y="325"/>
			<point x="898" y="244" type="curve" smooth="yes"/>
			<point x="898" y="180"/>
			<point x="867" y="125"/>
			<point x="791" y="28" type="curve" smooth="yes"/>
			<point x="728" y="-55"/>
			<point x="696" y="-115"/>
			<point x="696" y="-187" type="curve" smooth="yes"/>
			<point x="696" y="-217"/>
			<point x="702" y="-243"/>
		</contour>
		<contour>
			<point x="141" y="-157" type="curve"/>
			<point x="184" y="-196" type="line"/>
			<point x="219" y="-160"/>
			<point x="265" y="-121"/>
			<point x="323" y="-80" type="curve"/>
			<point x="262" y="-11" type="line"/>
			<point x="223" y="-50"/>
			<point x="182" y="-99"/>
		</contour>
		<contour>
			<point x="356" y="-157" type="curve"/>
			<point x="399" y="-196" type="line"/>
			<point x="434" y="-160"/>
			<point x="480" y="-121"/>
			<point x="538" y="-80" type="curve"/>
			<point x="477" y="-11" type="line"/>
			<point x="438" y="-50"/>
			<point x="397" y="-99"/>
		</contour>
	</outline>
</glyph>
<glyph name="GxI.fina" format="2">
	<advance width="1012" height="1750"/>
	<note>
		u182C_1822.finV1
	</note>
	<outline>
		<contour>
			<point x="574" y="-67" type="curve"/>
			<point x="647" y="-31" type="line"/>
			<point x="565" y="98"/>
			<point x="511" y="230"/>
			<point x="485" y="364" type="curve"/>
			<point x="792" y="364" type="line" smooth="yes"/>
			<point x="861" y="364"/>
			<point x="890" y="335"/>
			<point x="890" y="279" type="curve" smooth="yes"/>
			<point x="890" y="235"/>
			<point x="883" y="196"/>
			<point x="868" y="162" type="curve"/>
			<point x="942" y="162" type="line"/>
			<point x="959" y="198"/>
			<point x="967" y="237"/>
			<point x="967" y="279" type="curve" smooth="yes"/>
			<point x="967" y="389"/>
			<point x="909" y="444"/>
			<point x="792" y="444" type="curve" smooth="yes"/>
			<point x="475" y="444" type="line"/>
			<point x="459" y="575"/>
			<point x="426" y="668"/>
			<point x="365" y="720" type="curve" smooth="yes"/>
			<point x="333" y="747"/>
			<point x="291" y="760"/>
			<point x="239" y="760" type="curve" smooth="yes"/>
			<point x="135" y="760"/>
			<point x="61" y="697"/>
			<point x="24" y="591" type="curve" smooth="yes"/>
			<point x="6" y="539"/>
			<point x="-3" y="481"/>
			<point x="-3" y="417" type="curve" smooth="yes"/>
			<point x="-3" y="299"/>
			<point x="40" y="174"/>
			<point x="126" y="42" type="curve"/>
			<point x="197" y="85" type="line"/>
			<point x="114" y="206"/>
			<point x="76" y="298"/>
			<point x="76" y="417" type="curve" smooth="yes"/>
			<point x="76" y="514"/>
			<point x="98" y="594"/>
			<point x="145" y="641" type="curve" smooth="yes"/>
			<point x="169" y="665"/>
			<point x="200" y="677"/>
			<point x="239" y="677" type="curve" smooth="yes"/>
			<point x="312" y="677"/>
			<point x="350" y="637"/>
			<point x="373" y="556" type="curve" smooth="yes"/>
			<point x="384" y="517"/>
			<point x="392" y="471"/>
			<point x="399" y="418" type="curve" smooth="yes"/>
			<point x="422" y="250"/>
			<point x="482" y="80"/>
		</contour>
		<contour>
			<point x="71" y="-157" type="curve"/>
			<point x="114" y="-196" type="line"/>
			<point x="149" y="-160"/>
			<point x="195" y="-121"/>
			<point x="253" y="-80" type="curve"/>
			<point x="192" y="-11" type="line"/>
			<point x="153" y="-50"/>
			<point x="112" y="-99"/>
		</contour>
		<contour>
			<point x="286" y="-157" type="curve"/>
			<point x="329" y="-196" type="line"/>
			<point x="364" y="-160"/>
			<point x="410" y="-121"/>
			<point x="468" y="-80" type="curve"/>
			<point x="407" y="-11" type="line"/>
			<point x="368" y="-50"/>
			<point x="327" y="-99"/>
		</contour>
	</outline>
</glyph>
<glyph name="GxI.init" format="2">
	<advance width="810" height="1750"/>
	<note>
		u182C_1888.iniV1
	</note>
	<outline>
		<contour>
			<point x="622" y="-67" type="curve"/>
			<point x="695" y="-31" type="line"/>
			<point x="613" y="98"/>
			<point x="559" y="230"/>
			<point x="533" y="364" type="curve"/>
			<point x="840" y="364" type="line"/>
			<point x="840" y="444" type="line"/>
			<point x="523" y="444" type="line"/>
			<point x="507" y="575"/>
			<point x="474" y="668"/>
			<point x="413" y="720" type="curve" smooth="yes"/>
			<point x="381" y="747"/>
			<point x="339" y="760"/>
			<point x="287" y="760" type="curve" smooth="yes"/>
			<point x="183" y="760"/>
			<point x="109" y="697"/>
			<point x="72" y="590" type="curve" smooth="yes"/>
			<point x="54" y="538"/>
			<point x="45" y="480"/>
			<point x="45" y="417" type="curve" smooth="yes"/>
			<point x="45" y="299"/>
			<point x="88" y="174"/>
			<point x="174" y="42" type="curve"/>
			<point x="245" y="85" type="line"/>
			<point x="162" y="206"/>
			<point x="124" y="298"/>
			<point x="124" y="417" type="curve" smooth="yes"/>
			<point x="124" y="514"/>
			<point x="146" y="594"/>
			<point x="193" y="641" type="curve" smooth="yes"/>
			<point x="217" y="665"/>
			<point x="248" y="677"/>
			<point x="287" y="677" type="curve" smooth="yes"/>
			<point x="354" y="677"/>
			<point x="391" y="645"/>
			<point x="416" y="572" type="curve" smooth="yes"/>
			<point x="428" y="539"/>
			<point x="436" y="494"/>
			<point x="447" y="418" type="curve" smooth="yes"/>
			<point x="459" y="333"/>
			<point x="478" y="252"/>
			<point x="505" y="176" type="curve" smooth="yes"/>
			<point x="533" y="96"/>
			<point x="572" y="15"/>
		</contour>
		<contour>
			<point x="119" y="-157" type="curve"/>
			<point x="162" y="-196" type="line"/>
			<point x="197" y="-160"/>
			<point x="243" y="-121"/>
			<point x="301" y="-80" type="curve"/>
			<point x="240" y="-11" type="line"/>
			<point x="201" y="-50"/>
			<point x="160" y="-99"/>
		</contour>
		<contour>
			<point x="334" y="-157" type="curve"/>
			<point x="377" y="-196" type="line"/>
			<point x="412" y="-160"/>
			<point x="458" y="-121"/>
			<point x="516" y="-80" type="curve"/>
			<point x="455" y="-11" type="line"/>
			<point x="416" y="-50"/>
			<point x="375" y="-99"/>
		</contour>
	</outline>
</glyph>
<glyph name="GxI.isol" format="2">
	<advance width="1060" height="1750"/>
	<note>
		u182C_1822.V1
	</note>
	<outline>
		<contour>
			<point x="622" y="-67" type="curve"/>
			<point x="695" y="-31" type="line"/>
			<point x="613" y="98"/>
			<point x="559" y="230"/>
			<point x="533" y="364" type="curve"/>
			<point x="840" y="364" type="line" smooth="yes"/>
			<point x="909" y="364"/>
			<point x="938" y="335"/>
			<point x="938" y="279" type="curve" smooth="yes"/>
			<point x="938" y="235"/>
			<point x="931" y="196"/>
			<point x="916" y="162" type="curve"/>
			<point x="990" y="162" type="line"/>
			<point x="1007" y="198"/>
			<point x="1015" y="237"/>
			<point x="1015" y="279" type="curve" smooth="yes"/>
			<point x="1015" y="389"/>
			<point x="957" y="444"/>
			<point x="840" y="444" type="curve" smooth="yes"/>
			<point x="523" y="444" type="line"/>
			<point x="507" y="575"/>
			<point x="474" y="668"/>
			<point x="413" y="720" type="curve" smooth="yes"/>
			<point x="381" y="747"/>
			<point x="339" y="760"/>
			<point x="287" y="760" type="curve" smooth="yes"/>
			<point x="183" y="760"/>
			<point x="109" y="697"/>
			<point x="72" y="591" type="curve" smooth="yes"/>
			<point x="54" y="539"/>
			<point x="45" y="481"/>
			<point x="45" y="417" type="curve" smooth="yes"/>
			<point x="45" y="299"/>
			<point x="88" y="174"/>
			<point x="174" y="42" type="curve"/>
			<point x="245" y="85" type="line"/>
			<point x="162" y="206"/>
			<point x="124" y="298"/>
			<point x="124" y="417" type="curve" smooth="yes"/>
			<point x="124" y="514"/>
			<point x="146" y="594"/>
			<point x="193" y="641" type="curve" smooth="yes"/>
			<point x="217" y="665"/>
			<point x="248" y="677"/>
			<point x="287" y="677" type="curve" smooth="yes"/>
			<point x="360" y="677"/>
			<point x="398" y="637"/>
			<point x="421" y="556" type="curve" smooth="yes"/>
			<point x="432" y="517"/>
			<point x="440" y="471"/>
			<point x="447" y="418" type="curve" smooth="yes"/>
			<point x="470" y="250"/>
			<point x="530" y="80"/>
		</contour>
		<contour>
			<point x="141" y="-157" type="curve"/>
			<point x="184" y="-196" type="line"/>
			<point x="219" y="-160"/>
			<point x="265" y="-121"/>
			<point x="323" y="-80" type="curve"/>
			<point x="262" y="-11" type="line"/>
			<point x="223" y="-50"/>
			<point x="182" y="-99"/>
		</contour>
		<contour>
			<point x="356" y="-157" type="curve"/>
			<point x="399" y="-196" type="line"/>
			<point x="434" y="-160"/>
			<point x="480" y="-121"/>
			<point x="538" y="-80" type="curve"/>
			<point x="477" y="-11" type="line"/>
			<point x="438" y="-50"/>
			<point x="397" y="-99"/>
		</contour>
	</outline>
</glyph>
<glyph name="GxU.medi" format="2">
	<advance width="838" height="1750"/>
	<note>
		u182C_1826.medV2
	</note>
	<outline>
		<contour>
			<point x="462" y="40" type="curve" smooth="yes"/>
			<point x="538" y="40"/>
			<point x="599" y="86"/>
			<point x="632" y="165" type="curve" smooth="yes"/>
			<point x="649" y="204"/>
			<point x="657" y="250"/>
			<point x="657" y="302" type="curve" smooth="yes"/>
			<point x="657" y="334" type="line" smooth="yes"/>
			<point x="657" y="344"/>
			<point x="656" y="354"/>
			<point x="655" y="364" type="curve"/>
			<point x="868" y="364" type="line"/>
			<point x="868" y="444" type="line"/>
			<point x="646" y="444" type="line"/>
			<point x="611" y="649"/>
			<point x="498" y="760"/>
			<point x="318" y="760" type="curve" smooth="yes"/>
			<point x="190" y="760"/>
			<point x="90" y="699"/>
			<point x="38" y="592" type="curve" smooth="yes"/>
			<point x="11" y="539"/>
			<point x="-2" y="477"/>
			<point x="-2" y="408" type="curve" smooth="yes"/>
			<point x="-2" y="293"/>
			<point x="38" y="155"/>
			<point x="99" y="42" type="curve"/>
			<point x="172" y="73" type="line"/>
			<point x="108" y="194"/>
			<point x="77" y="309"/>
			<point x="77" y="405" type="curve" smooth="yes"/>
			<point x="77" y="513"/>
			<point x="115" y="598"/>
			<point x="187" y="643" type="curve" smooth="yes"/>
			<point x="223" y="666"/>
			<point x="267" y="677"/>
			<point x="318" y="677" type="curve" smooth="yes"/>
			<point x="456" y="677"/>
			<point x="539" y="599"/>
			<point x="567" y="444" type="curve"/>
			<point x="300" y="444" type="line"/>
			<point x="276" y="399"/>
			<point x="262" y="331"/>
			<point x="262" y="275" type="curve" smooth="yes"/>
			<point x="262" y="128"/>
			<point x="331" y="40"/>
		</contour>
		<contour>
			<point x="94" y="-157" type="curve"/>
			<point x="137" y="-196" type="line"/>
			<point x="172" y="-160"/>
			<point x="218" y="-121"/>
			<point x="276" y="-80" type="curve"/>
			<point x="215" y="-11" type="line"/>
			<point x="176" y="-50"/>
			<point x="135" y="-99"/>
		</contour>
		<contour>
			<point x="353" y="-157" type="curve"/>
			<point x="396" y="-196" type="line"/>
			<point x="431" y="-160"/>
			<point x="477" y="-121"/>
			<point x="535" y="-80" type="curve"/>
			<point x="474" y="-11" type="line"/>
			<point x="435" y="-50"/>
			<point x="394" y="-99"/>
		</contour>
		<contour>
			<point x="455" y="123" type="curve" smooth="yes"/>
			<point x="379" y="123"/>
			<point x="341" y="174"/>
			<point x="341" y="275" type="curve" smooth="yes"/>
			<point x="341" y="308"/>
			<point x="346" y="338"/>
			<point x="357" y="364" type="curve"/>
			<point x="576" y="364" type="line"/>
			<point x="577" y="354"/>
			<point x="578" y="344"/>
			<point x="578" y="334" type="curve" smooth="yes"/>
			<point x="578" y="303" type="line" smooth="yes"/>
			<point x="578" y="236"/>
			<point x="559" y="180"/>
			<point x="524" y="148" type="curve" smooth="yes"/>
			<point x="506" y="131"/>
			<point x="483" y="123"/>
		</contour>
	</outline>
</glyph>
<glyph name="K2A.init" format="2">
	<advance width="714" height="1750"/>
	<note>
		u183A_1820.ini
	</note>
	<outline>
		<contour>
			<point x="244" y="35" type="curve"/>
			<point x="306" y="90" type="line"/>
			<point x="182" y="223"/>
			<point x="124" y="330"/>
			<point x="124" y="419" type="curve" smooth="yes"/>
			<point x="124" y="511"/>
			<point x="145" y="576"/>
			<point x="187" y="614" type="curve" smooth="yes"/>
			<point x="209" y="634"/>
			<point x="238" y="644"/>
			<point x="274" y="644" type="curve" smooth="yes"/>
			<point x="351" y="644"/>
			<point x="391" y="600"/>
			<point x="411" y="512" type="curve" smooth="yes"/>
			<point x="420" y="470"/>
			<point x="426" y="421"/>
			<point x="430" y="364" type="curve" smooth="yes"/>
			<point x="449" y="96" type="line"/>
			<point x="515" y="96" type="line"/>
			<point x="534" y="364" type="line"/>
			<point x="744" y="364" type="line"/>
			<point x="744" y="444" type="line"/>
			<point x="503" y="444" type="line"/>
			<point x="489" y="565"/>
			<point x="453" y="648"/>
			<point x="396" y="692" type="curve" smooth="yes"/>
			<point x="365" y="715"/>
			<point x="324" y="727"/>
			<point x="274" y="727" type="curve" smooth="yes"/>
			<point x="175" y="727"/>
			<point x="106" y="672"/>
			<point x="71" y="577" type="curve" smooth="yes"/>
			<point x="54" y="530"/>
			<point x="45" y="478"/>
			<point x="45" y="419" type="curve" smooth="yes"/>
			<point x="45" y="96" type="line"/>
			<point x="111" y="96" type="line"/>
			<point x="119" y="215" type="line"/>
			<point x="146" y="158"/>
			<point x="187" y="98"/>
		</contour>
	</outline>
</glyph>
<glyph name="K2I.fina" format="2">
	<advance width="1015" height="1750"/>
	<note>
		u183A_1822.fin
	</note>
	<outline>
		<contour>
			<point x="577" y="-67" type="curve"/>
			<point x="650" y="-31" type="line"/>
			<point x="568" y="98"/>
			<point x="514" y="230"/>
			<point x="488" y="364" type="curve"/>
			<point x="795" y="364" type="line" smooth="yes"/>
			<point x="864" y="364"/>
			<point x="893" y="335"/>
			<point x="893" y="279" type="curve" smooth="yes"/>
			<point x="893" y="235"/>
			<point x="886" y="196"/>
			<point x="871" y="162" type="curve"/>
			<point x="945" y="162" type="line"/>
			<point x="962" y="198"/>
			<point x="970" y="237"/>
			<point x="970" y="279" type="curve" smooth="yes"/>
			<point x="970" y="389"/>
			<point x="912" y="444"/>
			<point x="795" y="444" type="curve" smooth="yes"/>
			<point x="478" y="444" type="line"/>
			<point x="462" y="575"/>
			<point x="429" y="668"/>
			<point x="368" y="720" type="curve" smooth="yes"/>
			<point x="336" y="747"/>
			<point x="294" y="760"/>
			<point x="242" y="760" type="curve" smooth="yes"/>
			<point x="137" y="760"/>
			<point x="63" y="698"/>
			<point x="27" y="591" type="curve" smooth="yes"/>
			<point x="9" y="540"/>
			<point x="0" y="482"/>
			<point x="0" y="419" type="curve" smooth="yes"/>
			<point x="0" y="96" type="line"/>
			<point x="66" y="96" type="line"/>
			<point x="74" y="215" type="line"/>
			<point x="101" y="158"/>
			<point x="142" y="98"/>
			<point x="199" y="35" type="curve"/>
			<point x="261" y="90" type="line"/>
			<point x="137" y="223"/>
			<point x="79" y="330"/>
			<point x="79" y="419" type="curve" smooth="yes"/>
			<point x="79" y="516"/>
			<point x="101" y="596"/>
			<point x="148" y="642" type="curve" smooth="yes"/>
			<point x="172" y="665"/>
			<point x="203" y="677"/>
			<point x="242" y="677" type="curve" smooth="yes"/>
			<point x="315" y="677"/>
			<point x="355" y="637"/>
			<point x="377" y="556" type="curve" smooth="yes"/>
			<point x="387" y="517"/>
			<point x="395" y="471"/>
			<point x="402" y="418" type="curve" smooth="yes"/>
			<point x="423" y="253"/>
			<point x="485" y="82"/>
		</contour>
	</outline>
</glyph>
<glyph name="K2I.isol" format="2">
	<advance width="1060" height="1750"/>
	<note>
		u183A_1822
	</note>
	<outline>
		<contour>
			<point x="622" y="-67" type="curve"/>
			<point x="695" y="-31" type="line"/>
			<point x="613" y="98"/>
			<point x="559" y="230"/>
			<point x="533" y="364" type="curve"/>
			<point x="840" y="364" type="line" smooth="yes"/>
			<point x="909" y="364"/>
			<point x="938" y="335"/>
			<point x="938" y="279" type="curve" smooth="yes"/>
			<point x="938" y="235"/>
			<point x="931" y="196"/>
			<point x="916" y="162" type="curve"/>
			<point x="990" y="162" type="line"/>
			<point x="1007" y="198"/>
			<point x="1015" y="237"/>
			<point x="1015" y="279" type="curve" smooth="yes"/>
			<point x="1015" y="389"/>
			<point x="957" y="444"/>
			<point x="840" y="444" type="curve" smooth="yes"/>
			<point x="523" y="444" type="line"/>
			<point x="507" y="575"/>
			<point x="474" y="668"/>
			<point x="413" y="720" type="curve" smooth="yes"/>
			<point x="381" y="747"/>
			<point x="339" y="760"/>
			<point x="287" y="760" type="curve" smooth="yes"/>
			<point x="182" y="760"/>
			<point x="108" y="698"/>
			<point x="72" y="591" type="curve" smooth="yes"/>
			<point x="54" y="540"/>
			<point x="45" y="482"/>
			<point x="45" y="419" type="curve" smooth="yes"/>
			<point x="45" y="96" type="line"/>
			<point x="111" y="96" type="line"/>
			<point x="119" y="215" type="line"/>
			<point x="146" y="158"/>
			<point x="187" y="98"/>
			<point x="244" y="35" type="curve"/>
			<point x="306" y="90" type="line"/>
			<point x="182" y="223"/>
			<point x="124" y="330"/>
			<point x="124" y="419" type="curve" smooth="yes"/>
			<point x="124" y="516"/>
			<point x="146" y="596"/>
			<point x="193" y="642" type="curve" smooth="yes"/>
			<point x="217" y="665"/>
			<point x="248" y="677"/>
			<point x="287" y="677" type="curve" smooth="yes"/>
			<point x="360" y="677"/>
			<point x="400" y="637"/>
			<point x="422" y="556" type="curve" smooth="yes"/>
			<point x="432" y="517"/>
			<point x="440" y="471"/>
			<point x="447" y="418" type="curve" smooth="yes"/>
			<point x="468" y="253"/>
			<point x="530" y="82"/>
		</contour>
	</outline>
</glyph>
<glyph name="K2O.fina" format="2">
	<advance width="704" height="1750"/>
	<note>
		u183A_1823.fin
	</note>
	<outline>
		<contour>
			<point x="179" y="35" type="curve"/>
			<point x="241" y="80" type="line"/>
			<point x="174" y="164"/>
			<point x="127" y="239"/>
			<point x="101" y="306" type="curve" smooth="yes"/>
			<point x="86" y="343"/>
			<point x="79" y="381"/>
			<point x="79" y="419" type="curve" smooth="yes"/>
			<point x="79" y="578"/>
			<point x="171" y="677"/>
			<point x="320" y="677" type="curve" smooth="yes"/>
			<point x="458" y="677"/>
			<point x="541" y="599"/>
			<point x="569" y="444" type="curve"/>
			<point x="322" y="444" type="line"/>
			<point x="298" y="399"/>
			<point x="284" y="331"/>
			<point x="284" y="275" type="curve" smooth="yes"/>
			<point x="284" y="130"/>
			<point x="349" y="40"/>
			<point x="474" y="40" type="curve" smooth="yes"/>
			<point x="546" y="40"/>
			<point x="604" y="87"/>
			<point x="636" y="167" type="curve" smooth="yes"/>
			<point x="651" y="206"/>
			<point x="659" y="252"/>
			<point x="659" y="303" type="curve" smooth="yes"/>
			<point x="659" y="440"/>
			<point x="633" y="549"/>
			<point x="580" y="628" type="curve" smooth="yes"/>
			<point x="522" y="716"/>
			<point x="435" y="760"/>
			<point x="320" y="760" type="curve" smooth="yes"/>
			<point x="192" y="760"/>
			<point x="92" y="700"/>
			<point x="40" y="595" type="curve" smooth="yes"/>
			<point x="13" y="542"/>
			<point x="0" y="480"/>
			<point x="0" y="408" type="curve" smooth="yes"/>
			<point x="0" y="76" type="line"/>
			<point x="66" y="76" type="line"/>
			<point x="74" y="192" type="line"/>
			<point x="97" y="148"/>
			<point x="132" y="96"/>
		</contour>
		<contour>
			<point x="467" y="123" type="curve" smooth="yes"/>
			<point x="398" y="123"/>
			<point x="363" y="174"/>
			<point x="363" y="275" type="curve" smooth="yes"/>
			<point x="363" y="310"/>
			<point x="368" y="339"/>
			<point x="379" y="364" type="curve"/>
			<point x="578" y="364" type="line"/>
			<point x="579" y="354"/>
			<point x="580" y="344"/>
			<point x="580" y="334" type="curve" smooth="yes"/>
			<point x="580" y="303" type="line" smooth="yes"/>
			<point x="580" y="186"/>
			<point x="536" y="123"/>
		</contour>
	</outline>
</glyph>
<glyph name="K2OI.init" format="2">
	<advance width="1176" height="1750"/>
	<note>
		u183A_1825.ini
	</note>
	<outline>
		<contour>
			<point x="988" y="-67" type="curve"/>
			<point x="1061" y="-31" type="line"/>
			<point x="988" y="98"/>
			<point x="933" y="229"/>
			<point x="894" y="364" type="curve"/>
			<point x="1206" y="364" type="line"/>
			<point x="1206" y="444" type="line"/>
			<point x="693" y="444" type="line"/>
			<point x="658" y="649"/>
			<point x="545" y="760"/>
			<point x="365" y="760" type="curve" smooth="yes"/>
			<point x="234" y="760"/>
			<point x="136" y="701"/>
			<point x="84" y="596" type="curve" smooth="yes"/>
			<point x="58" y="543"/>
			<point x="45" y="481"/>
			<point x="45" y="409" type="curve" smooth="yes"/>
			<point x="45" y="76" type="line"/>
			<point x="111" y="76" type="line"/>
			<point x="119" y="192" type="line"/>
			<point x="142" y="148"/>
			<point x="177" y="96"/>
			<point x="224" y="35" type="curve"/>
			<point x="286" y="80" type="line"/>
			<point x="217" y="166"/>
			<point x="171" y="241"/>
			<point x="146" y="304" type="curve" smooth="yes"/>
			<point x="131" y="342"/>
			<point x="124" y="380"/>
			<point x="124" y="419" type="curve" smooth="yes"/>
			<point x="124" y="578"/>
			<point x="216" y="677"/>
			<point x="365" y="677" type="curve" smooth="yes"/>
			<point x="503" y="677"/>
			<point x="586" y="599"/>
			<point x="614" y="444" type="curve"/>
			<point x="367" y="444" type="line"/>
			<point x="343" y="399"/>
			<point x="329" y="331"/>
			<point x="329" y="275" type="curve" smooth="yes"/>
			<point x="329" y="130"/>
			<point x="394" y="40"/>
			<point x="519" y="40" type="curve" smooth="yes"/>
			<point x="591" y="40"/>
			<point x="649" y="86"/>
			<point x="681" y="167" type="curve" smooth="yes"/>
			<point x="696" y="206"/>
			<point x="704" y="252"/>
			<point x="704" y="303" type="curve" smooth="yes"/>
			<point x="704" y="334" type="line" smooth="yes"/>
			<point x="704" y="344"/>
			<point x="703" y="354"/>
			<point x="702" y="364" type="curve"/>
			<point x="815" y="364" type="line"/>
			<point x="854" y="220"/>
			<point x="911" y="76"/>
		</contour>
		<contour>
			<point x="512" y="123" type="curve" smooth="yes"/>
			<point x="443" y="123"/>
			<point x="408" y="174"/>
			<point x="408" y="275" type="curve" smooth="yes"/>
			<point x="408" y="310"/>
			<point x="413" y="339"/>
			<point x="424" y="364" type="curve"/>
			<point x="623" y="364" type="line"/>
			<point x="624" y="354"/>
			<point x="625" y="344"/>
			<point x="625" y="334" type="curve" smooth="yes"/>
			<point x="625" y="303" type="line" smooth="yes"/>
			<point x="625" y="186"/>
			<point x="581" y="123"/>
		</contour>
	</outline>
</glyph>
<glyph name="K2U.init" format="2">
	<advance width="885" height="1750"/>
	<note>
		u183A_1823.ini
	</note>
	<outline>
		<contour>
			<point x="224" y="35" type="curve"/>
			<point x="286" y="80" type="line"/>
			<point x="221" y="164"/>
			<point x="174" y="233"/>
			<point x="147" y="304" type="curve" smooth="yes"/>
			<point x="132" y="342"/>
			<point x="124" y="380"/>
			<point x="124" y="419" type="curve" smooth="yes"/>
			<point x="124" y="578"/>
			<point x="216" y="677"/>
			<point x="365" y="677" type="curve" smooth="yes"/>
			<point x="503" y="677"/>
			<point x="586" y="599"/>
			<point x="614" y="444" type="curve"/>
			<point x="367" y="444" type="line"/>
			<point x="343" y="399"/>
			<point x="329" y="332"/>
			<point x="329" y="275" type="curve" smooth="yes"/>
			<point x="329" y="130"/>
			<point x="394" y="40"/>
			<point x="519" y="40" type="curve" smooth="yes"/>
			<point x="590" y="40"/>
			<point x="648" y="86"/>
			<point x="680" y="166" type="curve" smooth="yes"/>
			<point x="696" y="205"/>
			<point x="704" y="251"/>
			<point x="704" y="303" type="curve" smooth="yes"/>
			<point x="704" y="334" type="line" smooth="yes"/>
			<point x="704" y="344"/>
			<point x="703" y="354"/>
			<point x="702" y="364" type="curve"/>
			<point x="915" y="364" type="line"/>
			<point x="915" y="444" type="line"/>
			<point x="693" y="444" type="line"/>
			<point x="658" y="649"/>
			<point x="545" y="760"/>
			<point x="365" y="760" type="curve" smooth="yes"/>
			<point x="236" y="760"/>
			<point x="136" y="702"/>
			<point x="84" y="595" type="curve" smooth="yes"/>
			<point x="58" y="542"/>
			<point x="45" y="480"/>
			<point x="45" y="408" type="curve" smooth="yes"/>
			<point x="45" y="76" type="line"/>
			<point x="111" y="76" type="line"/>
			<point x="119" y="192" type="line"/>
			<point x="142" y="148"/>
			<point x="177" y="96"/>
		</contour>
		<contour>
			<point x="512" y="123" type="curve" smooth="yes"/>
			<point x="443" y="123"/>
			<point x="408" y="174"/>
			<point x="408" y="275" type="curve" smooth="yes"/>
			<point x="408" y="310"/>
			<point x="413" y="339"/>
			<point x="424" y="364" type="curve"/>
			<point x="623" y="364" type="line"/>
			<point x="624" y="354"/>
			<point x="625" y="344"/>
			<point x="625" y="334" type="curve" smooth="yes"/>
			<point x="625" y="303" type="line" smooth="yes"/>
			<point x="625" y="186"/>
			<point x="581" y="123"/>
		</contour>
	</outline>
</glyph>
<glyph name="K2UI.medi" format="2">
	<advance width="1131" height="1750"/>
	<note>
		u183A_1825.medV1
	</note>
	<outline>
		<contour>
			<point x="943" y="-67" type="curve"/>
			<point x="1016" y="-31" type="line"/>
			<point x="943" y="98"/>
			<point x="888" y="229"/>
			<point x="849" y="364" type="curve"/>
			<point x="1161" y="364" type="line"/>
			<point x="1161" y="444" type="line"/>
			<point x="648" y="444" type="line"/>
			<point x="613" y="649"/>
			<point x="500" y="760"/>
			<point x="320" y="760" type="curve" smooth="yes"/>
			<point x="189" y="760"/>
			<point x="91" y="701"/>
			<point x="39" y="596" type="curve" smooth="yes"/>
			<point x="13" y="543"/>
			<point x="0" y="481"/>
			<point x="0" y="409" type="curve" smooth="yes"/>
			<point x="0" y="76" type="line"/>
			<point x="66" y="76" type="line"/>
			<point x="74" y="192" type="line"/>
			<point x="97" y="148"/>
			<point x="132" y="96"/>
			<point x="179" y="35" type="curve"/>
			<point x="241" y="80" type="line"/>
			<point x="172" y="166"/>
			<point x="126" y="241"/>
			<point x="101" y="304" type="curve" smooth="yes"/>
			<point x="86" y="342"/>
			<point x="79" y="380"/>
			<point x="79" y="419" type="curve" smooth="yes"/>
			<point x="79" y="578"/>
			<point x="171" y="677"/>
			<point x="320" y="677" type="curve" smooth="yes"/>
			<point x="458" y="677"/>
			<point x="541" y="599"/>
			<point x="569" y="444" type="curve"/>
			<point x="322" y="444" type="line"/>
			<point x="298" y="399"/>
			<point x="284" y="331"/>
			<point x="284" y="275" type="curve" smooth="yes"/>
			<point x="284" y="130"/>
			<point x="349" y="40"/>
			<point x="474" y="40" type="curve" smooth="yes"/>
			<point x="546" y="40"/>
			<point x="604" y="86"/>
			<point x="636" y="167" type="curve" smooth="yes"/>
			<point x="651" y="206"/>
			<point x="659" y="252"/>
			<point x="659" y="303" type="curve" smooth="yes"/>
			<point x="659" y="334" type="line" smooth="yes"/>
			<point x="659" y="344"/>
			<point x="658" y="354"/>
			<point x="657" y="364" type="curve"/>
			<point x="770" y="364" type="line"/>
			<point x="809" y="220"/>
			<point x="866" y="76"/>
		</contour>
		<contour>
			<point x="467" y="123" type="curve" smooth="yes"/>
			<point x="398" y="123"/>
			<point x="363" y="174"/>
			<point x="363" y="275" type="curve" smooth="yes"/>
			<point x="363" y="310"/>
			<point x="368" y="339"/>
			<point x="379" y="364" type="curve"/>
			<point x="578" y="364" type="line"/>
			<point x="579" y="354"/>
			<point x="580" y="344"/>
			<point x="580" y="334" type="curve" smooth="yes"/>
			<point x="580" y="303" type="line" smooth="yes"/>
			<point x="580" y="186"/>
			<point x="536" y="123"/>
		</contour>
	</outline>
</glyph>
<glyph name="K2Ue.isol" format="2">
	<advance width="1135" height="1750"/>
	<note>
		u183A_1825.V1
	</note>
	<outline>
		<contour>
			<point x="224" y="35" type="curve"/>
			<point x="286" y="80" type="line"/>
			<point x="217" y="166"/>
			<point x="171" y="241"/>
			<point x="146" y="304" type="curve" smooth="yes"/>
			<point x="131" y="342"/>
			<point x="124" y="380"/>
			<point x="124" y="419" type="curve" smooth="yes"/>
			<point x="124" y="578"/>
			<point x="216" y="677"/>
			<point x="365" y="677" type="curve" smooth="yes"/>
			<point x="503" y="677"/>
			<point x="586" y="599"/>
			<point x="614" y="444" type="curve"/>
			<point x="367" y="444" type="line"/>
			<point x="343" y="399"/>
			<point x="329" y="331"/>
			<point x="329" y="275" type="curve" smooth="yes"/>
			<point x="329" y="130"/>
			<point x="394" y="40"/>
			<point x="518" y="40" type="curve" smooth="yes"/>
			<point x="590" y="40"/>
			<point x="648" y="86"/>
			<point x="680" y="166" type="curve" smooth="yes"/>
			<point x="696" y="205"/>
			<point x="704" y="251"/>
			<point x="704" y="302" type="curve" smooth="yes"/>
			<point x="704" y="334" type="line" smooth="yes"/>
			<point x="704" y="344"/>
			<point x="703" y="354"/>
			<point x="702" y="364" type="curve"/>
			<point x="915" y="364" type="line" smooth="yes"/>
			<point x="984" y="364"/>
			<point x="1013" y="335"/>
			<point x="1013" y="279" type="curve" smooth="yes"/>
			<point x="1013" y="235"/>
			<point x="1006" y="196"/>
			<point x="991" y="162" type="curve"/>
			<point x="1065" y="162" type="line"/>
			<point x="1082" y="196"/>
			<point x="1090" y="235"/>
			<point x="1090" y="279" type="curve" smooth="yes"/>
			<point x="1090" y="389"/>
			<point x="1032" y="444"/>
			<point x="915" y="444" type="curve" smooth="yes"/>
			<point x="693" y="444" type="line"/>
			<point x="658" y="649"/>
			<point x="545" y="760"/>
			<point x="365" y="760" type="curve" smooth="yes"/>
			<point x="236" y="760"/>
			<point x="136" y="702"/>
			<point x="84" y="595" type="curve" smooth="yes"/>
			<point x="58" y="542"/>
			<point x="45" y="480"/>
			<point x="45" y="408" type="curve" smooth="yes"/>
			<point x="45" y="76" type="line"/>
			<point x="111" y="76" type="line"/>
			<point x="119" y="192" type="line"/>
			<point x="142" y="148"/>
			<point x="177" y="96"/>
		</contour>
		<contour>
			<point x="512" y="123" type="curve" smooth="yes"/>
			<point x="443" y="123"/>
			<point x="408" y="174"/>
			<point x="408" y="275" type="curve" smooth="yes"/>
			<point x="408" y="310"/>
			<point x="413" y="339"/>
			<point x="424" y="364" type="curve"/>
			<point x="623" y="364" type="line"/>
			<point x="624" y="354"/>
			<point x="625" y="344"/>
			<point x="625" y="334" type="curve" smooth="yes"/>
			<point x="625" y="303" type="line" smooth="yes"/>
			<point x="625" y="186"/>
			<point x="581" y="123"/>
		</contour>
	</outline>
</glyph>
<glyph name="K2W.medi" format="2">
	<advance width="840" height="1750"/>
	<note>
		u183A_1827.med
	</note>
	<outline>
		<contour>
			<point x="692" y="-119" type="curve" smooth="yes"/>
			<point x="731" y="-119"/>
			<point x="759" y="-108"/>
			<point x="774" y="-85" type="curve"/>
			<point x="774" y="6" type="line"/>
			<point x="756" y="-22"/>
			<point x="729" y="-36"/>
			<point x="692" y="-36" type="curve" smooth="yes"/>
			<point x="657" y="-36"/>
			<point x="624" y="-11"/>
			<point x="594" y="41" type="curve" smooth="yes"/>
			<point x="580" y="64"/>
			<point x="567" y="89"/>
			<point x="554" y="117" type="curve" smooth="yes"/>
			<point x="519" y="193"/>
			<point x="496" y="275"/>
			<point x="485" y="364" type="curve"/>
			<point x="870" y="364" type="line"/>
			<point x="870" y="444" type="line"/>
			<point x="476" y="444" type="line"/>
			<point x="460" y="575"/>
			<point x="428" y="667"/>
			<point x="368" y="719" type="curve" smooth="yes"/>
			<point x="336" y="746"/>
			<point x="294" y="760"/>
			<point x="242" y="760" type="curve" smooth="yes"/>
			<point x="137" y="760"/>
			<point x="63" y="698"/>
			<point x="27" y="591" type="curve" smooth="yes"/>
			<point x="9" y="540"/>
			<point x="0" y="482"/>
			<point x="0" y="419" type="curve" smooth="yes"/>
			<point x="0" y="96" type="line"/>
			<point x="66" y="96" type="line"/>
			<point x="74" y="215" type="line"/>
			<point x="101" y="158"/>
			<point x="142" y="98"/>
			<point x="199" y="35" type="curve"/>
			<point x="261" y="90" type="line"/>
			<point x="137" y="223"/>
			<point x="79" y="330"/>
			<point x="79" y="419" type="curve" smooth="yes"/>
			<point x="79" y="516"/>
			<point x="101" y="596"/>
			<point x="148" y="642" type="curve" smooth="yes"/>
			<point x="172" y="665"/>
			<point x="203" y="677"/>
			<point x="242" y="677" type="curve" smooth="yes"/>
			<point x="314" y="677"/>
			<point x="353" y="635"/>
			<point x="376" y="553" type="curve" smooth="yes"/>
			<point x="387" y="514"/>
			<point x="395" y="469"/>
			<point x="400" y="418" type="curve" smooth="yes"/>
			<point x="415" y="280"/>
			<point x="449" y="154"/>
			<point x="502" y="41" type="curve" smooth="yes"/>
			<point x="553" y="-67"/>
			<point x="604" y="-119"/>
		</contour>
	</outline>
</glyph>
<glyph name="KA.isol" format="2">
	<advance width="1021" height="1750"/>
	<note>
		u183B_1820
	</note>
	<outline>
		<contour>
			<point x="715" y="-264" type="curve"/>
			<point x="797" y="-264" type="line"/>
			<point x="783" y="-238"/>
			<point x="776" y="-212"/>
			<point x="776" y="-187" type="curve" smooth="yes"/>
			<point x="776" y="-130"/>
			<point x="795" y="-90"/>
			<point x="843" y="-31" type="curve" smooth="yes"/>
			<point x="928" y="78"/>
			<point x="976" y="162"/>
			<point x="976" y="245" type="curve" smooth="yes"/>
			<point x="976" y="374"/>
			<point x="897" y="444"/>
			<point x="745" y="444" type="curve" smooth="yes"/>
			<point x="503" y="444" type="line"/>
			<point x="489" y="565"/>
			<point x="453" y="648"/>
			<point x="396" y="692" type="curve" smooth="yes"/>
			<point x="365" y="715"/>
			<point x="324" y="727"/>
			<point x="274" y="727" type="curve" smooth="yes"/>
			<point x="182" y="727"/>
			<point x="112" y="674"/>
			<point x="74" y="582" type="curve" smooth="yes"/>
			<point x="55" y="535"/>
			<point x="45" y="480"/>
			<point x="45" y="417" type="curve" smooth="yes"/>
			<point x="45" y="299"/>
			<point x="88" y="174"/>
			<point x="174" y="42" type="curve"/>
			<point x="245" y="85" type="line"/>
			<point x="177" y="185"/>
			<point x="135" y="269"/>
			<point x="126" y="364" type="curve"/>
			<point x="285" y="364" type="line"/>
			<point x="285" y="444" type="line"/>
			<point x="124" y="444" type="line"/>
			<point x="131" y="576"/>
			<point x="186" y="644"/>
			<point x="274" y="644" type="curve" smooth="yes"/>
			<point x="351" y="644"/>
			<point x="391" y="599"/>
			<point x="411" y="511" type="curve" smooth="yes"/>
			<point x="420" y="469"/>
			<point x="426" y="420"/>
			<point x="430" y="363" type="curve" smooth="yes"/>
			<point x="449" y="96" type="line"/>
			<point x="515" y="96" type="line"/>
			<point x="534" y="364" type="line"/>
			<point x="744" y="364" type="line" smooth="yes"/>
			<point x="851" y="364"/>
			<point x="898" y="326"/>
			<point x="898" y="243" type="curve" smooth="yes"/>
			<point x="898" y="180"/>
			<point x="867" y="127"/>
			<point x="791" y="28" type="curve" smooth="yes"/>
			<point x="728" y="-55"/>
			<point x="696" y="-115"/>
			<point x="696" y="-187" type="curve" smooth="yes"/>
			<point x="696" y="-217"/>
			<point x="702" y="-243"/>
		</contour>
	</outline>
</glyph>
<glyph name="KI.fina" format="2">
	<advance width="1012" height="1750"/>
	<note>
		u183B_1888.fin
	</note>
	<outline>
		<contour>
			<point x="574" y="-67" type="curve"/>
			<point x="647" y="-31" type="line"/>
			<point x="565" y="98"/>
			<point x="511" y="230"/>
			<point x="485" y="364" type="curve"/>
			<point x="792" y="364" type="line" smooth="yes"/>
			<point x="861" y="364"/>
			<point x="890" y="335"/>
			<point x="890" y="279" type="curve" smooth="yes"/>
			<point x="890" y="235"/>
			<point x="883" y="196"/>
			<point x="868" y="162" type="curve"/>
			<point x="942" y="162" type="line"/>
			<point x="959" y="198"/>
			<point x="967" y="237"/>
			<point x="967" y="279" type="curve" smooth="yes"/>
			<point x="967" y="389"/>
			<point x="909" y="444"/>
			<point x="792" y="444" type="curve" smooth="yes"/>
			<point x="475" y="444" type="line"/>
			<point x="459" y="579"/>
			<point x="423" y="671"/>
			<point x="366" y="720" type="curve" smooth="yes"/>
			<point x="334" y="747"/>
			<point x="292" y="760"/>
			<point x="240" y="760" type="curve" smooth="yes"/>
			<point x="136" y="760"/>
			<point x="61" y="696"/>
			<point x="24" y="590" type="curve" smooth="yes"/>
			<point x="6" y="538"/>
			<point x="-3" y="480"/>
			<point x="-3" y="417" type="curve" smooth="yes"/>
			<point x="-3" y="299"/>
			<point x="40" y="174"/>
			<point x="126" y="42" type="curve"/>
			<point x="197" y="85" type="line"/>
			<point x="129" y="185"/>
			<point x="87" y="269"/>
			<point x="78" y="364" type="curve"/>
			<point x="237" y="364" type="line"/>
			<point x="237" y="444" type="line"/>
			<point x="76" y="444" type="line"/>
			<point x="80" y="533"/>
			<point x="104" y="605"/>
			<point x="149" y="646" type="curve" smooth="yes"/>
			<point x="172" y="667"/>
			<point x="202" y="677"/>
			<point x="239" y="677" type="curve" smooth="yes"/>
			<point x="312" y="677"/>
			<point x="350" y="637"/>
			<point x="373" y="556" type="curve" smooth="yes"/>
			<point x="384" y="517"/>
			<point x="392" y="471"/>
			<point x="399" y="418" type="curve" smooth="yes"/>
			<point x="422" y="251"/>
			<point x="482" y="84"/>
		</contour>
	</outline>
</glyph>
<glyph name="KI.init" format="2">
	<advance width="810" height="1750"/>
	<note>
		u183B_1888.ini
	</note>
	<outline>
		<contour>
			<point x="622" y="-67" type="curve"/>
			<point x="695" y="-31" type="line"/>
			<point x="613" y="98"/>
			<point x="559" y="230"/>
			<point x="533" y="364" type="curve"/>
			<point x="840" y="364" type="line"/>
			<point x="840" y="444" type="line"/>
			<point x="523" y="444" type="line"/>
			<point x="507" y="579"/>
			<point x="471" y="671"/>
			<point x="414" y="720" type="curve" smooth="yes"/>
			<point x="382" y="747"/>
			<point x="340" y="760"/>
			<point x="287" y="760" type="curve" smooth="yes"/>
			<point x="183" y="760"/>
			<point x="109" y="697"/>
			<point x="72" y="590" type="curve" smooth="yes"/>
			<point x="54" y="538"/>
			<point x="45" y="480"/>
			<point x="45" y="417" type="curve" smooth="yes"/>
			<point x="45" y="299"/>
			<point x="88" y="174"/>
			<point x="174" y="42" type="curve"/>
			<point x="245" y="85" type="line"/>
			<point x="177" y="185"/>
			<point x="135" y="269"/>
			<point x="126" y="364" type="curve"/>
			<point x="285" y="364" type="line"/>
			<point x="285" y="444" type="line"/>
			<point x="124" y="444" type="line"/>
			<point x="128" y="533"/>
			<point x="152" y="605"/>
			<point x="197" y="646" type="curve" smooth="yes"/>
			<point x="220" y="667"/>
			<point x="250" y="677"/>
			<point x="287" y="677" type="curve" smooth="yes"/>
			<point x="360" y="677"/>
			<point x="399" y="635"/>
			<point x="422" y="554" type="curve" smooth="yes"/>
			<point x="433" y="515"/>
			<point x="441" y="470"/>
			<point x="447" y="418" type="curve" smooth="yes"/>
			<point x="467" y="255"/>
			<point x="530" y="85"/>
		</contour>
	</outline>
</glyph>
<glyph name="KI.medi" format="2">
	<advance width="762" height="1750"/>
	<note>
		u183B_1888.med
	</note>
	<outline>
		<contour>
			<point x="574" y="-67" type="curve"/>
			<point x="647" y="-31" type="line"/>
			<point x="565" y="98"/>
			<point x="511" y="230"/>
			<point x="485" y="364" type="curve"/>
			<point x="792" y="364" type="line"/>
			<point x="792" y="444" type="line"/>
			<point x="475" y="444" type="line"/>
			<point x="459" y="579"/>
			<point x="423" y="671"/>
			<point x="366" y="720" type="curve" smooth="yes"/>
			<point x="334" y="747"/>
			<point x="292" y="760"/>
			<point x="239" y="760" type="curve" smooth="yes"/>
			<point x="135" y="760"/>
			<point x="61" y="697"/>
			<point x="24" y="590" type="curve" smooth="yes"/>
			<point x="6" y="538"/>
			<point x="-3" y="480"/>
			<point x="-3" y="417" type="curve" smooth="yes"/>
			<point x="-3" y="299"/>
			<point x="40" y="174"/>
			<point x="126" y="42" type="curve"/>
			<point x="197" y="85" type="line"/>
			<point x="129" y="185"/>
			<point x="87" y="269"/>
			<point x="78" y="364" type="curve"/>
			<point x="237" y="364" type="line"/>
			<point x="237" y="444" type="line"/>
			<point x="76" y="444" type="line"/>
			<point x="80" y="533"/>
			<point x="104" y="605"/>
			<point x="149" y="646" type="curve" smooth="yes"/>
			<point x="172" y="667"/>
			<point x="202" y="677"/>
			<point x="239" y="677" type="curve" smooth="yes"/>
			<point x="312" y="677"/>
			<point x="351" y="635"/>
			<point x="374" y="554" type="curve" smooth="yes"/>
			<point x="385" y="515"/>
			<point x="393" y="470"/>
			<point x="399" y="418" type="curve" smooth="yes"/>
			<point x="419" y="255"/>
			<point x="482" y="85"/>
		</contour>
	</outline>
</glyph>
<glyph name="KO.isol" format="2">
	<advance width="749" height="1750"/>
	<note>
		u183B_1824
	</note>
	<outline>
		<contour>
			<point x="519" y="40" type="curve" smooth="yes"/>
			<point x="590" y="40"/>
			<point x="648" y="86"/>
			<point x="680" y="167" type="curve" smooth="yes"/>
			<point x="696" y="206"/>
			<point x="704" y="252"/>
			<point x="704" y="303" type="curve" smooth="yes"/>
			<point x="704" y="440"/>
			<point x="678" y="549"/>
			<point x="625" y="628" type="curve" smooth="yes"/>
			<point x="567" y="716"/>
			<point x="480" y="760"/>
			<point x="365" y="760" type="curve" smooth="yes"/>
			<point x="237" y="760"/>
			<point x="137" y="699"/>
			<point x="85" y="592" type="curve" smooth="yes"/>
			<point x="58" y="539"/>
			<point x="45" y="477"/>
			<point x="45" y="408" type="curve" smooth="yes"/>
			<point x="45" y="293"/>
			<point x="85" y="155"/>
			<point x="146" y="42" type="curve"/>
			<point x="219" y="73" type="line"/>
			<point x="164" y="174"/>
			<point x="133" y="271"/>
			<point x="126" y="364" type="curve"/>
			<point x="263" y="364" type="line"/>
			<point x="263" y="444" type="line"/>
			<point x="125" y="444" type="line"/>
			<point x="138" y="588"/>
			<point x="228" y="677"/>
			<point x="365" y="677" type="curve" smooth="yes"/>
			<point x="503" y="677"/>
			<point x="586" y="599"/>
			<point x="614" y="444" type="curve"/>
			<point x="367" y="444" type="line"/>
			<point x="343" y="399"/>
			<point x="329" y="331"/>
			<point x="329" y="275" type="curve" smooth="yes"/>
			<point x="329" y="128"/>
			<point x="394" y="40"/>
		</contour>
		<contour>
			<point x="512" y="123" type="curve" smooth="yes"/>
			<point x="443" y="123"/>
			<point x="408" y="174"/>
			<point x="408" y="275" type="curve" smooth="yes"/>
			<point x="408" y="310"/>
			<point x="413" y="339"/>
			<point x="424" y="364" type="curve"/>
			<point x="623" y="364" type="line"/>
			<point x="624" y="354"/>
			<point x="625" y="344"/>
			<point x="625" y="334" type="curve" smooth="yes"/>
			<point x="625" y="303" type="line" smooth="yes"/>
			<point x="625" y="186"/>
			<point x="581" y="123"/>
		</contour>
	</outline>
</glyph>
<glyph name="KO.medi" format="2">
	<advance width="838" height="1750"/>
	<note>
		u183B_1824.med
	</note>
	<outline>
		<contour>
			<point x="472" y="40" type="curve" smooth="yes"/>
			<point x="543" y="40"/>
			<point x="600" y="86"/>
			<point x="633" y="165" type="curve" smooth="yes"/>
			<point x="649" y="204"/>
			<point x="657" y="250"/>
			<point x="657" y="303" type="curve" smooth="yes"/>
			<point x="657" y="334" type="line" smooth="yes"/>
			<point x="657" y="344"/>
			<point x="656" y="354"/>
			<point x="655" y="364" type="curve"/>
			<point x="868" y="364" type="line"/>
			<point x="868" y="444" type="line"/>
			<point x="646" y="444" type="line"/>
			<point x="611" y="649"/>
			<point x="498" y="760"/>
			<point x="318" y="760" type="curve" smooth="yes"/>
			<point x="190" y="760"/>
			<point x="90" y="699"/>
			<point x="38" y="592" type="curve" smooth="yes"/>
			<point x="11" y="539"/>
			<point x="-2" y="477"/>
			<point x="-2" y="408" type="curve" smooth="yes"/>
			<point x="-2" y="293"/>
			<point x="38" y="155"/>
			<point x="99" y="42" type="curve"/>
			<point x="172" y="73" type="line"/>
			<point x="117" y="174"/>
			<point x="86" y="271"/>
			<point x="79" y="364" type="curve"/>
			<point x="216" y="364" type="line"/>
			<point x="216" y="444" type="line"/>
			<point x="78" y="444" type="line"/>
			<point x="91" y="589"/>
			<point x="181" y="677"/>
			<point x="318" y="677" type="curve" smooth="yes"/>
			<point x="456" y="677"/>
			<point x="539" y="599"/>
			<point x="567" y="444" type="curve"/>
			<point x="320" y="444" type="line"/>
			<point x="296" y="399"/>
			<point x="282" y="332"/>
			<point x="282" y="275" type="curve" smooth="yes"/>
			<point x="282" y="130"/>
			<point x="347" y="40"/>
		</contour>
		<contour>
			<point x="465" y="123" type="curve" smooth="yes"/>
			<point x="396" y="123"/>
			<point x="361" y="174"/>
			<point x="361" y="275" type="curve" smooth="yes"/>
			<point x="361" y="310"/>
			<point x="366" y="339"/>
			<point x="377" y="364" type="curve"/>
			<point x="576" y="364" type="line"/>
			<point x="577" y="354"/>
			<point x="578" y="344"/>
			<point x="578" y="334" type="curve" smooth="yes"/>
			<point x="578" y="303" type="line" smooth="yes"/>
			<point x="578" y="186"/>
			<point x="534" y="123"/>
		</contour>
	</outline>
</glyph>
<glyph name="KU.init" format="2">
	<advance width="885" height="1750"/>
	<note>
		u183B_1824.ini
	</note>
	<outline>
		<contour>
			<point x="519" y="40" type="curve" smooth="yes"/>
			<point x="590" y="40"/>
			<point x="647" y="86"/>
			<point x="680" y="165" type="curve" smooth="yes"/>
			<point x="696" y="204"/>
			<point x="704" y="250"/>
			<point x="704" y="303" type="curve" smooth="yes"/>
			<point x="704" y="334" type="line" smooth="yes"/>
			<point x="704" y="344"/>
			<point x="703" y="354"/>
			<point x="702" y="364" type="curve"/>
			<point x="915" y="364" type="line"/>
			<point x="915" y="444" type="line"/>
			<point x="693" y="444" type="line"/>
			<point x="658" y="649"/>
			<point x="545" y="760"/>
			<point x="365" y="760" type="curve" smooth="yes"/>
			<point x="237" y="760"/>
			<point x="137" y="699"/>
			<point x="85" y="592" type="curve" smooth="yes"/>
			<point x="58" y="539"/>
			<point x="45" y="477"/>
			<point x="45" y="408" type="curve" smooth="yes"/>
			<point x="45" y="293"/>
			<point x="85" y="155"/>
			<point x="146" y="42" type="curve"/>
			<point x="219" y="73" type="line"/>
			<point x="164" y="174"/>
			<point x="133" y="271"/>
			<point x="126" y="364" type="curve"/>
			<point x="263" y="364" type="line"/>
			<point x="263" y="444" type="line"/>
			<point x="125" y="444" type="line"/>
			<point x="138" y="589"/>
			<point x="228" y="677"/>
			<point x="365" y="677" type="curve" smooth="yes"/>
			<point x="503" y="677"/>
			<point x="586" y="599"/>
			<point x="614" y="444" type="curve"/>
			<point x="367" y="444" type="line"/>
			<point x="343" y="399"/>
			<point x="329" y="332"/>
			<point x="329" y="275" type="curve" smooth="yes"/>
			<point x="329" y="130"/>
			<point x="394" y="40"/>
		</contour>
		<contour>
			<point x="512" y="123" type="curve" smooth="yes"/>
			<point x="443" y="123"/>
			<point x="408" y="174"/>
			<point x="408" y="275" type="curve" smooth="yes"/>
			<point x="408" y="310"/>
			<point x="413" y="339"/>
			<point x="424" y="364" type="curve"/>
			<point x="623" y="364" type="line"/>
			<point x="624" y="354"/>
			<point x="625" y="344"/>
			<point x="625" y="334" type="curve" smooth="yes"/>
			<point x="625" y="303" type="line" smooth="yes"/>
			<point x="625" y="186"/>
			<point x="581" y="123"/>
		</contour>
	</outline>
</glyph>
<glyph name="KUI.medi" format="2">
	<advance width="1159" height="1750"/>
	<note>
		u183B_1825.medV1
	</note>
	<outline>
		<contour>
			<point x="941" y="-67" type="curve"/>
			<point x="1014" y="-31" type="line"/>
			<point x="941" y="98"/>
			<point x="886" y="229"/>
			<point x="847" y="364" type="curve"/>
			<point x="1159" y="364" type="line"/>
			<point x="1159" y="444" type="line"/>
			<point x="646" y="444" type="line"/>
			<point x="611" y="649"/>
			<point x="498" y="760"/>
			<point x="318" y="760" type="curve" smooth="yes"/>
			<point x="190" y="760"/>
			<point x="90" y="699"/>
			<point x="38" y="592" type="curve" smooth="yes"/>
			<point x="11" y="539"/>
			<point x="-2" y="477"/>
			<point x="-2" y="408" type="curve" smooth="yes"/>
			<point x="-2" y="293"/>
			<point x="38" y="155"/>
			<point x="99" y="42" type="curve"/>
			<point x="172" y="73" type="line"/>
			<point x="117" y="174"/>
			<point x="86" y="271"/>
			<point x="79" y="364" type="curve"/>
			<point x="216" y="364" type="line"/>
			<point x="216" y="444" type="line"/>
			<point x="78" y="444" type="line"/>
			<point x="91" y="589"/>
			<point x="181" y="677"/>
			<point x="318" y="677" type="curve" smooth="yes"/>
			<point x="456" y="677"/>
			<point x="539" y="599"/>
			<point x="567" y="444" type="curve"/>
			<point x="320" y="444" type="line"/>
			<point x="296" y="399"/>
			<point x="282" y="331"/>
			<point x="282" y="275" type="curve" smooth="yes"/>
			<point x="282" y="130"/>
			<point x="347" y="40"/>
			<point x="472" y="40" type="curve" smooth="yes"/>
			<point x="544" y="40"/>
			<point x="602" y="87"/>
			<point x="634" y="167" type="curve" smooth="yes"/>
			<point x="649" y="206"/>
			<point x="657" y="252"/>
			<point x="657" y="303" type="curve" smooth="yes"/>
			<point x="657" y="334" type="line" smooth="yes"/>
			<point x="657" y="344"/>
			<point x="656" y="354"/>
			<point x="655" y="364" type="curve"/>
			<point x="768" y="364" type="line"/>
			<point x="807" y="220"/>
			<point x="864" y="76"/>
		</contour>
		<contour>
			<point x="465" y="123" type="curve" smooth="yes"/>
			<point x="396" y="123"/>
			<point x="361" y="174"/>
			<point x="361" y="275" type="curve" smooth="yes"/>
			<point x="361" y="310"/>
			<point x="366" y="339"/>
			<point x="377" y="364" type="curve"/>
			<point x="576" y="364" type="line"/>
			<point x="577" y="354"/>
			<point x="578" y="344"/>
			<point x="578" y="334" type="curve" smooth="yes"/>
			<point x="578" y="303" type="line" smooth="yes"/>
			<point x="578" y="186"/>
			<point x="534" y="123"/>
		</contour>
	</outline>
</glyph>
<glyph name="KUe.fina" format="2">
	<advance width="1088" height="1750"/>
	<note>
		u183B_1826.finV1
	</note>
	<outline>
		<contour>
			<point x="471" y="40" type="curve" smooth="yes"/>
			<point x="543" y="40"/>
			<point x="602" y="86"/>
			<point x="634" y="167" type="curve" smooth="yes"/>
			<point x="649" y="206"/>
			<point x="657" y="252"/>
			<point x="657" y="303" type="curve" smooth="yes"/>
			<point x="657" y="334" type="line" smooth="yes"/>
			<point x="657" y="344"/>
			<point x="656" y="354"/>
			<point x="655" y="364" type="curve"/>
			<point x="868" y="364" type="line" smooth="yes"/>
			<point x="937" y="364"/>
			<point x="966" y="335"/>
			<point x="966" y="279" type="curve" smooth="yes"/>
			<point x="966" y="235"/>
			<point x="959" y="196"/>
			<point x="944" y="162" type="curve"/>
			<point x="1018" y="162" type="line"/>
			<point x="1035" y="196"/>
			<point x="1043" y="235"/>
			<point x="1043" y="279" type="curve" smooth="yes"/>
			<point x="1043" y="389"/>
			<point x="985" y="444"/>
			<point x="868" y="444" type="curve" smooth="yes"/>
			<point x="646" y="444" type="line"/>
			<point x="611" y="649"/>
			<point x="498" y="760"/>
			<point x="318" y="760" type="curve" smooth="yes"/>
			<point x="190" y="760"/>
			<point x="90" y="699"/>
			<point x="38" y="592" type="curve" smooth="yes"/>
			<point x="11" y="539"/>
			<point x="-2" y="478"/>
			<point x="-2" y="408" type="curve" smooth="yes"/>
			<point x="-2" y="293"/>
			<point x="38" y="155"/>
			<point x="99" y="42" type="curve"/>
			<point x="172" y="73" type="line"/>
			<point x="117" y="174"/>
			<point x="86" y="271"/>
			<point x="79" y="364" type="curve"/>
			<point x="216" y="364" type="line"/>
			<point x="216" y="444" type="line"/>
			<point x="78" y="444" type="line"/>
			<point x="91" y="588"/>
			<point x="181" y="677"/>
			<point x="318" y="677" type="curve" smooth="yes"/>
			<point x="456" y="677"/>
			<point x="539" y="599"/>
			<point x="567" y="444" type="curve"/>
			<point x="320" y="444" type="line"/>
			<point x="296" y="399"/>
			<point x="282" y="331"/>
			<point x="282" y="275" type="curve" smooth="yes"/>
			<point x="282" y="130"/>
			<point x="347" y="40"/>
		</contour>
		<contour>
			<point x="465" y="123" type="curve" smooth="yes"/>
			<point x="396" y="123"/>
			<point x="361" y="174"/>
			<point x="361" y="275" type="curve" smooth="yes"/>
			<point x="361" y="310"/>
			<point x="366" y="339"/>
			<point x="377" y="364" type="curve"/>
			<point x="576" y="364" type="line"/>
			<point x="577" y="354"/>
			<point x="578" y="344"/>
			<point x="578" y="334" type="curve" smooth="yes"/>
			<point x="578" y="303" type="line" smooth="yes"/>
			<point x="578" y="186"/>
			<point x="534" y="123"/>
		</contour>
	</outline>
</glyph>
<glyph name="KW.init" format="2">
	<advance width="885" height="1750"/>
	<note>
		u183B_1827.ini
	</note>
	<outline>
		<contour>
			<point x="737" y="-119" type="curve" smooth="yes"/>
			<point x="776" y="-119"/>
			<point x="804" y="-108"/>
			<point x="819" y="-85" type="curve"/>
			<point x="819" y="6" type="line"/>
			<point x="801" y="-22"/>
			<point x="774" y="-36"/>
			<point x="737" y="-36" type="curve" smooth="yes"/>
			<point x="702" y="-36"/>
			<point x="669" y="-11"/>
			<point x="639" y="41" type="curve" smooth="yes"/>
			<point x="625" y="64"/>
			<point x="612" y="89"/>
			<point x="599" y="117" type="curve" smooth="yes"/>
			<point x="564" y="193"/>
			<point x="541" y="275"/>
			<point x="530" y="364" type="curve"/>
			<point x="915" y="364" type="line"/>
			<point x="915" y="444" type="line"/>
			<point x="521" y="444" type="line"/>
			<point x="505" y="575"/>
			<point x="473" y="667"/>
			<point x="413" y="719" type="curve" smooth="yes"/>
			<point x="381" y="746"/>
			<point x="339" y="760"/>
			<point x="287" y="760" type="curve" smooth="yes"/>
			<point x="183" y="760"/>
			<point x="109" y="697"/>
			<point x="72" y="590" type="curve" smooth="yes"/>
			<point x="54" y="538"/>
			<point x="45" y="480"/>
			<point x="45" y="417" type="curve" smooth="yes"/>
			<point x="45" y="299"/>
			<point x="88" y="174"/>
			<point x="174" y="42" type="curve"/>
			<point x="245" y="85" type="line"/>
			<point x="177" y="185"/>
			<point x="135" y="269"/>
			<point x="126" y="364" type="curve"/>
			<point x="285" y="364" type="line"/>
			<point x="285" y="444" type="line"/>
			<point x="124" y="444" type="line"/>
			<point x="128" y="533"/>
			<point x="152" y="605"/>
			<point x="197" y="646" type="curve" smooth="yes"/>
			<point x="220" y="667"/>
			<point x="250" y="677"/>
			<point x="287" y="677" type="curve" smooth="yes"/>
			<point x="359" y="677"/>
			<point x="398" y="635"/>
			<point x="421" y="553" type="curve" smooth="yes"/>
			<point x="432" y="514"/>
			<point x="440" y="469"/>
			<point x="445" y="418" type="curve" smooth="yes"/>
			<point x="460" y="280"/>
			<point x="494" y="154"/>
			<point x="547" y="41" type="curve" smooth="yes"/>
			<point x="598" y="-67"/>
			<point x="649" y="-119"/>
		</contour>
	</outline>
</glyph>
<glyph name="PA.medi" format="2">
	<advance width="785" height="1750"/>
	<note>
		u182B_1820.med
	</note>
	<outline>
		<contour>
			<point x="17" y="122" type="curve"/>
			<point x="17" y="42" type="line"/>
			<point x="61" y="67"/>
			<point x="109" y="73"/>
			<point x="186" y="73" type="curve" smooth="yes"/>
			<point x="262" y="73"/>
			<point x="319" y="108"/>
			<point x="350" y="171" type="curve" smooth="yes"/>
			<point x="365" y="202"/>
			<point x="373" y="236"/>
			<point x="373" y="275" type="curve" smooth="yes"/>
			<point x="373" y="332"/>
			<point x="366" y="388"/>
			<point x="352" y="444" type="curve"/>
			<point x="79" y="444" type="line"/>
			<point x="80" y="543"/>
			<point x="112" y="622"/>
			<point x="172" y="666" type="curve" smooth="yes"/>
			<point x="202" y="688"/>
			<point x="240" y="699"/>
			<point x="285" y="699" type="curve" smooth="yes"/>
			<point x="414" y="699"/>
			<point x="485" y="588"/>
			<point x="501" y="364" type="curve" smooth="yes"/>
			<point x="520" y="96" type="line"/>
			<point x="586" y="96" type="line"/>
			<point x="605" y="364" type="line"/>
			<point x="815" y="364" type="line"/>
			<point x="815" y="444" type="line"/>
			<point x="573" y="444" type="line"/>
			<point x="541" y="667"/>
			<point x="444" y="782"/>
			<point x="285" y="782" type="curve" smooth="yes"/>
			<point x="160" y="782"/>
			<point x="74" y="716"/>
			<point x="31" y="601" type="curve" smooth="yes"/>
			<point x="10" y="544"/>
			<point x="0" y="480"/>
			<point x="0" y="408" type="curve" smooth="yes"/>
			<point x="0" y="364" type="line"/>
			<point x="284" y="364" type="line"/>
			<point x="291" y="344"/>
			<point x="294" y="314"/>
			<point x="294" y="273" type="curve" smooth="yes"/>
			<point x="294" y="201"/>
			<point x="253" y="153"/>
			<point x="186" y="153" type="curve" smooth="yes"/>
			<point x="109" y="153"/>
			<point x="56" y="147"/>
		</contour>
	</outline>
</glyph>
<glyph name="PI.fina" format="2">
	<advance width="1100" height="1750"/>
	<note>
		u182B_1822.fin
	</note>
	<outline>
		<contour>
			<point x="662" y="-67" type="curve"/>
			<point x="735" y="-31" type="line"/>
			<point x="651" y="121"/>
			<point x="598" y="253"/>
			<point x="575" y="364" type="curve"/>
			<point x="880" y="364" type="line" smooth="yes"/>
			<point x="949" y="364"/>
			<point x="978" y="335"/>
			<point x="978" y="279" type="curve" smooth="yes"/>
			<point x="978" y="234"/>
			<point x="971" y="195"/>
			<point x="956" y="162" type="curve"/>
			<point x="1030" y="162" type="line"/>
			<point x="1047" y="198"/>
			<point x="1055" y="237"/>
			<point x="1055" y="279" type="curve" smooth="yes"/>
			<point x="1055" y="389"/>
			<point x="997" y="444"/>
			<point x="880" y="444" type="curve" smooth="yes"/>
			<point x="560" y="444" type="line"/>
			<point x="536" y="585"/>
			<point x="493" y="686"/>
			<point x="420" y="740" type="curve" smooth="yes"/>
			<point x="382" y="768"/>
			<point x="333" y="782"/>
			<point x="274" y="782" type="curve" smooth="yes"/>
			<point x="153" y="782"/>
			<point x="70" y="715"/>
			<point x="30" y="600" type="curve" smooth="yes"/>
			<point x="10" y="543"/>
			<point x="0" y="479"/>
			<point x="0" y="408" type="curve" smooth="yes"/>
			<point x="0" y="364" type="line"/>
			<point x="284" y="364" type="line"/>
			<point x="291" y="344"/>
			<point x="294" y="314"/>
			<point x="294" y="275" type="curve" smooth="yes"/>
			<point x="294" y="202"/>
			<point x="253" y="153"/>
			<point x="186" y="153" type="curve" smooth="yes"/>
			<point x="107" y="153"/>
			<point x="56" y="147"/>
			<point x="17" y="122" type="curve"/>
			<point x="17" y="42" type="line"/>
			<point x="61" y="67"/>
			<point x="109" y="73"/>
			<point x="186" y="73" type="curve" smooth="yes"/>
			<point x="262" y="73"/>
			<point x="319" y="108"/>
			<point x="350" y="171" type="curve" smooth="yes"/>
			<point x="365" y="202"/>
			<point x="373" y="236"/>
			<point x="373" y="275" type="curve" smooth="yes"/>
			<point x="373" y="332"/>
			<point x="366" y="388"/>
			<point x="352" y="444" type="curve"/>
			<point x="79" y="444" type="line"/>
			<point x="80" y="541"/>
			<point x="110" y="620"/>
			<point x="166" y="665" type="curve" smooth="yes"/>
			<point x="195" y="688"/>
			<point x="231" y="699"/>
			<point x="274" y="699" type="curve" smooth="yes"/>
			<point x="387" y="699"/>
			<point x="454" y="606"/>
			<point x="485" y="418" type="curve" smooth="yes"/>
			<point x="501" y="325"/>
			<point x="522" y="244"/>
			<point x="548" y="176" type="curve" smooth="yes"/>
			<point x="571" y="115"/>
			<point x="609" y="34"/>
		</contour>
	</outline>
</glyph>
<glyph name="PI.init" format="2">
	<advance width="895" height="1750"/>
	<note>
		u182B_1822.ini
	</note>
	<outline>
		<contour>
			<point x="707" y="-67" type="curve"/>
			<point x="780" y="-31" type="line"/>
			<point x="696" y="121"/>
			<point x="643" y="253"/>
			<point x="620" y="364" type="curve"/>
			<point x="925" y="364" type="line"/>
			<point x="925" y="444" type="line"/>
			<point x="605" y="444" type="line"/>
			<point x="581" y="585"/>
			<point x="538" y="686"/>
			<point x="465" y="740" type="curve" smooth="yes"/>
			<point x="427" y="768"/>
			<point x="378" y="782"/>
			<point x="319" y="782" type="curve" smooth="yes"/>
			<point x="198" y="782"/>
			<point x="115" y="715"/>
			<point x="75" y="600" type="curve" smooth="yes"/>
			<point x="55" y="543"/>
			<point x="45" y="479"/>
			<point x="45" y="408" type="curve" smooth="yes"/>
			<point x="45" y="364" type="line"/>
			<point x="329" y="364" type="line"/>
			<point x="336" y="344"/>
			<point x="339" y="314"/>
			<point x="339" y="275" type="curve" smooth="yes"/>
			<point x="339" y="202"/>
			<point x="298" y="153"/>
			<point x="231" y="153" type="curve" smooth="yes"/>
			<point x="152" y="153"/>
			<point x="101" y="147"/>
			<point x="62" y="122" type="curve"/>
			<point x="62" y="42" type="line"/>
			<point x="106" y="67"/>
			<point x="154" y="73"/>
			<point x="231" y="73" type="curve" smooth="yes"/>
			<point x="307" y="73"/>
			<point x="364" y="108"/>
			<point x="395" y="171" type="curve" smooth="yes"/>
			<point x="410" y="202"/>
			<point x="418" y="236"/>
			<point x="418" y="275" type="curve" smooth="yes"/>
			<point x="418" y="332"/>
			<point x="411" y="388"/>
			<point x="397" y="444" type="curve"/>
			<point x="124" y="444" type="line"/>
			<point x="125" y="541"/>
			<point x="155" y="620"/>
			<point x="211" y="665" type="curve" smooth="yes"/>
			<point x="240" y="688"/>
			<point x="276" y="699"/>
			<point x="319" y="699" type="curve" smooth="yes"/>
			<point x="432" y="699"/>
			<point x="499" y="606"/>
			<point x="530" y="418" type="curve" smooth="yes"/>
			<point x="546" y="325"/>
			<point x="567" y="244"/>
			<point x="593" y="176" type="curve" smooth="yes"/>
			<point x="616" y="115"/>
			<point x="654" y="34"/>
		</contour>
	</outline>
</glyph>
<glyph name="PO.fina" format="2">
	<advance width="719" height="1750"/>
	<note>
		u182B_1824.fin
	</note>
	<outline>
		<contour>
			<point x="460" y="40" type="curve" smooth="yes"/>
			<point x="605" y="40"/>
			<point x="674" y="148"/>
			<point x="674" y="375" type="curve" smooth="yes"/>
			<point x="674" y="538"/>
			<point x="617" y="663"/>
			<point x="513" y="731" type="curve" smooth="yes"/>
			<point x="461" y="765"/>
			<point x="399" y="782"/>
			<point x="327" y="782" type="curve" smooth="yes"/>
			<point x="196" y="782"/>
			<point x="95" y="719"/>
			<point x="41" y="607" type="curve" smooth="yes"/>
			<point x="14" y="551"/>
			<point x="0" y="485"/>
			<point x="0" y="409" type="curve" smooth="yes"/>
			<point x="0" y="364" type="line"/>
			<point x="281" y="364" type="line"/>
			<point x="281" y="275" type="line" smooth="yes"/>
			<point x="281" y="198"/>
			<point x="240" y="153"/>
			<point x="180" y="153" type="curve" smooth="yes"/>
			<point x="104" y="153"/>
			<point x="56" y="147"/>
			<point x="17" y="122" type="curve"/>
			<point x="17" y="42" type="line"/>
			<point x="60" y="67"/>
			<point x="107" y="73"/>
			<point x="180" y="73" type="curve" smooth="yes"/>
			<point x="237" y="73"/>
			<point x="283" y="94"/>
			<point x="318" y="136" type="curve"/>
			<point x="343" y="72"/>
			<point x="391" y="40"/>
		</contour>
		<contour>
			<point x="460" y="123" type="curve" smooth="yes"/>
			<point x="393" y="123"/>
			<point x="360" y="177"/>
			<point x="360" y="286" type="curve" smooth="yes"/>
			<point x="360" y="364" type="line"/>
			<point x="595" y="364" type="line"/>
			<point x="594" y="259"/>
			<point x="581" y="190"/>
			<point x="546" y="153" type="curve" smooth="yes"/>
			<point x="527" y="133"/>
			<point x="498" y="123"/>
		</contour>
		<contour>
			<point x="590" y="444" type="curve"/>
			<point x="79" y="444" type="line"/>
			<point x="82" y="545"/>
			<point x="125" y="623"/>
			<point x="198" y="667" type="curve" smooth="yes"/>
			<point x="235" y="688"/>
			<point x="278" y="699"/>
			<point x="327" y="699" type="curve" smooth="yes"/>
			<point x="426" y="699"/>
			<point x="499" y="656"/>
			<point x="546" y="578" type="curve" smooth="yes"/>
			<point x="569" y="539"/>
			<point x="583" y="495"/>
		</contour>
	</outline>
</glyph>
<glyph name="PU.init" format="2">
	<advance width="900" height="1750"/>
	<note>
		u182B_1824.ini
	</note>
	<outline>
		<contour>
			<point x="505" y="40" type="curve" smooth="yes"/>
			<point x="648" y="40"/>
			<point x="716" y="144"/>
			<point x="719" y="364" type="curve"/>
			<point x="930" y="364" type="line"/>
			<point x="930" y="444" type="line"/>
			<point x="715" y="444" type="line"/>
			<point x="700" y="583"/>
			<point x="638" y="686"/>
			<point x="541" y="741" type="curve" smooth="yes"/>
			<point x="492" y="768"/>
			<point x="436" y="782"/>
			<point x="372" y="782" type="curve" smooth="yes"/>
			<point x="244" y="782"/>
			<point x="142" y="719"/>
			<point x="87" y="607" type="curve" smooth="yes"/>
			<point x="59" y="551"/>
			<point x="45" y="485"/>
			<point x="45" y="409" type="curve" smooth="yes"/>
			<point x="45" y="364" type="line"/>
			<point x="326" y="364" type="line"/>
			<point x="326" y="275" type="line" smooth="yes"/>
			<point x="326" y="198"/>
			<point x="285" y="153"/>
			<point x="225" y="153" type="curve" smooth="yes"/>
			<point x="149" y="153"/>
			<point x="101" y="147"/>
			<point x="62" y="122" type="curve"/>
			<point x="62" y="42" type="line"/>
			<point x="105" y="67"/>
			<point x="152" y="73"/>
			<point x="225" y="73" type="curve" smooth="yes"/>
			<point x="282" y="73"/>
			<point x="328" y="94"/>
			<point x="363" y="136" type="curve"/>
			<point x="388" y="72"/>
			<point x="436" y="40"/>
		</contour>
		<contour>
			<point x="505" y="123" type="curve" smooth="yes"/>
			<point x="438" y="123"/>
			<point x="405" y="177"/>
			<point x="405" y="286" type="curve" smooth="yes"/>
			<point x="405" y="364" type="line"/>
			<point x="640" y="364" type="line"/>
			<point x="637" y="257"/>
			<point x="625" y="192"/>
			<point x="590" y="154" type="curve" smooth="yes"/>
			<point x="571" y="133"/>
			<point x="543" y="123"/>
		</contour>
		<contour>
			<point x="635" y="444" type="curve"/>
			<point x="124" y="444" type="line"/>
			<point x="127" y="545"/>
			<point x="170" y="623"/>
			<point x="243" y="667" type="curve" smooth="yes"/>
			<point x="280" y="688"/>
			<point x="323" y="699"/>
			<point x="372" y="699" type="curve" smooth="yes"/>
			<point x="471" y="699"/>
			<point x="544" y="656"/>
			<point x="591" y="578" type="curve" smooth="yes"/>
			<point x="614" y="539"/>
			<point x="628" y="495"/>
		</contour>
	</outline>
</glyph>
<glyph name="PU.medi" format="2">
	<advance width="855" height="1750"/>
	<note>
		u182B_1824.med
	</note>
	<outline>
		<contour>
			<point x="460" y="40" type="curve" smooth="yes"/>
			<point x="603" y="40"/>
			<point x="671" y="144"/>
			<point x="674" y="364" type="curve"/>
			<point x="885" y="364" type="line"/>
			<point x="885" y="444" type="line"/>
			<point x="670" y="444" type="line"/>
			<point x="655" y="583"/>
			<point x="593" y="686"/>
			<point x="496" y="741" type="curve" smooth="yes"/>
			<point x="447" y="768"/>
			<point x="391" y="782"/>
			<point x="327" y="782" type="curve" smooth="yes"/>
			<point x="199" y="782"/>
			<point x="97" y="719"/>
			<point x="42" y="607" type="curve" smooth="yes"/>
			<point x="14" y="551"/>
			<point x="0" y="485"/>
			<point x="0" y="409" type="curve" smooth="yes"/>
			<point x="0" y="364" type="line"/>
			<point x="281" y="364" type="line"/>
			<point x="281" y="275" type="line" smooth="yes"/>
			<point x="281" y="198"/>
			<point x="240" y="153"/>
			<point x="180" y="153" type="curve" smooth="yes"/>
			<point x="104" y="153"/>
			<point x="56" y="147"/>
			<point x="17" y="122" type="curve"/>
			<point x="17" y="42" type="line"/>
			<point x="60" y="67"/>
			<point x="107" y="73"/>
			<point x="180" y="73" type="curve" smooth="yes"/>
			<point x="237" y="73"/>
			<point x="283" y="94"/>
			<point x="318" y="136" type="curve"/>
			<point x="343" y="72"/>
			<point x="391" y="40"/>
		</contour>
		<contour>
			<point x="460" y="123" type="curve" smooth="yes"/>
			<point x="393" y="123"/>
			<point x="360" y="177"/>
			<point x="360" y="286" type="curve" smooth="yes"/>
			<point x="360" y="364" type="line"/>
			<point x="595" y="364" type="line"/>
			<point x="592" y="257"/>
			<point x="580" y="192"/>
			<point x="545" y="154" type="curve" smooth="yes"/>
			<point x="526" y="133"/>
			<point x="498" y="123"/>
		</contour>
		<contour>
			<point x="590" y="444" type="curve"/>
			<point x="79" y="444" type="line"/>
			<point x="82" y="545"/>
			<point x="125" y="623"/>
			<point x="198" y="667" type="curve" smooth="yes"/>
			<point x="235" y="688"/>
			<point x="278" y="699"/>
			<point x="327" y="699" type="curve" smooth="yes"/>
			<point x="426" y="699"/>
			<point x="499" y="656"/>
			<point x="546" y="578" type="curve" smooth="yes"/>
			<point x="569" y="539"/>
			<point x="583" y="495"/>
		</contour>
	</outline>
</glyph>
<glyph name="PW.fina" format="2">
	<advance width="1189" height="1750"/>
	<note>
		u182B_1827.fin
	</note>
	<outline>
		<contour>
			<point x="791" y="-119" type="curve" smooth="yes"/>
			<point x="830" y="-119"/>
			<point x="858" y="-108"/>
			<point x="873" y="-85" type="curve"/>
			<point x="873" y="6" type="line"/>
			<point x="854" y="-22"/>
			<point x="827" y="-36"/>
			<point x="791" y="-36" type="curve" smooth="yes"/>
			<point x="743" y="-36"/>
			<point x="703" y="9"/>
			<point x="658" y="106" type="curve" smooth="yes"/>
			<point x="619" y="189"/>
			<point x="591" y="275"/>
			<point x="574" y="364" type="curve"/>
			<point x="969" y="364" type="line" smooth="yes"/>
			<point x="1038" y="364"/>
			<point x="1067" y="335"/>
			<point x="1067" y="279" type="curve" smooth="yes"/>
			<point x="1067" y="236"/>
			<point x="1060" y="197"/>
			<point x="1045" y="162" type="curve"/>
			<point x="1119" y="162" type="line"/>
			<point x="1136" y="198"/>
			<point x="1144" y="237"/>
			<point x="1144" y="279" type="curve" smooth="yes"/>
			<point x="1144" y="389"/>
			<point x="1086" y="444"/>
			<point x="969" y="444" type="curve" smooth="yes"/>
			<point x="559" y="444" type="line"/>
			<point x="534" y="585"/>
			<point x="491" y="686"/>
			<point x="419" y="740" type="curve" smooth="yes"/>
			<point x="382" y="768"/>
			<point x="333" y="782"/>
			<point x="274" y="782" type="curve" smooth="yes"/>
			<point x="153" y="782"/>
			<point x="70" y="715"/>
			<point x="30" y="600" type="curve" smooth="yes"/>
			<point x="10" y="543"/>
			<point x="0" y="479"/>
			<point x="0" y="408" type="curve" smooth="yes"/>
			<point x="0" y="364" type="line"/>
			<point x="284" y="364" type="line"/>
			<point x="291" y="344"/>
			<point x="294" y="314"/>
			<point x="294" y="274" type="curve" smooth="yes"/>
			<point x="294" y="201"/>
			<point x="253" y="153"/>
			<point x="186" y="153" type="curve" smooth="yes"/>
			<point x="107" y="153"/>
			<point x="56" y="147"/>
			<point x="17" y="122" type="curve"/>
			<point x="17" y="42" type="line"/>
			<point x="61" y="67"/>
			<point x="109" y="73"/>
			<point x="186" y="73" type="curve" smooth="yes"/>
			<point x="262" y="73"/>
			<point x="319" y="108"/>
			<point x="350" y="171" type="curve" smooth="yes"/>
			<point x="365" y="202"/>
			<point x="373" y="236"/>
			<point x="373" y="275" type="curve" smooth="yes"/>
			<point x="373" y="332"/>
			<point x="366" y="388"/>
			<point x="352" y="444" type="curve"/>
			<point x="79" y="444" type="line"/>
			<point x="80" y="541"/>
			<point x="110" y="620"/>
			<point x="166" y="665" type="curve" smooth="yes"/>
			<point x="195" y="688"/>
			<point x="231" y="699"/>
			<point x="274" y="699" type="curve" smooth="yes"/>
			<point x="361" y="699"/>
			<point x="415" y="653"/>
			<point x="448" y="565" type="curve" smooth="yes"/>
			<point x="463" y="523"/>
			<point x="476" y="474"/>
			<point x="485" y="418" type="curve" smooth="yes"/>
			<point x="508" y="281"/>
			<point x="546" y="155"/>
			<point x="600" y="41" type="curve" smooth="yes"/>
			<point x="651" y="-66"/>
			<point x="703" y="-119"/>
		</contour>
	</outline>
</glyph>
<glyph name="PW.isol" format="2">
	<advance width="1234" height="1750"/>
	<note>
		u182B_1827
	</note>
	<outline>
		<contour>
			<point x="836" y="-119" type="curve" smooth="yes"/>
			<point x="875" y="-119"/>
			<point x="903" y="-108"/>
			<point x="918" y="-85" type="curve"/>
			<point x="918" y="6" type="line"/>
			<point x="899" y="-22"/>
			<point x="872" y="-36"/>
			<point x="836" y="-36" type="curve" smooth="yes"/>
			<point x="788" y="-36"/>
			<point x="748" y="9"/>
			<point x="703" y="106" type="curve" smooth="yes"/>
			<point x="664" y="189"/>
			<point x="636" y="275"/>
			<point x="619" y="364" type="curve"/>
			<point x="1014" y="364" type="line" smooth="yes"/>
			<point x="1083" y="364"/>
			<point x="1112" y="335"/>
			<point x="1112" y="279" type="curve" smooth="yes"/>
			<point x="1112" y="236"/>
			<point x="1105" y="197"/>
			<point x="1090" y="162" type="curve"/>
			<point x="1164" y="162" type="line"/>
			<point x="1181" y="198"/>
			<point x="1189" y="237"/>
			<point x="1189" y="279" type="curve" smooth="yes"/>
			<point x="1189" y="389"/>
			<point x="1131" y="444"/>
			<point x="1014" y="444" type="curve" smooth="yes"/>
			<point x="604" y="444" type="line"/>
			<point x="579" y="585"/>
			<point x="536" y="686"/>
			<point x="464" y="740" type="curve" smooth="yes"/>
			<point x="427" y="768"/>
			<point x="378" y="782"/>
			<point x="319" y="782" type="curve" smooth="yes"/>
			<point x="198" y="782"/>
			<point x="115" y="715"/>
			<point x="75" y="600" type="curve" smooth="yes"/>
			<point x="55" y="543"/>
			<point x="45" y="479"/>
			<point x="45" y="408" type="curve" smooth="yes"/>
			<point x="45" y="364" type="line"/>
			<point x="329" y="364" type="line"/>
			<point x="336" y="344"/>
			<point x="339" y="314"/>
			<point x="339" y="274" type="curve" smooth="yes"/>
			<point x="339" y="201"/>
			<point x="298" y="153"/>
			<point x="231" y="153" type="curve" smooth="yes"/>
			<point x="152" y="153"/>
			<point x="101" y="147"/>
			<point x="62" y="122" type="curve"/>
			<point x="62" y="42" type="line"/>
			<point x="106" y="67"/>
			<point x="154" y="73"/>
			<point x="231" y="73" type="curve" smooth="yes"/>
			<point x="307" y="73"/>
			<point x="364" y="108"/>
			<point x="395" y="171" type="curve" smooth="yes"/>
			<point x="410" y="202"/>
			<point x="418" y="236"/>
			<point x="418" y="275" type="curve" smooth="yes"/>
			<point x="418" y="332"/>
			<point x="411" y="388"/>
			<point x="397" y="444" type="curve"/>
			<point x="124" y="444" type="line"/>
			<point x="125" y="541"/>
			<point x="155" y="620"/>
			<point x="211" y="665" type="curve" smooth="yes"/>
			<point x="240" y="688"/>
			<point x="276" y="699"/>
			<point x="319" y="699" type="curve" smooth="yes"/>
			<point x="406" y="699"/>
			<point x="460" y="653"/>
			<point x="493" y="565" type="curve" smooth="yes"/>
			<point x="508" y="523"/>
			<point x="521" y="474"/>
			<point x="530" y="418" type="curve" smooth="yes"/>
			<point x="553" y="281"/>
			<point x="591" y="155"/>
			<point x="645" y="41" type="curve" smooth="yes"/>
			<point x="696" y="-66"/>
			<point x="748" y="-119"/>
		</contour>
	</outline>
</glyph>
<glyph name=".notdef" format="2">
	<advance width="600" height="1750"/>
	<note>
		.notdef
	</note>
	<outline>
		<contour>
			<point x="94" y="0" type="line"/>
			<point x="505" y="0" type="line"/>
			<point x="505" y="714" type="line"/>
			<point x="94" y="714" type="line"/>
		</contour>
		<contour>
			<point x="145" y="51" type="line"/>
			<point x="145" y="663" type="line"/>
			<point x="454" y="663" type="line"/>
			<point x="454" y="51" type="line"/>
		</contour>
	</outline>
</glyph>
<glyph name="a.A.fina" format="2">
	<advance width="427" height="1750"/>
	<note>
		u1820.fin
	</note>
	<outline>
		<contour>
			<point x="228" y="53" type="curve"/>
			<point x="228" y="156" type="line" smooth="yes"/>
			<point x="228" y="297"/>
			<point x="244" y="427"/>
			<point x="277" y="547" type="curve" smooth="yes"/>
			<point x="308" y="664"/>
			<point x="355" y="761"/>
			<point x="417" y="836" type="curve"/>
			<point x="325" y="836" type="line"/>
			<point x="273" y="768"/>
			<point x="231" y="674"/>
			<point x="199" y="555" type="curve" smooth="yes"/>
			<point x="167" y="435"/>
			<point x="151" y="302"/>
			<point x="151" y="156" type="curve"/>
			<point x="94" y="189"/>
			<point x="60" y="245"/>
			<point x="49" y="323" type="curve" smooth="yes"/>
			<point x="44" y="360"/>
			<point x="41" y="400"/>
			<point x="41" y="444" type="curve"/>
			<point x="-33" y="444" type="line"/>
			<point x="-33" y="364" type="line" smooth="yes"/>
			<point x="-33" y="257"/>
			<point x="12" y="162"/>
			<point x="89" y="103" type="curve" smooth="yes"/>
			<point x="128" y="73"/>
			<point x="175" y="56"/>
		</contour>
	</outline>
</glyph>
<glyph name="a.AA.init" format="2">
	<advance width="786" height="1750"/>
	<note>
		u1820.ini
	</note>
	<outline>
		<contour>
			<point x="200" y="437" type="curve" smooth="yes"/>
			<point x="226" y="74" type="line"/>
			<point x="292" y="74" type="line"/>
			<point x="302" y="219" type="line" smooth="yes"/>
			<point x="307" y="294"/>
			<point x="323" y="331"/>
			<point x="361" y="350" type="curve" smooth="yes"/>
			<point x="380" y="359"/>
			<point x="408" y="364"/>
			<point x="445" y="364" type="curve" smooth="yes"/>
			<point x="502" y="364" type="line"/>
			<point x="521" y="96" type="line"/>
			<point x="587" y="96" type="line"/>
			<point x="606" y="364" type="line"/>
			<point x="816" y="364" type="line"/>
			<point x="816" y="444" type="line"/>
			<point x="444" y="444" type="line" smooth="yes"/>
			<point x="360" y="444"/>
			<point x="307" y="416"/>
			<point x="285" y="361" type="curve"/>
			<point x="281" y="361" type="line"/>
			<point x="278" y="445" type="line" smooth="yes"/>
			<point x="275" y="537"/>
			<point x="260" y="596"/>
			<point x="223" y="628" type="curve" smooth="yes"/>
			<point x="204" y="645"/>
			<point x="176" y="653"/>
			<point x="139" y="653" type="curve" smooth="yes"/>
			<point x="100" y="653"/>
			<point x="57" y="643"/>
			<point x="10" y="623" type="curve"/>
			<point x="10" y="550" type="line"/>
			<point x="51" y="567"/>
			<point x="87" y="575"/>
			<point x="118" y="575" type="curve" smooth="yes"/>
			<point x="175" y="575"/>
			<point x="195" y="529"/>
		</contour>
	</outline>
</glyph>
<glyph name="a.Aa.isol" format="2">
	<advance width="470" height="1750"/>
	<note>
		u1820.finV1
	</note>
	<outline>
		<contour>
			<point x="164" y="-264" type="curve"/>
			<point x="246" y="-264" type="line"/>
			<point x="232" y="-240"/>
			<point x="225" y="-214"/>
			<point x="225" y="-187" type="curve" smooth="yes"/>
			<point x="225" y="-127"/>
			<point x="243" y="-94"/>
			<point x="292" y="-31" type="curve" smooth="yes"/>
			<point x="339" y="27"/>
			<point x="373" y="78"/>
			<point x="394" y="123" type="curve" smooth="yes"/>
			<point x="415" y="164"/>
			<point x="425" y="205"/>
			<point x="425" y="245" type="curve" smooth="yes"/>
			<point x="425" y="374"/>
			<point x="347" y="444"/>
			<point x="194" y="444" type="curve" smooth="yes"/>
			<point x="118" y="444" type="line"/>
			<point x="100" y="364" type="line"/>
			<point x="193" y="364" type="line" smooth="yes"/>
			<point x="298" y="364"/>
			<point x="347" y="325"/>
			<point x="347" y="245" type="curve" smooth="yes"/>
			<point x="347" y="214"/>
			<point x="339" y="183"/>
			<point x="323" y="152" type="curve" smooth="yes"/>
			<point x="306" y="119"/>
			<point x="278" y="77"/>
			<point x="240" y="28" type="curve" smooth="yes"/>
			<point x="177" y="-52"/>
			<point x="145" y="-116"/>
			<point x="145" y="-187" type="curve" smooth="yes"/>
			<point x="145" y="-218"/>
			<point x="151" y="-243"/>
		</contour>
	</outline>
</glyph>
<glyph name="b.B.init" format="2">
	<advance width="557" height="1750"/>
	<note>
		u182A.ini
	</note>
	<outline>
		<contour>
			<point x="273" y="40" type="curve" smooth="yes"/>
			<point x="342" y="40"/>
			<point x="397" y="81"/>
			<point x="428" y="154" type="curve" smooth="yes"/>
			<point x="443" y="189"/>
			<point x="451" y="230"/>
			<point x="451" y="275" type="curve" smooth="yes"/>
			<point x="451" y="315"/>
			<point x="439" y="412"/>
			<point x="428" y="444" type="curve"/>
			<point x="124" y="444" type="line"/>
			<point x="125" y="543"/>
			<point x="159" y="621"/>
			<point x="220" y="666" type="curve" smooth="yes"/>
			<point x="251" y="688"/>
			<point x="290" y="699"/>
			<point x="335" y="699" type="curve" smooth="yes"/>
			<point x="468" y="699"/>
			<point x="552" y="575"/>
			<point x="557" y="364" type="curve"/>
			<point x="631" y="364" type="line"/>
			<point x="631" y="476"/>
			<point x="605" y="580"/>
			<point x="557" y="657" type="curve" smooth="yes"/>
			<point x="503" y="740"/>
			<point x="429" y="782"/>
			<point x="335" y="782" type="curve" smooth="yes"/>
			<point x="208" y="782"/>
			<point x="121" y="716"/>
			<point x="77" y="601" type="curve" smooth="yes"/>
			<point x="56" y="544"/>
			<point x="45" y="480"/>
			<point x="45" y="408" type="curve" smooth="yes"/>
			<point x="45" y="161"/>
			<point x="120" y="40"/>
		</contour>
		<contour>
			<point x="264" y="123" type="curve" smooth="yes"/>
			<point x="173" y="123"/>
			<point x="126" y="203"/>
			<point x="124" y="364" type="curve"/>
			<point x="362" y="364" type="line"/>
			<point x="369" y="346"/>
			<point x="372" y="316"/>
			<point x="372" y="275" type="curve" smooth="yes"/>
			<point x="372" y="186"/>
			<point x="335" y="123"/>
		</contour>
	</outline>
</glyph>
<glyph name="b.Bb.fina" format="2">
	<advance width="820" height="1750"/>
	<note>
		u182A.finV1
	</note>
	<outline>
		<contour>
			<point x="514" y="-264" type="curve"/>
			<point x="596" y="-264" type="line"/>
			<point x="582" y="-240"/>
			<point x="575" y="-214"/>
			<point x="575" y="-187" type="curve" smooth="yes"/>
			<point x="575" y="-132"/>
			<point x="593" y="-94"/>
			<point x="642" y="-31" type="curve" smooth="yes"/>
			<point x="730" y="81"/>
			<point x="775" y="161"/>
			<point x="775" y="245" type="curve" smooth="yes"/>
			<point x="775" y="374"/>
			<point x="697" y="444"/>
			<point x="544" y="444" type="curve" smooth="yes"/>
			<point x="0" y="444" type="line"/>
			<point x="0" y="364" type="line"/>
			<point x="20" y="364" type="line"/>
			<point x="7" y="332"/>
			<point x="0" y="294"/>
			<point x="0" y="249" type="curve" smooth="yes"/>
			<point x="0" y="116"/>
			<point x="69" y="40"/>
			<point x="197" y="40" type="curve" smooth="yes"/>
			<point x="322" y="40"/>
			<point x="395" y="121"/>
			<point x="395" y="249" type="curve" smooth="yes"/>
			<point x="395" y="294"/>
			<point x="388" y="332"/>
			<point x="373" y="364" type="curve"/>
			<point x="543" y="364" type="line" smooth="yes"/>
			<point x="650" y="364"/>
			<point x="697" y="326"/>
			<point x="697" y="243" type="curve" smooth="yes"/>
			<point x="697" y="180"/>
			<point x="667" y="132"/>
			<point x="590" y="28" type="curve" smooth="yes"/>
			<point x="526" y="-57"/>
			<point x="495" y="-115"/>
			<point x="495" y="-187" type="curve" smooth="yes"/>
			<point x="495" y="-218"/>
			<point x="501" y="-243"/>
		</contour>
		<contour>
			<point x="197" y="123" type="curve" smooth="yes"/>
			<point x="118" y="123"/>
			<point x="79" y="166"/>
			<point x="79" y="251" type="curve" smooth="yes"/>
			<point x="79" y="294"/>
			<point x="86" y="332"/>
			<point x="99" y="364" type="curve"/>
			<point x="296" y="364" type="line"/>
			<point x="309" y="332"/>
			<point x="316" y="294"/>
			<point x="316" y="251" type="curve" smooth="yes"/>
			<point x="316" y="167"/>
			<point x="273" y="123"/>
		</contour>
	</outline>
</glyph>
<glyph name="c.C.fina" format="2">
	<advance width="905" height="1750"/>
	<note>
		u183C.fin
	</note>
	<outline>
		<contour>
			<point x="423" y="-171" type="curve" smooth="yes"/>
			<point x="507" y="-171"/>
			<point x="564" y="-117"/>
			<point x="564" y="-32" type="curve" smooth="yes"/>
			<point x="564" y="44"/>
			<point x="513" y="100"/>
			<point x="433" y="100" type="curve" smooth="yes"/>
			<point x="396" y="100"/>
			<point x="361" y="85"/>
			<point x="342" y="62" type="curve"/>
			<point x="339" y="63" type="line"/>
			<point x="336" y="82"/>
			<point x="335" y="102"/>
			<point x="335" y="125" type="curve" smooth="yes"/>
			<point x="335" y="212"/>
			<point x="344" y="280"/>
			<point x="369" y="364" type="curve"/>
			<point x="685" y="364" type="line" smooth="yes"/>
			<point x="754" y="364"/>
			<point x="783" y="335"/>
			<point x="783" y="279" type="curve" smooth="yes"/>
			<point x="783" y="235"/>
			<point x="776" y="196"/>
			<point x="761" y="162" type="curve"/>
			<point x="835" y="162" type="line"/>
			<point x="852" y="196"/>
			<point x="860" y="235"/>
			<point x="860" y="279" type="curve" smooth="yes"/>
			<point x="860" y="389"/>
			<point x="802" y="444"/>
			<point x="685" y="444" type="curve" smooth="yes"/>
			<point x="0" y="444" type="line"/>
			<point x="0" y="364" type="line"/>
			<point x="294" y="364" type="line"/>
			<point x="275" y="297"/>
			<point x="266" y="224"/>
			<point x="266" y="143" type="curve"/>
			<point x="235" y="143" type="line" smooth="yes"/>
			<point x="120" y="143"/>
			<point x="56" y="137"/>
			<point x="0" y="101" type="curve"/>
			<point x="0" y="16" type="line"/>
			<point x="63" y="55"/>
			<point x="126" y="63"/>
			<point x="235" y="63" type="curve" smooth="yes"/>
			<point x="267" y="63" type="line"/>
			<point x="272" y="-21"/>
			<point x="296" y="-94"/>
			<point x="340" y="-138" type="curve" smooth="yes"/>
			<point x="362" y="-160"/>
			<point x="390" y="-171"/>
		</contour>
		<contour>
			<point x="427" y="-99" type="curve" smooth="yes"/>
			<point x="387" y="-99"/>
			<point x="359" y="-59"/>
			<point x="350" y="-8" type="curve"/>
			<point x="361" y="19"/>
			<point x="390" y="37"/>
			<point x="423" y="37" type="curve" smooth="yes"/>
			<point x="467" y="37"/>
			<point x="494" y="9"/>
			<point x="494" y="-32" type="curve" smooth="yes"/>
			<point x="494" y="-72"/>
			<point x="468" y="-99"/>
		</contour>
	</outline>
</glyph>
<glyph name="c.C.isol" format="2">
	<advance width="892" height="1750"/>
	<note>
		u183C
	</note>
	<outline>
		<contour>
			<point x="585" y="-171" type="curve" smooth="yes"/>
			<point x="669" y="-171"/>
			<point x="726" y="-119"/>
			<point x="726" y="-32" type="curve" smooth="yes"/>
			<point x="726" y="44"/>
			<point x="675" y="100"/>
			<point x="595" y="100" type="curve" smooth="yes"/>
			<point x="558" y="100"/>
			<point x="523" y="85"/>
			<point x="504" y="62" type="curve"/>
			<point x="501" y="63" type="line"/>
			<point x="499" y="93" type="line"/>
			<point x="497" y="125" type="line" smooth="yes"/>
			<point x="497" y="212"/>
			<point x="506" y="280"/>
			<point x="531" y="364" type="curve"/>
			<point x="847" y="364" type="line"/>
			<point x="847" y="444" type="line"/>
			<point x="63" y="444" type="line"/>
			<point x="45" y="364" type="line"/>
			<point x="456" y="364" type="line"/>
			<point x="437" y="291"/>
			<point x="428" y="217"/>
			<point x="428" y="143" type="curve"/>
			<point x="397" y="143" type="line" smooth="yes"/>
			<point x="285" y="143"/>
			<point x="219" y="136"/>
			<point x="162" y="101" type="curve"/>
			<point x="162" y="16" type="line"/>
			<point x="225" y="55"/>
			<point x="288" y="63"/>
			<point x="397" y="63" type="curve" smooth="yes"/>
			<point x="429" y="63" type="line"/>
			<point x="434" y="-21"/>
			<point x="459" y="-94"/>
			<point x="502" y="-138" type="curve" smooth="yes"/>
			<point x="524" y="-160"/>
			<point x="552" y="-171"/>
		</contour>
		<contour>
			<point x="589" y="-99" type="curve" smooth="yes"/>
			<point x="549" y="-99"/>
			<point x="521" y="-59"/>
			<point x="512" y="-8" type="curve"/>
			<point x="523" y="19"/>
			<point x="552" y="37"/>
			<point x="585" y="37" type="curve" smooth="yes"/>
			<point x="629" y="37"/>
			<point x="656" y="8"/>
			<point x="656" y="-32" type="curve" smooth="yes"/>
			<point x="656" y="-72"/>
			<point x="630" y="-99"/>
		</contour>
	</outline>
</glyph>
<glyph name="c.C.medi" format="2">
	<advance width="655" height="1750"/>
	<note>
		u183C.med
	</note>
	<outline>
		<contour>
			<point x="423" y="-171" type="curve" smooth="yes"/>
			<point x="507" y="-171"/>
			<point x="564" y="-117"/>
			<point x="564" y="-32" type="curve" smooth="yes"/>
			<point x="564" y="44"/>
			<point x="513" y="100"/>
			<point x="433" y="100" type="curve" smooth="yes"/>
			<point x="396" y="100"/>
			<point x="361" y="85"/>
			<point x="342" y="62" type="curve"/>
			<point x="339" y="63" type="line"/>
			<point x="336" y="82"/>
			<point x="335" y="102"/>
			<point x="335" y="125" type="curve" smooth="yes"/>
			<point x="335" y="212"/>
			<point x="344" y="280"/>
			<point x="369" y="364" type="curve"/>
			<point x="685" y="364" type="line"/>
			<point x="685" y="444" type="line"/>
			<point x="0" y="444" type="line"/>
			<point x="0" y="364" type="line"/>
			<point x="294" y="364" type="line"/>
			<point x="275" y="297"/>
			<point x="266" y="224"/>
			<point x="266" y="143" type="curve"/>
			<point x="235" y="143" type="line" smooth="yes"/>
			<point x="120" y="143"/>
			<point x="56" y="137"/>
			<point x="0" y="101" type="curve"/>
			<point x="0" y="16" type="line"/>
			<point x="63" y="55"/>
			<point x="126" y="63"/>
			<point x="235" y="63" type="curve" smooth="yes"/>
			<point x="267" y="63" type="line"/>
			<point x="272" y="-21"/>
			<point x="296" y="-94"/>
			<point x="340" y="-138" type="curve" smooth="yes"/>
			<point x="362" y="-160"/>
			<point x="390" y="-171"/>
		</contour>
		<contour>
			<point x="427" y="-99" type="curve" smooth="yes"/>
			<point x="387" y="-99"/>
			<point x="359" y="-59"/>
			<point x="350" y="-8" type="curve"/>
			<point x="361" y="19"/>
			<point x="390" y="37"/>
			<point x="423" y="37" type="curve" smooth="yes"/>
			<point x="467" y="37"/>
			<point x="494" y="9"/>
			<point x="494" y="-32" type="curve" smooth="yes"/>
			<point x="494" y="-72"/>
			<point x="468" y="-99"/>
		</contour>
	</outline>
</glyph>
<glyph name="ch.Ch.init" format="2">
	<advance width="692" height="1750"/>
	<note>
		u1834.ini
	</note>
	<outline>
		<contour>
			<point x="162" y="101" type="curve"/>
			<point x="162" y="16" type="line"/>
			<point x="225" y="55"/>
			<point x="288" y="63"/>
			<point x="397" y="63" type="curve" smooth="yes"/>
			<point x="518" y="63" type="line"/>
			<point x="518" y="129" type="line"/>
			<point x="490" y="212"/>
			<point x="477" y="283"/>
			<point x="477" y="364" type="curve"/>
			<point x="722" y="364" type="line"/>
			<point x="722" y="444" type="line"/>
			<point x="63" y="444" type="line"/>
			<point x="45" y="364" type="line"/>
			<point x="403" y="364" type="line"/>
			<point x="403" y="281"/>
			<point x="413" y="207"/>
			<point x="433" y="143" type="curve"/>
			<point x="397" y="143" type="line" smooth="yes"/>
			<point x="285" y="143"/>
			<point x="219" y="136"/>
		</contour>
	</outline>
</glyph>
<glyph name="ch.Ch.medi" format="2">
	<advance width="530" height="1750"/>
	<note>
		u1834.med
	</note>
	<outline>
		<contour>
			<point x="0" y="101" type="curve"/>
			<point x="0" y="16" type="line"/>
			<point x="63" y="55"/>
			<point x="126" y="63"/>
			<point x="235" y="63" type="curve" smooth="yes"/>
			<point x="356" y="63" type="line"/>
			<point x="356" y="129" type="line"/>
			<point x="328" y="212"/>
			<point x="315" y="283"/>
			<point x="315" y="364" type="curve"/>
			<point x="560" y="364" type="line"/>
			<point x="560" y="444" type="line"/>
			<point x="0" y="444" type="line"/>
			<point x="0" y="364" type="line"/>
			<point x="241" y="364" type="line"/>
			<point x="241" y="280"/>
			<point x="251" y="206"/>
			<point x="271" y="143" type="curve"/>
			<point x="235" y="143" type="line" smooth="yes"/>
			<point x="120" y="143"/>
			<point x="56" y="137"/>
		</contour>
	</outline>
</glyph>
<glyph name="eh.W.medi" format="2">
	<advance width="458" height="1750"/>
	<note>
		u1827.med
	</note>
	<outline>
		<contour>
			<point x="309" y="-119" type="curve" smooth="yes"/>
			<point x="348" y="-119"/>
			<point x="376" y="-108"/>
			<point x="392" y="-85" type="curve"/>
			<point x="392" y="6" type="line"/>
			<point x="373" y="-22"/>
			<point x="346" y="-36"/>
			<point x="309" y="-36" type="curve" smooth="yes"/>
			<point x="268" y="-36"/>
			<point x="234" y="-3"/>
			<point x="202" y="58" type="curve" smooth="yes"/>
			<point x="187" y="87"/>
			<point x="171" y="118"/>
			<point x="156" y="152" type="curve" smooth="yes"/>
			<point x="126" y="220"/>
			<point x="100" y="291"/>
			<point x="79" y="364" type="curve"/>
			<point x="488" y="364" type="line"/>
			<point x="488" y="444" type="line"/>
			<point x="0" y="444" type="line"/>
			<point x="0" y="364" type="line"/>
			<point x="19" y="295"/>
			<point x="42" y="226"/>
			<point x="68" y="157" type="curve" smooth="yes"/>
			<point x="120" y="30"/>
			<point x="157" y="-41"/>
			<point x="207" y="-84" type="curve" smooth="yes"/>
			<point x="234" y="-107"/>
			<point x="268" y="-119"/>
		</contour>
	</outline>
</glyph>
<glyph name="f.F.init" format="2">
	<advance width="557" height="1750"/>
	<note>
		u1839.ini
	</note>
	<outline>
		<contour>
			<point x="199" y="-182" type="curve"/>
			<point x="289" y="-182" type="line"/>
			<point x="264" y="-147"/>
			<point x="251" y="-108"/>
			<point x="251" y="-63" type="curve" smooth="yes"/>
			<point x="251" y="-26"/>
			<point x="258" y="8"/>
			<point x="271" y="40" type="curve"/>
			<point x="275" y="40" type="line" smooth="yes"/>
			<point x="342" y="40"/>
			<point x="397" y="81"/>
			<point x="428" y="153" type="curve" smooth="yes"/>
			<point x="443" y="188"/>
			<point x="451" y="229"/>
			<point x="451" y="274" type="curve" smooth="yes"/>
			<point x="451" y="314"/>
			<point x="439" y="412"/>
			<point x="428" y="444" type="curve"/>
			<point x="124" y="444" type="line"/>
			<point x="125" y="543"/>
			<point x="159" y="621"/>
			<point x="220" y="666" type="curve" smooth="yes"/>
			<point x="251" y="688"/>
			<point x="290" y="699"/>
			<point x="335" y="699" type="curve" smooth="yes"/>
			<point x="468" y="699"/>
			<point x="552" y="575"/>
			<point x="557" y="364" type="curve"/>
			<point x="631" y="364" type="line"/>
			<point x="631" y="476"/>
			<point x="606" y="580"/>
			<point x="557" y="657" type="curve" smooth="yes"/>
			<point x="506" y="737"/>
			<point x="432" y="782"/>
			<point x="336" y="782" type="curve" smooth="yes"/>
			<point x="209" y="782"/>
			<point x="121" y="716"/>
			<point x="77" y="601" type="curve" smooth="yes"/>
			<point x="56" y="544"/>
			<point x="45" y="480"/>
			<point x="45" y="408" type="curve" smooth="yes"/>
			<point x="45" y="202"/>
			<point x="97" y="83"/>
			<point x="201" y="50" type="curve"/>
			<point x="180" y="13"/>
			<point x="169" y="-25"/>
			<point x="169" y="-64" type="curve" smooth="yes"/>
			<point x="169" y="-113"/>
			<point x="179" y="-152"/>
		</contour>
		<contour>
			<point x="264" y="123" type="curve" smooth="yes"/>
			<point x="173" y="123"/>
			<point x="126" y="203"/>
			<point x="124" y="364" type="curve"/>
			<point x="362" y="364" type="line"/>
			<point x="369" y="346"/>
			<point x="372" y="316"/>
			<point x="372" y="275" type="curve" smooth="yes"/>
			<point x="372" y="186"/>
			<point x="335" y="123"/>
		</contour>
	</outline>
</glyph>
<glyph name="f.F.isol" format="2">
	<advance width="680" height="1750"/>
	<note>
		u1839
	</note>
	<outline>
		<contour>
			<point x="199" y="-182" type="curve"/>
			<point x="289" y="-182" type="line"/>
			<point x="264" y="-147"/>
			<point x="251" y="-108"/>
			<point x="251" y="-63" type="curve" smooth="yes"/>
			<point x="251" y="-26"/>
			<point x="258" y="8"/>
			<point x="271" y="40" type="curve"/>
			<point x="274" y="40" type="line" smooth="yes"/>
			<point x="341" y="40"/>
			<point x="397" y="81"/>
			<point x="428" y="153" type="curve" smooth="yes"/>
			<point x="443" y="188"/>
			<point x="451" y="228"/>
			<point x="451" y="274" type="curve" smooth="yes"/>
			<point x="451" y="314"/>
			<point x="439" y="412"/>
			<point x="428" y="444" type="curve"/>
			<point x="124" y="444" type="line"/>
			<point x="125" y="543"/>
			<point x="159" y="621"/>
			<point x="220" y="666" type="curve" smooth="yes"/>
			<point x="251" y="688"/>
			<point x="290" y="699"/>
			<point x="335" y="699" type="curve" smooth="yes"/>
			<point x="427" y="699"/>
			<point x="489" y="646"/>
			<point x="524" y="554" type="curve" smooth="yes"/>
			<point x="541" y="510"/>
			<point x="551" y="462"/>
			<point x="555" y="409" type="curve"/>
			<point x="635" y="419" type="line"/>
			<point x="628" y="518"/>
			<point x="599" y="606"/>
			<point x="548" y="674" type="curve" smooth="yes"/>
			<point x="496" y="742"/>
			<point x="423" y="782"/>
			<point x="335" y="782" type="curve" smooth="yes"/>
			<point x="208" y="782"/>
			<point x="121" y="716"/>
			<point x="77" y="601" type="curve" smooth="yes"/>
			<point x="56" y="544"/>
			<point x="45" y="480"/>
			<point x="45" y="408" type="curve" smooth="yes"/>
			<point x="45" y="202"/>
			<point x="97" y="83"/>
			<point x="201" y="50" type="curve"/>
			<point x="180" y="13"/>
			<point x="169" y="-25"/>
			<point x="169" y="-64" type="curve" smooth="yes"/>
			<point x="169" y="-113"/>
			<point x="179" y="-152"/>
		</contour>
		<contour>
			<point x="264" y="123" type="curve" smooth="yes"/>
			<point x="173" y="123"/>
			<point x="126" y="203"/>
			<point x="124" y="364" type="curve"/>
			<point x="362" y="364" type="line"/>
			<point x="369" y="345"/>
			<point x="372" y="315"/>
			<point x="372" y="274" type="curve" smooth="yes"/>
			<point x="372" y="185"/>
			<point x="333" y="123"/>
		</contour>
	</outline>
</glyph>
<glyph name="g.G.init" format="2">
	<advance width="631" height="1750"/>
	<note>
		u182D.iniFem
	</note>
	<outline>
		<contour>
			<point x="174" y="42" type="curve"/>
			<point x="245" y="85" type="line"/>
			<point x="162" y="202"/>
			<point x="124" y="292"/>
			<point x="124" y="407" type="curve" smooth="yes"/>
			<point x="124" y="564"/>
			<point x="178" y="644"/>
			<point x="273" y="644" type="curve" smooth="yes"/>
			<point x="350" y="644"/>
			<point x="390" y="598"/>
			<point x="410" y="510" type="curve" smooth="yes"/>
			<point x="419" y="468"/>
			<point x="425" y="419"/>
			<point x="428" y="364" type="curve"/>
			<point x="661" y="364" type="line"/>
			<point x="661" y="444" type="line"/>
			<point x="496" y="444" type="line"/>
			<point x="483" y="564"/>
			<point x="449" y="646"/>
			<point x="393" y="691" type="curve" smooth="yes"/>
			<point x="362" y="715"/>
			<point x="322" y="727"/>
			<point x="273" y="727" type="curve" smooth="yes"/>
			<point x="182" y="727"/>
			<point x="112" y="674"/>
			<point x="74" y="578" type="curve" smooth="yes"/>
			<point x="55" y="530"/>
			<point x="45" y="473"/>
			<point x="45" y="407" type="curve" smooth="yes"/>
			<point x="45" y="292"/>
			<point x="88" y="170"/>
		</contour>
	</outline>
</glyph>
<glyph name="g.Gh.isol" format="2">
	<advance width="863" height="1750"/>
	<note>
		u182D
	</note>
	<outline>
		<contour>
			<point x="221" y="96" type="curve"/>
			<point x="299" y="96" type="line"/>
			<point x="289" y="268"/>
			<point x="258" y="377"/>
			<point x="206" y="423" type="curve"/>
			<point x="214" y="570"/>
			<point x="270" y="644"/>
			<point x="362" y="644" type="curve" smooth="yes"/>
			<point x="463" y="644"/>
			<point x="512" y="562"/>
			<point x="512" y="378" type="curve" smooth="yes"/>
			<point x="512" y="285"/>
			<point x="506" y="191"/>
			<point x="495" y="96" type="curve"/>
			<point x="573" y="96" type="line"/>
			<point x="587" y="192"/>
			<point x="594" y="281"/>
			<point x="594" y="364" type="curve"/>
			<point x="818" y="364" type="line"/>
			<point x="818" y="444" type="line"/>
			<point x="591" y="444" type="line"/>
			<point x="573" y="633"/>
			<point x="497" y="727"/>
			<point x="362" y="727" type="curve" smooth="yes"/>
			<point x="271" y="727"/>
			<point x="204" y="679"/>
			<point x="165" y="593" type="curve" smooth="yes"/>
			<point x="146" y="551"/>
			<point x="134" y="504"/>
			<point x="129" y="451" type="curve"/>
			<point x="96" y="450"/>
			<point x="68" y="444"/>
			<point x="45" y="433" type="curve"/>
			<point x="45" y="353" type="line"/>
			<point x="62" y="362"/>
			<point x="84" y="366"/>
			<point x="112" y="366" type="curve" smooth="yes"/>
			<point x="149" y="366"/>
			<point x="174" y="342"/>
			<point x="189" y="294" type="curve" smooth="yes"/>
			<point x="204" y="246"/>
			<point x="214" y="180"/>
		</contour>
		<contour>
			<point x="172" y="-102" type="curve"/>
			<point x="215" y="-141" type="line"/>
			<point x="250" y="-105"/>
			<point x="296" y="-66"/>
			<point x="354" y="-25" type="curve"/>
			<point x="293" y="44" type="line"/>
			<point x="254" y="5"/>
			<point x="213" y="-44"/>
		</contour>
		<contour>
			<point x="348" y="-179" type="curve"/>
			<point x="391" y="-218" type="line"/>
			<point x="426" y="-182"/>
			<point x="472" y="-143"/>
			<point x="530" y="-102" type="curve"/>
			<point x="469" y="-33" type="line"/>
			<point x="430" y="-72"/>
			<point x="389" y="-121"/>
		</contour>
	</outline>
</glyph>
<glyph name="g.H.init" format="2">
	<advance width="788" height="1750"/>
	<note>
		u182D.iniV1
	</note>
	<outline>
		<contour>
			<point x="221" y="96" type="curve"/>
			<point x="299" y="96" type="line"/>
			<point x="289" y="268"/>
			<point x="258" y="377"/>
			<point x="206" y="423" type="curve"/>
			<point x="214" y="570"/>
			<point x="270" y="644"/>
			<point x="362" y="644" type="curve" smooth="yes"/>
			<point x="463" y="644"/>
			<point x="512" y="562"/>
			<point x="512" y="378" type="curve" smooth="yes"/>
			<point x="512" y="285"/>
			<point x="506" y="191"/>
			<point x="495" y="96" type="curve"/>
			<point x="573" y="96" type="line"/>
			<point x="587" y="192"/>
			<point x="594" y="281"/>
			<point x="594" y="364" type="curve"/>
			<point x="818" y="364" type="line"/>
			<point x="818" y="444" type="line"/>
			<point x="591" y="444" type="line"/>
			<point x="573" y="633"/>
			<point x="497" y="727"/>
			<point x="362" y="727" type="curve" smooth="yes"/>
			<point x="271" y="727"/>
			<point x="204" y="679"/>
			<point x="165" y="593" type="curve" smooth="yes"/>
			<point x="146" y="551"/>
			<point x="134" y="504"/>
			<point x="129" y="451" type="curve"/>
			<point x="96" y="450"/>
			<point x="68" y="444"/>
			<point x="45" y="433" type="curve"/>
			<point x="45" y="353" type="line"/>
			<point x="62" y="362"/>
			<point x="84" y="366"/>
			<point x="112" y="366" type="curve" smooth="yes"/>
			<point x="149" y="366"/>
			<point x="174" y="342"/>
			<point x="189" y="294" type="curve" smooth="yes"/>
			<point x="204" y="246"/>
			<point x="214" y="180"/>
		</contour>
	</outline>
</glyph>
<glyph name="h.G.isol" format="2">
	<advance width="706" height="1750"/>
	<note>
		u182C.isoV1
	</note>
	<outline>
		<contour>
			<point x="174" y="42" type="curve"/>
			<point x="245" y="85" type="line"/>
			<point x="168" y="194"/>
			<point x="124" y="286"/>
			<point x="124" y="407" type="curve" smooth="yes"/>
			<point x="124" y="567"/>
			<point x="181" y="644"/>
			<point x="273" y="644" type="curve" smooth="yes"/>
			<point x="353" y="644"/>
			<point x="392" y="594"/>
			<point x="410" y="510" type="curve" smooth="yes"/>
			<point x="419" y="468"/>
			<point x="425" y="419"/>
			<point x="428" y="364" type="curve"/>
			<point x="661" y="364" type="line"/>
			<point x="661" y="444" type="line"/>
			<point x="496" y="444" type="line"/>
			<point x="484" y="556"/>
			<point x="453" y="643"/>
			<point x="393" y="691" type="curve" smooth="yes"/>
			<point x="362" y="715"/>
			<point x="322" y="727"/>
			<point x="273" y="727" type="curve" smooth="yes"/>
			<point x="181" y="727"/>
			<point x="112" y="673"/>
			<point x="74" y="578" type="curve" smooth="yes"/>
			<point x="55" y="530"/>
			<point x="45" y="473"/>
			<point x="45" y="407" type="curve" smooth="yes"/>
			<point x="45" y="292"/>
			<point x="88" y="170"/>
		</contour>
	</outline>
</glyph>
<glyph name="h.Gh.medi" format="2">
	<advance width="568" height="1750"/>
	<note>
		u182C.medV2
	</note>
	<outline>
		<contour>
			<point x="19" y="96" type="line"/>
			<point x="85" y="96" type="line"/>
			<point x="104" y="364" type="line"/>
			<point x="284" y="364" type="line"/>
			<point x="303" y="96" type="line"/>
			<point x="369" y="96" type="line"/>
			<point x="388" y="364" type="line"/>
			<point x="598" y="364" type="line"/>
			<point x="598" y="444" type="line"/>
			<point x="0" y="444" type="line"/>
			<point x="0" y="364" type="line"/>
		</contour>
		<contour>
			<point x="2" y="-124" type="curve"/>
			<point x="45" y="-163" type="line"/>
			<point x="80" y="-127"/>
			<point x="126" y="-88"/>
			<point x="184" y="-47" type="curve"/>
			<point x="123" y="22" type="line"/>
			<point x="84" y="-17"/>
			<point x="43" y="-66"/>
		</contour>
		<contour>
			<point x="285" y="-124" type="curve"/>
			<point x="328" y="-163" type="line"/>
			<point x="363" y="-127"/>
			<point x="409" y="-88"/>
			<point x="467" y="-47" type="curve"/>
			<point x="406" y="22" type="line"/>
			<point x="367" y="-17"/>
			<point x="326" y="-66"/>
		</contour>
	</outline>
</glyph>
<glyph name="i.AI.medi" format="2">
	<advance width="579" height="1750"/>
	<note>
		u1822.medV1
	</note>
	<outline>
		<contour>
			<point x="391" y="-67" type="curve"/>
			<point x="464" y="-31" type="line"/>
			<point x="391" y="98"/>
			<point x="336" y="229"/>
			<point x="297" y="364" type="curve"/>
			<point x="609" y="364" type="line"/>
			<point x="609" y="444" type="line"/>
			<point x="0" y="444" type="line"/>
			<point x="0" y="364" type="line"/>
			<point x="19" y="96" type="line"/>
			<point x="85" y="96" type="line"/>
			<point x="104" y="364" type="line"/>
			<point x="218" y="364" type="line"/>
			<point x="257" y="219"/>
			<point x="314" y="75"/>
		</contour>
	</outline>
</glyph>
<glyph name="i.I.fina" format="2">
	<advance width="501" height="1750"/>
	<note>
		u1822.fin
	</note>
	<outline>
		<contour>
			<point x="127" y="42" type="curve"/>
			<point x="198" y="85" type="line"/>
			<point x="115" y="202"/>
			<point x="77" y="292"/>
			<point x="77" y="407" type="curve" smooth="yes"/>
			<point x="77" y="564"/>
			<point x="131" y="644"/>
			<point x="226" y="644" type="curve" smooth="yes"/>
			<point x="314" y="644"/>
			<point x="367" y="548"/>
			<point x="376" y="376" type="curve"/>
			<point x="456" y="386" type="line"/>
			<point x="450" y="485"/>
			<point x="430" y="565"/>
			<point x="396" y="625" type="curve" smooth="yes"/>
			<point x="356" y="693"/>
			<point x="299" y="727"/>
			<point x="226" y="727" type="curve" smooth="yes"/>
			<point x="127" y="727"/>
			<point x="59" y="669"/>
			<point x="24" y="570" type="curve" smooth="yes"/>
			<point x="7" y="521"/>
			<point x="-2" y="467"/>
			<point x="-2" y="407" type="curve" smooth="yes"/>
			<point x="-2" y="292"/>
			<point x="41" y="170"/>
		</contour>
	</outline>
</glyph>
<glyph name="i.I.isol" format="2">
	<advance width="548" height="1750"/>
	<note>
		u1822.fin
	</note>
	<outline>
		<contour>
			<point x="174" y="42" type="curve"/>
			<point x="245" y="85" type="line"/>
			<point x="162" y="202"/>
			<point x="124" y="292"/>
			<point x="124" y="407" type="curve" smooth="yes"/>
			<point x="124" y="564"/>
			<point x="178" y="644"/>
			<point x="273" y="644" type="curve" smooth="yes"/>
			<point x="361" y="644"/>
			<point x="414" y="548"/>
			<point x="423" y="376" type="curve"/>
			<point x="503" y="386" type="line"/>
			<point x="497" y="485"/>
			<point x="477" y="565"/>
			<point x="443" y="625" type="curve" smooth="yes"/>
			<point x="403" y="693"/>
			<point x="346" y="727"/>
			<point x="273" y="727" type="curve" smooth="yes"/>
			<point x="174" y="727"/>
			<point x="106" y="669"/>
			<point x="71" y="570" type="curve" smooth="yes"/>
			<point x="54" y="521"/>
			<point x="45" y="467"/>
			<point x="45" y="407" type="curve" smooth="yes"/>
			<point x="45" y="292"/>
			<point x="88" y="170"/>
		</contour>
	</outline>
</glyph>
<glyph name="i.Ix.isol" format="2">
	<advance width="501" height="1750"/>
	<note>
		u1822.fin
	</note>
	<outline>
		<contour>
			<point x="127" y="42" type="curve"/>
			<point x="198" y="85" type="line"/>
			<point x="115" y="202"/>
			<point x="77" y="292"/>
			<point x="77" y="407" type="curve" smooth="yes"/>
			<point x="77" y="564"/>
			<point x="131" y="644"/>
			<point x="226" y="644" type="curve" smooth="yes"/>
			<point x="314" y="644"/>
			<point x="367" y="548"/>
			<point x="376" y="376" type="curve"/>
			<point x="456" y="386" type="line"/>
			<point x="450" y="485"/>
			<point x="430" y="565"/>
			<point x="396" y="625" type="curve" smooth="yes"/>
			<point x="356" y="693"/>
			<point x="299" y="727"/>
			<point x="226" y="727" type="curve" smooth="yes"/>
			<point x="127" y="727"/>
			<point x="59" y="669"/>
			<point x="24" y="570" type="curve" smooth="yes"/>
			<point x="7" y="521"/>
			<point x="-2" y="467"/>
			<point x="-2" y="407" type="curve" smooth="yes"/>
			<point x="-2" y="292"/>
			<point x="41" y="170"/>
		</contour>
		<contour>
			<point x="146" y="-146" type="curve"/>
			<point x="189" y="-185" type="line"/>
			<point x="224" y="-149"/>
			<point x="270" y="-110"/>
			<point x="328" y="-69" type="curve"/>
			<point x="267" y="0" type="line"/>
			<point x="228" y="-39"/>
			<point x="187" y="-88"/>
		</contour>
	</outline>
</glyph>
<glyph name="j.I.fina" format="2">
	<advance width="381" height="1750"/>
	<note>
		u1835.medV1
	</note>
	<outline>
		<contour>
			<point x="127" y="42" type="curve"/>
			<point x="198" y="85" type="line"/>
			<point x="115" y="202"/>
			<point x="77" y="292"/>
			<point x="77" y="407" type="curve" smooth="yes"/>
			<point x="77" y="564"/>
			<point x="131" y="644"/>
			<point x="226" y="644" type="curve" smooth="yes"/>
			<point x="303" y="644"/>
			<point x="343" y="598"/>
			<point x="363" y="510" type="curve" smooth="yes"/>
			<point x="372" y="468"/>
			<point x="378" y="419"/>
			<point x="381" y="364" type="curve"/>
			<point x="455" y="364" type="line"/>
			<point x="446" y="612"/>
			<point x="374" y="727"/>
			<point x="226" y="727" type="curve" smooth="yes"/>
			<point x="133" y="727"/>
			<point x="62" y="672"/>
			<point x="26" y="576" type="curve" smooth="yes"/>
			<point x="7" y="528"/>
			<point x="-2" y="472"/>
			<point x="-2" y="407" type="curve" smooth="yes"/>
			<point x="-2" y="292"/>
			<point x="41" y="170"/>
		</contour>
	</outline>
</glyph>
<glyph name="j.J.fina" format="2">
	<advance width="780" height="1750"/>
	<note>
		u1835.fin
	</note>
	<outline>
		<contour>
			<point x="0" y="100" type="curve"/>
			<point x="0" y="5" type="line"/>
			<point x="43" y="44"/>
			<point x="89" y="77"/>
			<point x="137" y="103" type="curve" smooth="yes"/>
			<point x="245" y="161" type="line" smooth="yes"/>
			<point x="320" y="201"/>
			<point x="351" y="263"/>
			<point x="351" y="364" type="curve"/>
			<point x="560" y="364" type="line" smooth="yes"/>
			<point x="629" y="364"/>
			<point x="658" y="335"/>
			<point x="658" y="279" type="curve" smooth="yes"/>
			<point x="658" y="235"/>
			<point x="651" y="196"/>
			<point x="636" y="162" type="curve"/>
			<point x="710" y="162" type="line"/>
			<point x="727" y="196"/>
			<point x="735" y="235"/>
			<point x="735" y="279" type="curve" smooth="yes"/>
			<point x="735" y="389"/>
			<point x="677" y="444"/>
			<point x="560" y="444" type="curve" smooth="yes"/>
			<point x="0" y="444" type="line"/>
			<point x="0" y="364" type="line"/>
			<point x="274" y="364" type="line"/>
			<point x="274" y="292"/>
			<point x="253" y="254"/>
			<point x="196" y="222" type="curve" smooth="yes"/>
			<point x="114" y="178" type="line" smooth="yes"/>
			<point x="61" y="149"/>
			<point x="23" y="123"/>
		</contour>
	</outline>
</glyph>
<glyph name="j.J.medi" format="2">
	<advance width="530" height="1750"/>
	<note>
		u1835.med
	</note>
	<outline>
		<contour>
			<point x="0" y="100" type="curve"/>
			<point x="0" y="5" type="line"/>
			<point x="43" y="44"/>
			<point x="89" y="77"/>
			<point x="137" y="103" type="curve" smooth="yes"/>
			<point x="245" y="161" type="line" smooth="yes"/>
			<point x="318" y="200"/>
			<point x="351" y="263"/>
			<point x="351" y="364" type="curve"/>
			<point x="560" y="364" type="line"/>
			<point x="560" y="444" type="line"/>
			<point x="0" y="444" type="line"/>
			<point x="0" y="364" type="line"/>
			<point x="274" y="364" type="line"/>
			<point x="274" y="292"/>
			<point x="253" y="254"/>
			<point x="196" y="222" type="curve" smooth="yes"/>
			<point x="114" y="178" type="line" smooth="yes"/>
			<point x="62" y="150"/>
			<point x="24" y="124"/>
		</contour>
	</outline>
</glyph>
